<svg width="32" height="32" viewBox="0 0 32 32" fill="none" xmlns="http://www.w3.org/2000/svg">
<path d="M26.0915 17.1885H21.736C20.8427 17.186 19.9579 17.3607 19.1326 17.7024C18.3073 18.0442 17.558 18.5462 16.928 19.1795L16.1785 19.9285C15.049 21.058 13.206 21.0575 12.073 19.93C10.9425 18.794 10.9415 16.9505 12.0715 15.821L12.82 15.072C13.4535 14.4422 13.9557 13.6929 14.2976 12.8676C14.6394 12.0423 14.8141 11.1573 14.8115 10.264V5.9085C14.8115 3.202 12.6095 1 9.903 1H5.9905C3.239 1 1 3.2395 1 5.991V8.9075C1 14.8015 3.2975 20.3495 7.47 24.5305C11.65 28.7025 17.198 30.9995 23.092 30.9995H26.0085C28.7605 30.9995 30.9995 28.76 30.9995 26.0085V22.0965C30.9995 19.39 28.798 17.1885 26.0915 17.1885ZM29 26.009C28.9991 26.802 28.6837 27.5622 28.1229 28.1229C27.5622 28.6837 26.802 28.9991 26.009 29H23.0925C17.732 29 12.686 26.91 8.885 23.116C5.0905 19.314 3.0005 14.268 3.0005 8.9075V5.991C3.00129 5.19807 3.3166 4.43783 3.87724 3.8771C4.43788 3.31636 5.19807 3.00093 5.991 3H9.9035C10.6746 3.00079 11.414 3.30748 11.9592 3.85276C12.5045 4.39803 12.8112 5.13736 12.812 5.9085V10.264C12.8137 10.8946 12.6903 11.5193 12.449 12.1018C12.2077 12.6844 11.8532 13.2134 11.406 13.658L10.6575 14.407C8.75 16.314 8.749 19.4245 10.659 21.3445C12.575 23.2505 15.685 23.2505 17.593 21.343L18.342 20.594C18.7866 20.1468 19.3156 19.7923 19.8982 19.551C20.4807 19.3097 21.1054 19.1863 21.736 19.188H26.0915C26.8626 19.1888 27.6018 19.4954 28.1471 20.0406C28.6923 20.5858 28.9991 21.3249 29 22.096V26.008V26.009Z" fill="#8D0247"/>
<path d="M17.2525 15.7473C17.3305 15.7473 17.4095 15.7378 17.488 15.7193L23.7425 14.2058C24.279 14.0753 24.609 13.5353 24.4795 12.9983C24.35 12.4613 23.8065 12.1328 23.272 12.2613L20.476 12.9383L26.153 7.26128C26.2485 7.16903 26.3247 7.05869 26.3771 6.93668C26.4295 6.81468 26.4571 6.68346 26.4582 6.55068C26.4594 6.4179 26.4341 6.28622 26.3838 6.16333C26.3335 6.04043 26.2593 5.92878 26.1654 5.83489C26.0715 5.74099 25.9598 5.66674 25.8369 5.61646C25.7141 5.56618 25.5824 5.54088 25.4496 5.54203C25.3168 5.54318 25.1856 5.57077 25.0636 5.62318C24.9416 5.67559 24.8312 5.75177 24.739 5.84728L19.062 11.5243L19.739 8.72828C19.7699 8.6006 19.7754 8.46808 19.7551 8.33828C19.7348 8.20849 19.6891 8.08396 19.6207 7.97183C19.5522 7.85969 19.4624 7.76214 19.3562 7.68475C19.2501 7.60735 19.1297 7.55164 19.002 7.52078C18.7442 7.45927 18.4725 7.50224 18.2463 7.64032C18.0201 7.7784 17.8576 8.00037 17.7945 8.25778L16.281 14.5123C16.2453 14.6594 16.2436 14.8127 16.2758 14.9606C16.308 15.1085 16.3733 15.2471 16.4669 15.3661C16.5605 15.4851 16.6799 15.5812 16.8161 15.6473C16.9522 15.7135 17.1016 15.7478 17.253 15.7478L17.2525 15.7473Z" fill="#8D0247"/>
</svg>
