<svg width="375" height="334" viewBox="0 0 375 334" fill="none" xmlns="http://www.w3.org/2000/svg">
<rect width="375" height="334" rx="0" fill="url(#paint0_linear_115_3626)" fill-opacity="0.6"/>
<rect width="375" height="334" rx="0" fill="#8D0247"/>
<path d="M64 119.5C64 156.227 34.2269 186 -2.5 186C-39.2269 186 -69 156.227 -69 119.5C-69 82.7731 -39.2269 53 -2.5 53C34.2269 53 64 82.7731 64 119.5ZM-35.8541 119.5C-35.8541 137.921 -20.921 152.854 -2.5 152.854C15.921 152.854 30.8541 137.921 30.8541 119.5C30.8541 101.079 15.921 86.1459 -2.5 86.1459C-20.921 86.1459 -35.8541 101.079 -35.8541 119.5Z" fill="#9F004F"/>
<path d="M429 9C429 75.8265 374.826 130 308 130C241.174 130 187 75.8265 187 9C187 -57.8265 241.174 -112 308 -112C374.826 -112 429 -57.8265 429 9ZM247.311 9C247.311 42.5179 274.482 69.6894 308 69.6894C341.518 69.6894 368.689 42.5179 368.689 9C368.689 -24.5178 341.518 -51.6894 308 -51.6894C274.482 -51.6894 247.311 -24.5178 247.311 9Z" fill="#9F004F"/>
<defs>
<linearGradient id="paint0_linear_115_3626" x1="297" y1="21.6812" x2="264.347" y2="113.629" gradientUnits="userSpaceOnUse">
<stop stop-color="#E2ACE5"/>
<stop offset="1" stop-color="#FBD096"/>
</linearGradient>
</defs>
</svg>
