<svg width="200" height="204" viewBox="0 0 200 204" fill="none" xmlns="http://www.w3.org/2000/svg">
<path d="M133.611 150.253H187.217C192.478 150.253 196.776 145.955 196.776 140.694V12.0591C196.776 6.79815 192.478 2.5 187.217 2.5H12.0591C6.79815 2.5 2.5 6.79815 2.5 12.0591V140.694C2.5 145.955 6.79815 150.253 12.0591 150.253H65.6656" stroke="white" stroke-width="5" stroke-linecap="round" stroke-linejoin="round"/>
<path d="M2.5 36.1631H196.776" stroke="white" stroke-width="5" stroke-linecap="round" stroke-linejoin="round"/>
<path d="M167.549 18.7986H178.965" stroke="white" stroke-width="5" stroke-linecap="round" stroke-linejoin="round"/>
<path d="M141.657 18.7986H153.073" stroke="white" stroke-width="5" stroke-linecap="round" stroke-linejoin="round"/>
<path d="M99.6379 169.131C121.724 169.131 139.628 151.226 139.628 129.141C139.628 107.055 121.724 89.1506 99.6379 89.1506C77.5521 89.1506 59.6479 107.055 59.6479 129.141C59.6479 151.226 77.5521 169.131 99.6379 169.131Z" stroke="white" stroke-width="5" stroke-linecap="round" stroke-linejoin="round"/>
<path d="M99.6378 169.131C106.911 169.131 112.807 151.226 112.807 129.141C112.807 107.055 106.911 89.1506 99.6378 89.1506C92.3645 89.1506 86.4683 107.055 86.4683 129.141C86.4683 151.226 92.3645 169.131 99.6378 169.131Z" stroke="white" stroke-width="5" stroke-linecap="round" stroke-linejoin="round"/>
<path d="M99.6379 142.31C121.724 142.31 139.628 136.414 139.628 129.141C139.628 121.867 121.724 115.971 99.6379 115.971C77.5521 115.971 59.6479 121.867 59.6479 129.141C59.6479 136.414 77.5521 142.31 99.6379 142.31Z" stroke="white" stroke-width="5" stroke-linecap="round" stroke-linejoin="round"/>
<path d="M32.8965 190.621H99.6381H166.38" stroke="white" stroke-width="5" stroke-linecap="round" stroke-linejoin="round"/>
<path d="M32.9309 180.168H12.0591V201.04H32.9309V180.168Z" stroke="white" stroke-width="5" stroke-linecap="round" stroke-linejoin="round"/>
<path d="M187.252 180.168H166.38V201.04H187.252V180.168Z" stroke="white" stroke-width="5" stroke-linecap="round" stroke-linejoin="round"/>
<path d="M99.6382 169.096V190.621" stroke="white" stroke-width="5" stroke-linecap="round" stroke-linejoin="round"/>
<path d="M62.2617 67.3503C82.8928 46.7192 116.35 46.7192 137.015 67.3503" stroke="white" stroke-width="5" stroke-linecap="round" stroke-linejoin="round"/>
<path d="M80.0728 78.5257C90.8697 67.7287 108.372 67.7287 119.169 78.5257" stroke="white" stroke-width="5" stroke-linecap="round" stroke-linejoin="round"/>
<path d="M62.2617 67.3503C82.8928 46.7192 116.35 46.7192 137.015 67.3503" stroke="white" stroke-width="5" stroke-linecap="round" stroke-linejoin="round"/>
<path d="M80.0728 78.5257C90.8697 67.7287 108.372 67.7287 119.169 78.5257" stroke="white" stroke-width="5" stroke-linecap="round" stroke-linejoin="round"/>
</svg>
