<svg width="231" height="204" viewBox="0 0 231 204" fill="none" xmlns="http://www.w3.org/2000/svg">
<path d="M115.028 151.424C142.451 151.424 164.682 129.193 164.682 101.77C164.682 74.3471 142.451 52.1165 115.028 52.1165C87.6052 52.1165 65.3745 74.3471 65.3745 101.77C65.3745 129.193 87.6052 151.424 115.028 151.424Z" stroke="white" stroke-width="5" stroke-linecap="round" stroke-linejoin="round"/>
<path d="M115.028 151.424C124.053 151.424 131.369 129.193 131.369 101.77C131.369 74.3471 124.053 52.1165 115.028 52.1165C106.003 52.1165 98.6875 74.3471 98.6875 101.77C98.6875 129.193 106.003 151.424 115.028 151.424Z" stroke="white" stroke-width="5" stroke-linecap="round" stroke-linejoin="round"/>
<path d="M115.028 118.111C142.451 118.111 164.682 110.795 164.682 101.77C164.682 92.7452 142.451 85.4292 115.028 85.4292C87.6052 85.4292 65.3745 92.7452 65.3745 101.77C65.3745 110.795 87.6052 118.111 115.028 118.111Z" stroke="white" stroke-width="5" stroke-linecap="round" stroke-linejoin="round"/>
<path d="M58.764 175.638L22.9258 113.58" stroke="white" stroke-width="5" stroke-linecap="round" stroke-linejoin="round"/>
<path d="M207.131 113.58L171.292 175.638" stroke="white" stroke-width="5" stroke-linecap="round" stroke-linejoin="round"/>
<path d="M150.866 16.1296H79.1899" stroke="white" stroke-width="5" stroke-linecap="round" stroke-linejoin="round"/>
<path d="M58.764 27.9023L22.9258 89.96" stroke="white" stroke-width="5" stroke-linecap="round" stroke-linejoin="round"/>
<path d="M207.131 89.96L171.292 27.9023" stroke="white" stroke-width="5" stroke-linecap="round" stroke-linejoin="round"/>
<path d="M150.866 187.41H79.1899" stroke="white" stroke-width="5" stroke-linecap="round" stroke-linejoin="round"/>
<path d="M65.5603 29.7593C73.0878 29.7593 79.19 23.6571 79.19 16.1297C79.19 8.60221 73.0878 2.5 65.5603 2.5C58.0329 2.5 51.9307 8.60221 51.9307 16.1297C51.9307 23.6571 58.0329 29.7593 65.5603 29.7593Z" stroke="white" stroke-width="5" stroke-linecap="round" stroke-linejoin="round"/>
<path d="M164.496 29.7593C172.024 29.7593 178.126 23.6571 178.126 16.1297C178.126 8.60221 172.024 2.5 164.496 2.5C156.969 2.5 150.867 8.60221 150.867 16.1297C150.867 23.6571 156.969 29.7593 164.496 29.7593Z" stroke="white" stroke-width="5" stroke-linecap="round" stroke-linejoin="round"/>
<path d="M65.5603 201.04C73.0878 201.04 79.19 194.938 79.19 187.41C79.19 179.883 73.0878 173.781 65.5603 173.781C58.0329 173.781 51.9307 179.883 51.9307 187.41C51.9307 194.938 58.0329 201.04 65.5603 201.04Z" stroke="white" stroke-width="5" stroke-linecap="round" stroke-linejoin="round"/>
<path d="M164.496 201.04C172.024 201.04 178.126 194.938 178.126 187.41C178.126 179.883 172.024 173.781 164.496 173.781C156.969 173.781 150.867 179.883 150.867 187.41C150.867 194.938 156.969 201.04 164.496 201.04Z" stroke="white" stroke-width="5" stroke-linecap="round" stroke-linejoin="round"/>
<path d="M213.927 115.4C221.454 115.4 227.557 109.298 227.557 101.77C227.557 94.2426 221.454 88.1404 213.927 88.1404C206.4 88.1404 200.297 94.2426 200.297 101.77C200.297 109.298 206.4 115.4 213.927 115.4Z" stroke="white" stroke-width="5" stroke-linecap="round" stroke-linejoin="round"/>
<path d="M16.1297 115.4C23.6571 115.4 29.7593 109.298 29.7593 101.77C29.7593 94.2426 23.6571 88.1404 16.1297 88.1404C8.60221 88.1404 2.5 94.2426 2.5 101.77C2.5 109.298 8.60221 115.4 16.1297 115.4Z" stroke="white" stroke-width="5" stroke-linecap="round" stroke-linejoin="round"/>
<path d="M157.663 27.9397L139.836 58.8014" stroke="white" stroke-width="5" stroke-linecap="round" stroke-linejoin="round"/>
<path d="M90.2203 58.8014L72.394 27.9397" stroke="white" stroke-width="5" stroke-linecap="round" stroke-linejoin="round"/>
<path d="M157.663 175.6L139.836 144.739" stroke="white" stroke-width="5" stroke-linecap="round" stroke-linejoin="round"/>
<path d="M90.2203 144.739L72.394 175.6" stroke="white" stroke-width="5" stroke-linecap="round" stroke-linejoin="round"/>
<path d="M200.297 101.77H164.682" stroke="white" stroke-width="5" stroke-linecap="round" stroke-linejoin="round"/>
<path d="M65.3747 101.77H29.7593" stroke="white" stroke-width="5" stroke-linecap="round" stroke-linejoin="round"/>
</svg>
