<svg width="172" height="204" viewBox="0 0 172 204" fill="none" xmlns="http://www.w3.org/2000/svg">
<path d="M146.539 156.506H24.7837C12.4768 156.506 2.5 166.475 2.5 178.773C2.5 191.071 12.4768 201.04 24.7837 201.04H146.539C158.846 201.04 168.823 191.071 168.823 178.773C168.823 166.475 158.846 156.506 146.539 156.506Z" stroke="white" stroke-width="5" stroke-linecap="round" stroke-linejoin="round"/>
<path d="M103.079 84.688H146.572C158.855 84.688 168.856 94.6553 168.856 106.972V178.79" stroke="white" stroke-width="5" stroke-linecap="round" stroke-linejoin="round"/>
<path d="M2.5 178.756V106.938C2.5 94.6554 12.4673 84.6545 24.7837 84.6545H68.2773" stroke="white" stroke-width="5" stroke-linecap="round" stroke-linejoin="round"/>
<path d="M26.0253 189.73C32.0861 189.73 36.9994 184.817 36.9994 178.756C36.9994 172.695 32.0861 167.782 26.0253 167.782C19.9645 167.782 15.0513 172.695 15.0513 178.756C15.0513 184.817 19.9645 189.73 26.0253 189.73Z" stroke="white" stroke-width="5" stroke-linecap="round" stroke-linejoin="round"/>
<path d="M48.2085 178.756H60.6592" stroke="white" stroke-width="5" stroke-linecap="round" stroke-linejoin="round"/>
<path d="M74.5864 178.756H87.0371" stroke="white" stroke-width="5" stroke-linecap="round" stroke-linejoin="round"/>
<path d="M85.6616 121.671V47.9736" stroke="white" stroke-width="5" stroke-linecap="round" stroke-linejoin="round"/>
<path d="M85.6612 47.9737C92.7414 47.9737 98.481 42.2341 98.481 35.1538C98.481 28.0736 92.7414 22.334 85.6612 22.334C78.581 22.334 72.8413 28.0736 72.8413 35.1538C72.8413 42.2341 78.581 47.9737 85.6612 47.9737Z" stroke="white" stroke-width="5" stroke-linecap="round" stroke-linejoin="round"/>
<path d="M117.61 2.5C135.632 20.5216 135.632 49.7858 117.61 67.8074" stroke="white" stroke-width="5" stroke-linecap="round" stroke-linejoin="round"/>
<path d="M105.965 14.783C117.207 26.0255 117.207 44.2821 105.965 55.5582" stroke="white" stroke-width="5" stroke-linecap="round" stroke-linejoin="round"/>
<path d="M55.357 67.8074C37.3354 49.7858 37.3354 20.5216 55.357 2.5" stroke="white" stroke-width="5" stroke-linecap="round" stroke-linejoin="round"/>
<path d="M67.0022 55.5245C55.7597 44.2819 55.7597 26.0254 67.0022 14.7493" stroke="white" stroke-width="5" stroke-linecap="round" stroke-linejoin="round"/>
</svg>
