<svg width="269" height="142" viewBox="0 0 269 142" fill="none" xmlns="http://www.w3.org/2000/svg">
<g clip-path="url(#clip0_936_3800)">
<path opacity="0.2" d="M141.26 76.8102C139.9 76.7155 138.396 76.6709 136.774 76.6709C130.817 76.6709 127.139 78.7328 127.139 80.8058C127.139 81.8702 127.886 82.8677 129.413 83.5865L130.822 84.1048C132.149 84.4781 133.848 84.701 135.921 84.701C139.259 84.701 142.074 84.5784 142.074 82.9624C142.074 81.82 140.229 81.2237 145.517 80.5996C146.52 80.4826 149.324 79.747 148.594 78.7383C147.992 77.908 146.075 77.3229 143.255 76.9941L141.26 76.8102Z" fill="#1E1B1C"/>
<path d="M129.334 77.3281C129.334 77.3281 129.178 79.7076 129.173 79.7578C129.089 80.6884 129.412 82.611 131.58 82.767C133.363 82.8952 132.466 82.8283 132.466 82.8283C132.466 82.8283 133.96 82.7726 133.753 80.6606C133.681 79.925 133.419 77.4173 133.419 77.4173L129.334 77.3281Z" fill="#D5DFEF"/>
<path d="M129.368 76.8102C129.368 76.8102 129.324 76.7489 129.195 79.4182C129.151 80.3544 129.474 81.9426 131.597 82.093C132.455 82.1543 132.673 82.1878 132.701 82.1878C133.325 82.2156 133.832 81.6082 133.737 80.2652C133.698 79.6801 133.314 77.1 133.275 77.0944L129.368 76.8102Z" fill="#1C8E52"/>
<path d="M147.284 46.6685C146.682 46.8747 143.349 48.3626 140.97 48.8418C139.476 49.1427 139.432 47.6381 139.382 47.0196C139.237 45.2586 138.334 40.795 138.334 40.795C138.334 40.795 137.091 36.8718 138.947 36.309C140.006 35.9914 141.148 36.7269 141.55 39.5968C141.711 40.7392 142.363 45.8772 142.363 45.8772L147.178 44.8128C147.178 44.8128 148.248 46.3286 147.278 46.6629L147.284 46.6685Z" fill="#E8C5AC"/>
<path d="M137.565 44.4448L137.487 41.3966C137.487 41.3966 136.807 36.4871 138.663 35.9298C139.721 35.6122 141.666 36.3979 141.928 39.7081C141.978 40.3211 142.229 43.4473 142.229 43.4473C142.229 43.4473 141.583 44.1272 140.206 44.3278C138.83 44.5284 137.565 44.4448 137.565 44.4448Z" fill="#489AE5"/>
<path d="M146.977 45.9824L146.553 45.0852C146.553 45.0852 147.735 44.0543 148.576 43.9874C149.412 43.9206 150.265 44.032 150.265 44.032C150.265 44.032 150.861 44.2493 150.922 45.0964C151.012 46.2666 150.276 46.3892 150.276 46.3892L148.443 46.8852C147.874 46.9465 147.033 46.5954 146.977 45.9824Z" fill="#E8C5AC"/>
<path d="M142.129 75.6458L142.909 76.2922C142.909 76.2922 146.13 77.6909 146.353 77.7968C146.604 77.9138 147.161 78.1144 147.105 78.577C147.094 78.6828 147.1 78.7553 147.033 78.8556C146.788 79.2122 146.286 79.3738 145.818 79.4686C144.798 79.6692 142.636 79.4017 142.636 79.4017C142.006 79.3404 138.886 78.9392 138.886 78.9392C138.819 78.9057 138.674 78.2705 138.635 77.9863L138.613 76.1083L142.123 75.6458H142.129Z" fill="#1C8E52"/>
<path d="M147.095 78.5377C147.095 78.5377 146.749 78.9501 146.393 79.1284C146.125 79.2622 145.752 79.3346 145.379 79.3847C143.891 79.5854 141.617 79.1284 141.617 79.1284C141.394 79.0838 140.536 78.8944 140.536 78.8944L138.719 78.3928C138.719 78.3928 138.853 78.9501 138.87 78.9389C138.87 78.9389 141.634 79.4126 141.818 79.4683C141.818 79.4683 144.002 79.8974 145.507 79.7135C145.98 79.6578 146.777 79.3625 147.05 78.9278C147.1 78.8498 147.151 78.6603 147.095 78.5321V78.5377Z" fill="#D5DFEF"/>
<path d="M140.067 53.5051L142.925 75.5949C143.042 76.3918 143.159 76.5479 142.925 76.8265C142.073 77.8463 139.192 79.3899 138.629 77.707L134.048 51.8389L140.067 53.5107V53.5051Z" fill="#144994"/>
<path d="M136.858 52.4246L133.915 76.6432L133.737 78.3317C133.687 78.9057 132.89 79.4685 131.92 79.5688C130.722 79.6914 130.098 79.3292 130.098 79.3292C129.335 79.0505 129.045 78.1701 129.039 77.9695L129.63 65.7208L130.171 52.9707L136.858 52.4246Z" fill="#144994"/>
<path d="M140.212 36.7157C141.048 38.4154 141.026 40.4438 140.207 51.0485L140.223 55.7351C140.207 56.1864 130.065 54.8434 130.053 54.6205L130.215 39.7361C130.21 38.694 134.116 36.4426 135.024 36.1807L137.281 35.551C137.281 35.551 139.65 35.5677 140.218 36.7157H140.212Z" fill="#3178C5"/>
<path d="M140.816 41.4363C140.765 43.4814 140.559 46.4628 140.203 51.0546L140.431 56.3598C140.431 56.3598 137.823 57.6024 134.886 57.569C130.924 57.5189 129.982 57.3071 129.982 57.3071C129.982 57.3071 130.077 52.0911 130.066 51.8682L130.127 47.2541C130.127 47.2541 132.15 47.5049 133.209 46.4461C133.605 46.0504 134.307 44.0721 134.407 42.0381L140.816 41.4363Z" fill="#144994"/>
<path d="M137.277 35.5514C137.277 35.5514 137.533 35.5068 137.884 35.5012C137.918 35.5347 137.951 35.5681 137.985 35.6071C137.578 35.5514 137.277 35.5514 137.277 35.5514Z" fill="#EDEDED"/>
<path d="M137.994 37.7181C136.523 38.9887 134.957 37.6903 134.344 36.4643L135.119 32.3684L138.2 33.4941L137.994 37.7181Z" fill="#E8C5AC"/>
<path d="M140.815 41.5472C140.815 41.5472 140.854 38.4711 139.934 37.3176C139.416 36.6712 138.669 36.1975 138.669 36.1975L137.516 36.2142C137.516 36.2142 138.658 37.0278 139.087 37.6241C140.096 39.0173 139.806 41.8593 139.806 41.8593L140.82 41.5528L140.815 41.5472Z" fill="#144994"/>
<path d="M137.894 30.6248C138.674 30.647 138.735 31.3994 138.735 31.3994L138.685 32.9597C138.685 32.9597 138.635 33.2996 138.345 33.3498C137.899 33.4278 137.721 33.0321 137.537 32.603C137.526 32.5807 137.297 31.9399 137.281 31.9065C137.086 31.3659 137.164 30.6025 137.899 30.6303L137.894 30.6248Z" fill="#FFE8D9"/>
<path d="M137.959 28.0614L134.956 27.9778L134.733 33.3944C134.761 33.7677 134.705 33.9182 134.755 34.2358C134.811 34.5813 134.961 34.8934 135.429 35.2389C135.429 35.2389 136.488 35.9633 137.023 36.2698C137.33 36.437 137.503 36.5429 137.848 36.5763C138.996 36.6822 139.537 35.824 139.782 35.1888C139.893 34.9046 140.2 34.0296 140.239 33.7176L140.762 30.5189L140.595 28.5406L137.954 28.0669L137.959 28.0614Z" fill="#FFE1CC"/>
<path d="M139.342 27.6824C140.166 28.1839 140.729 28.2564 140.267 29.5492C139.893 30.5969 140.718 30.7362 140.735 30.7529C140.746 30.764 140.796 30.0396 140.83 29.6105C140.88 28.9752 140.217 29.1647 139.943 29.3653C139.542 29.6607 138.606 30.1956 138.578 30.2068C138.227 30.3962 138.16 30.2458 138.144 29.995C138.144 29.9393 138.149 29.6105 138.149 29.6105C138.104 29.6384 137.296 29.9894 137.074 30.1065C136.449 30.452 136.327 30.9702 136.338 31.4439L136.321 31.9176C136.316 32.1628 136.344 32.447 136.104 32.4135C135.848 32.3745 135.647 32.3132 135.586 32.0457C135.586 32.0457 135.407 31.1263 134.811 31.2321C134.237 31.3324 134.622 32.6587 134.649 32.7312L134.778 34.5144C134.555 34.5757 134.075 34.1912 133.814 33.5671C133.329 32.4191 133.028 31.5944 132.894 31.2433C131.601 27.7994 134.544 25.1914 138.261 26.4564C138.957 26.6905 139.336 27.688 139.336 27.688L139.342 27.6824Z" fill="#633A11"/>
<path d="M134.906 31.0874C135.68 31.1153 135.747 31.862 135.747 31.862L135.697 33.4223C135.697 33.4223 135.647 33.7567 135.351 33.8124C134.906 33.8849 134.727 33.4948 134.543 33.0657C134.532 33.0378 134.298 32.4081 134.287 32.3691C134.086 31.8341 134.17 31.0707 134.906 31.093V31.0874Z" fill="#FFE1CC"/>
<path d="M132.684 52.4193C132.193 53.0546 131.463 51.9568 131.463 51.9568C131.463 51.9568 128.537 50.636 126.86 49.1593C125.183 47.6826 125.094 47.4318 126.119 45.7879L129.284 40.8728C129.284 40.8728 130.343 38.6716 131.742 38.8444C133.347 39.0394 134.082 41.3409 133.174 42.7675C132.672 43.5532 130.588 45.8659 129.619 46.9302C129.295 47.2813 129.033 47.4708 129.268 47.7829L133.057 51.1933C133.057 51.1933 133.441 51.4552 132.684 52.4249V52.4193Z" fill="#FFE1CC"/>
<path d="M127.864 42.7278L129.218 40.6214C129.218 40.6214 130.444 38.5261 131.849 38.6988C133.454 38.8939 134.284 41.279 133.376 42.7056C133.063 43.1904 132.15 44.2603 131.263 45.2634C131.263 45.2634 130.79 45.6368 129.781 44.8232C127.786 43.2182 127.864 42.7334 127.864 42.7334V42.7278Z" fill="#489AE5"/>
<path d="M141.019 29.9841C141.003 30.246 140.975 30.4968 140.941 30.742C140.785 31.7618 138.083 31.1153 136.533 30.5748C134.661 29.9172 132.32 29.5996 132.794 28.0504C133.368 26.2114 134.94 25.4145 137.57 25.8771C138.985 26.1223 141.209 27.326 141.019 29.9841Z" fill="#1C8E52"/>
<path d="M137.053 30.5073C137.053 30.5073 140.547 30.8082 140.976 30.7024C141.048 30.6856 143.751 31.9451 141.644 31.9228C139.343 31.9005 135.069 30.3513 137.053 30.5017V30.5073Z" fill="#0E723B"/>
<path d="M134.405 42.0371C134.405 42.0371 134.511 40.304 133.753 38.8217C132.995 37.345 132.276 37.6626 132.276 37.6626L133.168 37.1053C133.168 37.1053 134.182 37.0608 134.94 38.7158C135.475 39.8861 135.703 42.3325 135.703 42.3325L134.405 42.0371Z" fill="#144994"/>
<path d="M140.167 41.9309C139.955 42.0368 139.771 42.3098 139.755 42.5439C139.738 42.7779 139.899 42.8838 140.111 42.7779C140.323 42.672 140.507 42.4045 140.524 42.1705C140.54 41.9364 140.379 41.8306 140.167 41.9309Z" fill="#FFDB28"/>
<path d="M135.141 42.4381C134.929 42.5384 134.745 42.8115 134.728 43.0455C134.712 43.2796 134.873 43.3854 135.085 43.2796C135.297 43.1737 135.481 42.9062 135.498 42.6721C135.514 42.4381 135.353 42.3322 135.141 42.4381Z" fill="#FFDB28"/>
<path d="M139.699 43.2634L135.838 43.6089L135.542 47.7215C135.542 47.7215 135.442 48.3512 136.361 48.3122C137.281 48.2732 138.518 48.106 138.953 47.9611C139.387 47.8218 139.415 47.2311 139.415 47.2311L139.699 43.2578V43.2634Z" fill="#062E56"/>
<path d="M133.056 51.187C133.056 51.187 133.363 51.2539 134.143 51.566C134.923 51.878 134.806 51.9449 135.213 52.7306C135.625 53.5164 135.347 53.4941 134.806 53.4272C134.266 53.3548 132.455 52.2514 132.455 52.2514L133.051 51.1926L133.056 51.187Z" fill="#FFE1CC"/>
<path d="M150.565 44.3214C150.565 44.3214 149.724 44.3994 149.59 45.5306C149.456 46.6619 149.707 46.7399 150.025 46.7677C150.348 46.79 150.766 46.6061 151.067 46.2272C151.368 45.8483 151.284 44.1876 150.565 44.3214Z" fill="#E8C5AC"/>
<path d="M147.006 45.3694C147.006 45.3694 148.026 46.105 148.505 45.4753C148.979 44.8456 149.218 44.9905 149.369 44.9849C149.519 44.9849 150.149 45.18 150.305 45.1521C150.583 45.1019 150.834 44.6896 150.021 44.4611C149.213 44.2326 148.772 44.0654 148.41 44.0654C147.753 44.0654 146.359 44.7063 147.006 45.3639V45.3694Z" fill="#FFE1CC"/>
<path d="M134.595 52.6143C134.595 52.6143 133.865 52.2242 133.987 52.6868C134.049 52.9264 134.015 53.4613 134.45 53.6397C134.885 53.818 135.966 53.5394 136.116 53.8514C136.194 54.013 134.84 54.3195 134.116 54.2025C133.391 54.0911 132.5 53.9685 132.182 53.244C131.864 52.5196 131.458 51.9567 131.458 51.9567C131.458 51.9567 132.522 51.2044 133.224 51.5221C133.926 51.8397 134.595 52.6143 134.595 52.6143Z" fill="#FFE1CC"/>
</g>
<g style="mix-blend-mode:multiply" opacity="0.21">
<path d="M-1.98328 115.697C7.51803 116.009 16.3618 116.088 21.8118 116.132C69.937 116.528 101.706 96.0205 141.395 69.0936C151.737 62.0777 163.106 51.4897 173.142 45.6106C173.186 45.5827 173.225 45.5493 173.27 45.5159L175.856 47.0093L176.753 46.6415V46.2013L177.193 46.4576L178.09 46.0898V45.6496L178.531 45.9059L179.428 45.5381V45.0979L179.868 45.3543L180.765 44.9865V44.5462L181.205 44.8026L182.103 44.4348V43.9945L182.543 44.2509L183.44 43.8831V43.454L183.886 43.7159L194.095 42.1277L203.379 36.7668V32.1137L215.221 24.9083L199.902 16.4937L196.731 18.0651C196.692 18.0428 196.658 18.015 196.619 17.9927C195.828 17.5357 195.048 17.6806 194.613 17.898V17.8924C194.613 17.8924 194.591 17.9035 194.557 17.9258C194.541 17.937 194.518 17.9425 194.507 17.9537C194.296 18.0818 193.755 18.4106 193.22 19.018L190.467 17.4131L180.659 23.0749L176.848 31.0159V31.6289L176.402 31.367L175.505 32.0357V32.6208L175.064 32.3645L174.167 33.0332V33.6183L173.727 33.362L172.83 34.0307V34.6158L172.39 34.3595L171.492 35.0282V35.6133L171.052 35.357L170.155 36.0257V36.6108L169.715 36.3545L168.818 37.0232L168.829 39.0962V39.5866L168.84 42.9246L169.977 43.5822C160.213 49.6396 149.403 59.5812 139.506 66.2906C100.871 92.4986 69.3017 113.14 21.823 112.755C16.3674 112.711 7.50132 112.632 -2 112.32V115.664L-1.98328 115.697Z" fill="black"/>
</g>
<path d="M202.381 11.3896L192.177 5.12598L192.194 11.3896L202.397 17.6532L202.381 11.3896Z" fill="#C5C5C5"/>
<path d="M207.574 7.92427L193.938 0L183.952 5.76766L197.588 13.6919L207.574 7.92427Z" fill="#1DAAD9"/>
<path d="M187.836 23.6727L180.09 19.4041L180.107 22.6585L187.847 27.1834L187.836 23.6727Z" fill="#1A98C2"/>
<path d="M186.463 24.4639L178.723 20.1953L178.734 23.199L186.474 27.7239L186.463 24.4639Z" fill="#1A98C2"/>
<path d="M187.83 21.8834L180.09 17.6147L179.633 17.8822L187.373 22.1453L187.83 21.8834Z" fill="#1DAAD9"/>
<path d="M185.105 25.2498L177.365 20.9812L177.376 23.7564L185.116 28.2813L185.105 25.2498Z" fill="#1A98C2"/>
<path d="M186.46 22.6746L178.719 18.406L178.268 18.6679L186.014 22.931L186.46 22.6746Z" fill="#1DAAD9"/>
<path d="M182.385 25.5284L174.639 21.2598L174.651 24.8652L182.396 29.3902L182.385 25.5284Z" fill="#1A98C2"/>
<path d="M183.746 24.7425L176 20.4739L176.016 24.3078L183.757 28.8328L183.746 24.7425Z" fill="#1A98C2"/>
<path d="M185.099 23.4605L177.359 19.1919L176.908 19.4482L184.654 23.7169L185.099 23.4605Z" fill="#1DAAD9"/>
<path d="M187.818 18.3726L180.073 13.8477L180.089 17.6147L187.83 21.8834L187.818 18.3726Z" fill="#1A98C2"/>
<path d="M197.587 13.6916L183.951 5.76733L180.073 13.8476L187.818 18.3726L197.587 13.6916Z" fill="#1FB4E7"/>
<path d="M183.739 24.2462L175.999 19.9775L175.547 20.2339L183.293 24.5025L183.739 24.2462Z" fill="#1DAAD9"/>
<path d="M181.025 26.314L173.279 22.0454L173.29 25.4168L181.036 29.9418L181.025 26.314Z" fill="#1A98C2"/>
<path d="M187.361 18.7296L179.615 14.2046L178.701 14.8844L186.447 19.4094L187.361 18.7296Z" fill="#1FB5E7"/>
<path d="M186.447 19.41L178.701 14.885L178.718 19.4378L186.459 22.6755L186.447 19.41Z" fill="#1A98C2"/>
<path d="M182.38 25.0321L174.635 20.7634L174.189 21.0198L181.935 25.2884L182.38 25.0321Z" fill="#1DAAD9"/>
<path d="M185.088 20.4285L177.347 15.9036L177.359 20.2223L185.099 23.46L185.088 20.4285Z" fill="#1A98C2"/>
<path d="M186.002 19.744L178.256 15.219L177.347 15.9044L185.088 20.4294L186.002 19.744Z" fill="#1FB5E7"/>
<path d="M179.666 27.0994L171.92 22.5745L171.932 25.9738L179.672 30.4987L179.666 27.0994Z" fill="#1A98C2"/>
<path d="M181.02 25.8179L173.274 21.5493L172.828 21.8057L180.574 26.0743L181.02 25.8179Z" fill="#1DAAD9"/>
<path d="M183.728 21.4429L175.982 16.918L175.999 21.0083L183.74 24.246L183.728 21.4429Z" fill="#1A98C2"/>
<path d="M184.642 20.7637L176.896 16.2388L175.982 16.9186L183.728 21.4436L184.642 20.7637Z" fill="#1FB5E7"/>
<path d="M179.66 25.567L171.914 21.042L171.92 22.5745L179.666 27.0994L179.66 25.567Z" fill="#1A98C2"/>
<path d="M183.283 21.7781L175.537 17.2532L174.628 17.933L182.369 22.458L183.283 21.7781Z" fill="#1FB5E7"/>
<path d="M182.369 22.4573L174.628 17.9324L174.634 21.7942L182.38 25.0319L182.369 22.4573Z" fill="#1A98C2"/>
<path d="M181.008 23.4717L173.268 18.9468L173.273 21.2929L181.019 25.8178L181.008 23.4717Z" fill="#1A98C2"/>
<path d="M181.922 22.7916L174.176 18.2666L173.268 18.9465L181.008 23.4714L181.922 22.7916Z" fill="#1FB5E7"/>
<path d="M180.563 23.806L172.817 19.281L171.903 19.9664L179.649 24.4914L180.563 23.806Z" fill="#1FB5E7"/>
<path d="M197.586 13.6922L187.818 18.3732L187.829 21.884L187.372 22.1459L187.361 18.7299L186.447 19.4097L186.458 22.6753L186.012 22.9316L186.001 19.7441L185.087 20.4295L185.098 23.461L184.652 23.7174L184.641 20.7639L183.727 21.4437L183.738 24.2468L183.293 24.5031L183.282 21.7781L182.368 22.458L182.379 25.0325L181.933 25.2888L181.922 22.7923L181.008 23.4722L181.019 25.8182L180.573 26.0746L180.562 23.8065L179.648 24.492L179.659 26.604L179.665 28.3872L179.67 30.4992L180.584 30.1259L180.579 27.8634L181.025 27.6015L181.036 29.942L181.95 29.5686L181.939 27.0777L182.384 26.8157L182.395 29.3903L183.309 29.0169L183.298 26.2919L183.744 26.03L183.755 28.833L184.669 28.4597L184.658 25.5062L185.104 25.2498L185.115 28.2813L186.029 27.908L186.018 24.7204L186.464 24.4641L186.475 27.7241L187.394 27.3507L187.377 23.9347L187.834 23.6728L187.846 27.1835L197.625 25.1551L207.617 19.393L207.573 7.92456L197.586 13.6922Z" fill="#126A87"/>
<path d="M179.649 24.4918L171.903 19.9668L171.914 22.0788L179.66 26.6038L179.649 24.4918Z" fill="#1A98C2"/>
<g style="mix-blend-mode:multiply" opacity="0.21">
<path d="M203.64 7.64566L196.997 11.4629L187.797 6.11876L194.445 2.30151L203.64 7.64566Z" fill="#3A7C8E"/>
</g>
<path d="M-1.98344 111.652C6.50366 111.891 15.0688 111.858 20.4519 111.891C21.8005 111.897 23.0042 111.908 24.0295 111.913C24.2859 111.913 24.5478 111.913 24.8041 111.913C66.9053 111.913 101.4 82.6684 131.854 56.8448C146.365 44.5405 160.074 32.9216 173.783 24.8914C174.579 24.4233 175.605 24.6908 176.067 25.4877C176.535 26.2846 176.268 27.3099 175.471 27.7725C162.013 35.6522 148.41 47.1819 134.016 59.3915C103.122 85.5884 68.1313 115.257 24.8097 115.257C24.5422 115.257 24.2747 115.257 24.0017 115.257C22.9763 115.246 21.7782 115.24 20.4296 115.235C15.0353 115.201 6.5371 115.235 -1.98901 114.995V111.652H-1.98344Z" fill="#126A87"/>
<g style="mix-blend-mode:multiply" opacity="0.21">
<path d="M-0.306323 137.826C15.6369 140.34 43.6282 140.986 55.4199 141.081C103.562 141.476 135.404 120.139 175.075 93.223C185.418 86.2071 196.786 75.6191 206.822 69.74C206.867 69.7121 206.906 69.6787 206.951 69.6453L209.536 71.1387L210.433 70.7709V70.3307L210.874 70.587L211.771 70.2192V69.779L212.211 70.0353L213.108 69.6675V69.2273L213.549 69.4836L214.446 69.1159V68.6756L214.886 68.932L215.783 68.5642V68.1239L216.223 68.3803L217.121 68.0125V67.5834L217.566 67.8453L227.775 66.2571L237.059 60.8962V56.2431L248.901 49.0377L233.582 40.623L230.411 42.1945C230.372 42.1722 230.339 42.1444 230.3 42.1221C229.509 41.6651 228.728 41.81 228.294 42.0273V42.0218C228.294 42.0218 228.271 42.0329 228.238 42.0552C228.221 42.0664 228.199 42.0719 228.188 42.0831C227.976 42.2112 227.436 42.54 226.901 43.1474L224.148 41.5425L214.334 47.2043L210.523 55.1453V55.7583L210.077 55.4964L209.18 56.1651V56.7502L208.739 56.4939L207.842 57.1626V57.7477L207.402 57.4914L206.505 58.1601V58.7452L206.065 58.4889L205.167 59.1576V59.7427L204.727 59.4864L203.83 60.1551V60.7402L203.39 60.4839L202.492 61.1526L202.504 63.2256V63.716L202.515 67.054L203.652 67.7116C193.888 73.769 183.077 83.7105 173.181 90.42C139.533 113.245 104.637 137.904 56.9969 137.497C44.1966 137.392 15.5589 137.208 -0.328613 134.706V137.787L-0.306323 137.826Z" fill="black"/>
</g>
<path d="M233.794 37.0227L223.591 30.759L223.607 37.0227L233.811 43.2863L233.794 37.0227Z" fill="#C5C5C5"/>
<path d="M238.99 33.5576L225.354 25.6333L215.367 31.401L229.004 39.3252L238.99 33.5576Z" fill="#1DAAD9"/>
<path d="M219.252 49.3057L211.506 45.0371L211.522 48.2915L219.263 52.8165L219.252 49.3057Z" fill="#1A98C2"/>
<path d="M217.88 50.097L210.134 45.8284L210.151 48.832L217.891 53.357L217.88 50.097Z" fill="#1A98C2"/>
<path d="M219.245 47.5164L211.499 43.2478L211.042 43.5153L218.788 47.7783L219.245 47.5164Z" fill="#1DAAD9"/>
<path d="M216.52 50.8829L208.774 46.6143L208.791 49.3894L216.531 53.9144L216.52 50.8829Z" fill="#1A98C2"/>
<path d="M217.876 48.3077L210.135 44.0391L209.684 44.301L217.43 48.564L217.876 48.3077Z" fill="#1DAAD9"/>
<path d="M213.801 51.1617L206.055 46.8931L206.066 50.4986L213.812 55.0235L213.801 51.1617Z" fill="#1A98C2"/>
<path d="M215.161 50.3758L207.416 46.1072L207.427 49.9411L215.173 54.4661L215.161 50.3758Z" fill="#1A98C2"/>
<path d="M216.515 49.0936L208.775 44.825L208.323 45.0813L216.069 49.3499L216.515 49.0936Z" fill="#1DAAD9"/>
<path d="M219.229 44.0059L211.488 39.481L211.499 43.248L219.245 47.5167L219.229 44.0059Z" fill="#1A98C2"/>
<path d="M229.003 39.3249L215.367 31.4006L211.488 39.4809L219.229 44.0059L229.003 39.3249Z" fill="#1FB4E7"/>
<path d="M215.154 49.8795L207.408 45.6108L206.963 45.8672L214.709 50.1358L215.154 49.8795Z" fill="#1DAAD9"/>
<path d="M212.44 51.9476L204.694 47.679L204.705 51.0504L212.446 55.5754L212.44 51.9476Z" fill="#1A98C2"/>
<path d="M218.777 44.3629L211.031 39.8379L210.117 40.5177L217.863 45.0427L218.777 44.3629Z" fill="#1FB5E7"/>
<path d="M217.863 45.0433L210.117 40.5183L210.134 45.0711L217.874 48.3088L217.863 45.0433Z" fill="#1A98C2"/>
<path d="M213.796 50.6654L206.05 46.3967L205.604 46.6531L213.35 50.9217L213.796 50.6654Z" fill="#1DAAD9"/>
<path d="M216.504 46.0621L208.759 41.5371L208.775 45.8559L216.516 49.0936L216.504 46.0621Z" fill="#1A98C2"/>
<path d="M217.413 45.3773L209.672 40.8523L208.759 41.5377L216.504 46.0627L217.413 45.3773Z" fill="#1FB5E7"/>
<path d="M211.077 52.7327L203.336 48.2078L203.347 51.6071L211.088 56.132L211.077 52.7327Z" fill="#1A98C2"/>
<path d="M212.436 51.451L204.69 47.1824L204.244 47.4387L211.984 51.7073L212.436 51.451Z" fill="#1DAAD9"/>
<path d="M215.144 47.0765L207.398 42.5515L207.409 46.6418L215.155 49.8795L215.144 47.0765Z" fill="#1A98C2"/>
<path d="M216.058 46.3973L208.312 41.8723L207.398 42.5522L215.144 47.0771L216.058 46.3973Z" fill="#1FB5E7"/>
<path d="M211.076 51.2003L203.33 46.6753L203.335 48.2078L211.076 52.7327V51.2003Z" fill="#1A98C2"/>
<path d="M214.697 47.4117L206.952 42.8867L206.038 43.5666L213.784 48.0915L214.697 47.4117Z" fill="#1FB5E7"/>
<path d="M213.784 48.0906L206.038 43.5657L206.049 47.4275L213.795 50.6652L213.784 48.0906Z" fill="#1A98C2"/>
<path d="M212.425 49.105L204.679 44.5801L204.69 46.9262L212.436 51.4511L212.425 49.105Z" fill="#1A98C2"/>
<path d="M213.339 48.4249L205.593 43.8999L204.679 44.5798L212.425 49.1047L213.339 48.4249Z" fill="#1FB5E7"/>
<path d="M211.978 49.4393L204.233 44.9143L203.319 45.5997L211.065 50.1247L211.978 49.4393Z" fill="#1FB5E7"/>
<path d="M229.002 39.3255L219.228 44.0065L219.244 47.5173L218.787 47.7792L218.776 44.3632L217.862 45.043L217.873 48.3086L217.428 48.5649L217.411 45.3774L216.503 46.0628L216.514 49.0943L216.068 49.3507L216.057 46.3972L215.143 47.077L215.154 49.8801L214.708 50.1364L214.697 47.4114L213.783 48.0913L213.794 50.6658L213.348 50.9221L213.337 48.4256L212.423 49.1055L212.435 51.4515L211.983 51.7079L211.978 49.4398L211.064 50.1253L211.075 52.2373V54.0205L211.086 56.1325L212 55.7592L211.989 53.4967L212.44 53.2348L212.446 55.5753L213.36 55.2019L213.354 52.711L213.8 52.449L213.811 55.0236L214.725 54.6502L214.708 51.9252L215.16 51.6633L215.171 54.4663L216.085 54.093L216.074 51.1395L216.519 50.8831L216.53 53.9146L217.444 53.5413L217.433 50.3537L217.879 50.0974L217.89 53.3574L218.804 52.984L218.793 49.568L219.25 49.3061L219.261 52.8168L229.041 50.7884L239.027 45.0263L238.988 33.5579L229.002 39.3255Z" fill="#126A87"/>
<path d="M211.065 50.1248L203.319 45.5999L203.33 47.7119L211.076 52.2368L211.065 50.1248Z" fill="#1A98C2"/>
<g style="mix-blend-mode:multiply" opacity="0.21">
<path d="M235.054 33.279L228.406 37.0962L219.211 31.7521L225.859 27.9348L235.054 33.279Z" fill="#3A7C8E"/>
</g>
<path d="M-0.306885 133.908C14.5609 136.254 40.624 136.522 53.0231 136.6C54.3717 136.605 55.5698 136.616 56.6007 136.622C99.0752 136.979 133.782 107.533 164.425 81.5533C178.936 69.249 192.645 57.6301 206.354 49.5999C207.151 49.1318 208.176 49.3993 208.639 50.1962C209.107 50.9931 208.839 52.0184 208.042 52.481C194.584 60.3607 180.982 71.8904 166.588 84.1C135.693 110.297 100.702 139.966 57.3809 139.966C57.1134 139.966 56.8459 139.966 56.5729 139.966C55.5475 139.954 54.3494 139.949 53.0064 139.943C40.5237 139.871 14.8116 139.759 -0.306885 137.374V133.914L-0.306885 133.908Z" fill="#126A87"/>
<g clip-path="url(#clip1_936_3800)">
<g style="mix-blend-mode:multiply" opacity="0.29">
<path d="M176.579 105.715C182.374 106.395 180.351 107.052 180.351 108.301C180.351 110.073 183.433 110.206 187.094 110.206C193.62 110.206 196.724 108.211 196.724 105.938C196.724 103.664 192.695 101.407 186.163 101.407C179.287 101.407 174.294 102.176 173.213 103.67C172.41 104.779 175.486 105.581 176.584 105.709L176.579 105.715Z" fill="#231F20"/>
</g>
<path d="M193.649 102.716C193.649 102.716 193.632 105.33 193.632 105.386C193.654 106.411 193.142 108.49 190.768 108.49C188.806 108.49 189.792 108.49 189.792 108.49C189.792 108.49 188.165 108.311 188.555 106.021C188.695 105.224 189.174 102.499 189.174 102.499L193.649 102.722V102.716Z" fill="#383736"/>
<path d="M193.648 102.142C193.648 102.142 193.704 102.081 193.631 105.006C193.609 106.032 193.13 107.742 190.795 107.742C189.853 107.742 189.608 107.765 189.585 107.759C188.9 107.742 188.398 107.04 188.605 105.575C188.694 104.939 189.312 102.148 189.357 102.148H193.648V102.142Z" fill="#545454"/>
<path d="M179.796 99.8748L178.893 100.521C178.893 100.521 175.26 101.803 175.009 101.898C174.725 102.009 174.101 102.182 174.123 102.689C174.123 102.806 174.117 102.884 174.179 103.001C174.418 103.408 174.953 103.625 175.455 103.764C176.553 104.06 178.938 103.943 178.938 103.943C179.629 103.926 180.804 103.698 180.938 103.608C180.938 103.608 181.546 103.497 181.629 103.709C181.657 103.787 181.568 104.116 181.551 104.182L183.073 103.737C183.151 103.709 183.357 103.018 183.418 102.711L183.585 100.66L179.785 99.8803L179.796 99.8748Z" fill="#545454"/>
<path d="M174.865 103.353C175.143 103.52 175.55 103.626 175.951 103.709C177.562 104.044 180.086 103.726 180.086 103.726C180.337 103.693 181.284 103.553 181.284 103.553C181.284 103.553 181.658 103.62 181.641 103.704C181.641 103.659 181.641 103.704 181.658 103.704C181.691 103.721 181.563 104.177 181.563 104.177L181.195 103.893C181.195 103.893 180.042 104.033 179.835 104.077C179.835 104.077 177.411 104.378 175.784 104.06C175.271 103.96 174.424 103.576 174.163 103.08C174.112 102.991 174.073 102.779 174.146 102.645C174.146 102.673 174.491 103.124 174.865 103.347V103.353Z" fill="#282827"/>
<path d="M181.635 103.71L183.301 103.152C183.301 103.152 183.112 103.749 183.089 103.737L181.568 104.189C181.574 104.139 181.613 103.838 181.629 103.71H181.635Z" fill="#282827"/>
<path d="M183.573 76.1908L178.931 99.763C178.742 100.621 178.602 100.788 178.831 101.106C179.683 102.287 182.709 104.193 183.456 102.404L190.494 74.4856L183.579 76.1908H183.573Z" fill="#144994"/>
<path d="M187.373 74.9089L188.693 101.613L188.755 103.469C188.766 104.104 189.591 104.778 190.644 104.962C191.942 105.191 192.656 104.839 192.656 104.839C193.508 104.594 193.898 103.658 193.921 103.435L194.227 89.9996L194.584 77.712L187.367 74.9089H187.373Z" fill="#144994"/>
<path d="M179.878 60.7822C179.611 61.7964 179.594 62.8552 180.051 65.1066C180.502 67.3078 182.542 68.9461 184.102 74.4853C184.102 74.4853 183.651 78.7818 184.526 78.8877C184.526 78.8877 194.673 78.0852 194.634 77.84L191.269 61.88C191.051 60.7544 186.37 59.1829 185.339 59.0882L182.782 58.8987C182.782 58.8987 180.24 59.4225 179.878 60.7822Z" fill="#EDEDED"/>
<path d="M180.268 66.0986C180.992 69.9493 183.004 69.8657 183.032 74.9089L182.982 79.0773C182.982 79.0773 194.21 81.9695 194.528 79.6457C194.695 78.442 194.673 76.4637 194.389 75.5275C193.854 73.7498 192.834 69.3196 192.834 69.3196C192.834 69.3196 190.471 70.0998 189.401 68.8627C189 68.3946 187.546 66.5277 187.139 64.6943L180.262 66.1042L180.268 66.0986Z" fill="#144994"/>
<path d="M182.414 61.1564C184.264 62.204 184.704 60.4709 185.345 59.0889L184.415 55.0098L181.344 56.8822L182.414 61.1508V61.1564Z" fill="#E8C5AC"/>
<path d="M180.268 66.0987C180.268 66.0987 179.778 62.7161 180.279 60.9217C180.524 60.0468 180.847 59.5341 180.847 59.5341L182.09 59.3057C182.09 59.3057 181.382 60.3255 181.243 61.1168C180.898 63.0616 181.421 66.2101 181.421 66.2101L180.268 66.0987Z" fill="#144994"/>
<path d="M180.446 50.9964L183.656 50.2664L185.054 56.034C185.104 56.4408 185.194 56.5913 185.21 56.9424C185.227 57.3269 185.132 57.6947 184.698 58.1628C184.698 58.1628 183.717 59.1714 183.204 59.6116C182.914 59.8624 182.747 60.0129 182.379 60.1187C181.17 60.4754 180.407 59.6729 180 59.0432C179.822 58.7646 179.303 57.8897 179.192 57.5609L177.944 54.2396L178.1 51.9159L180.44 50.9964H180.446Z" fill="#FFE1CC"/>
<path d="M178.64 50.9855C177.86 51.6988 177.982 50.8517 178.751 52.1446C179.375 53.1922 178.038 54.4182 178.021 54.4405C178.01 54.4572 177.804 53.6882 177.676 53.2368C177.486 52.5625 178.238 52.6294 178.573 52.7799C179.063 53.0084 180.189 53.3873 180.217 53.3929C180.635 53.521 180.674 53.3483 180.635 53.0697C180.629 53.0084 180.546 52.6573 180.546 52.6573C180.601 52.6796 181.543 52.8802 181.805 52.9582C182.546 53.1922 182.791 53.7272 182.88 54.2399L182.998 54.7414C183.059 55.0033 183.081 55.3154 183.332 55.2263C183.599 55.1315 183.8 55.0201 183.811 54.7191C183.811 54.7191 183.811 53.6938 184.469 53.6771C185.11 53.6603 184.981 55.1705 184.965 55.2541L185.21 57.199C185.461 57.2157 185.895 56.6974 186.046 55.973C186.319 54.6356 186.464 53.6826 186.536 53.2814C187.205 49.3137 183.354 46.4661 179.637 48.6171C178.941 49.0184 178.64 50.9855 178.64 50.9855Z" fill="#633A11"/>
<path d="M184.375 53.5985C183.545 53.7936 183.639 54.6127 183.639 54.6127L184.029 56.279C184.029 56.279 184.152 56.63 184.481 56.6245C184.977 56.6077 185.083 56.1452 185.188 55.6437C185.194 55.6158 185.305 54.8802 185.317 54.8357C185.417 54.2171 185.166 53.4146 184.38 53.5985H184.375Z" fill="#FFE1CC"/>
<path d="M179.075 74.6475C178.936 75.5168 179.521 75.9181 179.521 75.9181C179.521 75.9181 184.096 74.7088 186.487 74.1794C189.307 73.5553 190.003 73.8562 190.555 71.7999L192.126 65.592C192.126 65.592 193.096 63.101 191.909 62.1035C190.555 60.9667 188.159 62.0924 187.696 63.8868C187.445 64.8731 187.15 68.278 187.022 69.8439C186.983 70.3677 187.094 70.5962 186.604 70.7634L180.68 73.4271C180.68 73.4271 179.287 73.3101 179.075 74.6475Z" fill="#FFE1CC"/>
<path d="M191.663 68.3114L192.338 65.6476C192.338 65.6476 193.101 63.0954 191.914 62.1035C190.56 60.9666 188.03 62.0812 187.567 63.8756C187.411 64.4885 187.239 66.021 187.099 67.4755C187.099 67.4755 187.15 68.133 188.559 68.3337C191.335 68.7349 191.669 68.3058 191.669 68.3058L191.663 68.3114Z" fill="#F5F5F5"/>
<path d="M177.532 53.5656C177.599 53.8108 177.672 54.0448 177.75 54.2677C178.469 56.3407 180.932 54.251 182.364 53.5711C183.986 52.8021 186.722 51.4981 186.454 50.8406C185.479 48.4499 183.3 47.1236 180.809 47.8091C178.318 48.4945 176.853 51.069 177.538 53.5656H177.532Z" fill="#1C8E52"/>
<path d="M182.693 53.2476C182.693 53.2476 178.017 54.6631 177.75 54.2674C177.438 53.7937 175.549 56.7528 177.711 55.9504C179.873 55.1479 184.794 52.6569 182.693 53.2476Z" fill="#0E723B"/>
<path d="M187.256 65.2514C187.256 65.2514 186.772 63.4124 187.268 61.657C187.764 59.9072 188.605 60.0911 188.605 60.0911L187.53 59.6843C187.53 59.6843 186.432 59.8515 185.969 61.7963C185.646 63.1672 185.925 65.8476 185.925 65.8476L187.256 65.2514Z" fill="#144994"/>
<path d="M181.047 66.3724C181.298 66.4392 181.554 66.69 181.621 66.9408C181.688 67.1915 181.537 67.3364 181.292 67.2695C181.041 67.2027 180.785 66.9519 180.718 66.7011C180.651 66.4559 180.796 66.3055 181.047 66.3724Z" fill="#FFF35A"/>
<path d="M186.554 65.8421C186.805 65.909 187.061 66.1597 187.128 66.4105C187.195 66.6613 187.044 66.8061 186.799 66.7393C186.548 66.6724 186.292 66.4216 186.225 66.1709C186.158 65.9257 186.309 65.7752 186.554 65.8421Z" fill="#FFF35A"/>
<path d="M181.866 67.9377L186.035 67.1018L186.854 69.2807C186.854 69.2807 187.155 69.9104 186.18 70.1556C185.199 70.4008 183.845 70.607 183.349 70.5958C182.853 70.5847 182.635 69.9717 182.635 69.9717L181.872 67.9321L181.866 67.9377Z" fill="#062E56"/>
<path d="M180.679 73.505C180.679 73.505 180.512 73.1874 179.944 72.5019C179.381 71.8109 178.467 71.9893 178.11 72.162C177.759 72.3348 177.431 73.1874 178.038 73.1205C178.64 73.048 179.944 74.4635 179.944 74.4635L180.674 73.505H180.679Z" fill="#FFE1CC"/>
<path d="M179.159 72.7138C179.159 72.7138 179.427 73.1206 179.254 73.4549C179.087 73.7837 178.574 74.0066 178.245 73.9063C177.922 73.8116 177.387 73.5831 177.37 73.4271C177.309 72.6358 176.612 71.733 176.741 73.2878C176.874 74.837 177.727 75.4722 177.799 75.5112C177.877 75.5558 179.17 76.0741 179.716 75.8623C180.262 75.6506 180.53 75.2883 180.53 75.2883L179.154 72.7138H179.159Z" fill="#FFE1CC"/>
</g>
<g clip-path="url(#clip2_936_3800)">
<path opacity="0.3" d="M257.571 95.6052C257.571 95.6052 269.229 97.2547 267.942 100.47C266.655 103.68 264.821 106.071 260.781 103.775C256.741 101.484 254.724 99.7345 250.684 99.3667C246.644 98.9989 244.715 96.8869 248.483 96.0621C252.244 95.2374 257.571 95.6052 257.571 95.6052Z" fill="black"/>
<path d="M265.802 97.5829C265.802 97.5829 266.02 98.4021 265.886 99.8176C265.791 100.787 265.089 103.39 263.172 103.579C262.927 103.601 262.253 103.668 261.784 103.356C261.45 103.133 261.043 102.593 261.177 101.361C261.261 100.592 262.046 97.5105 262.046 97.5105L265.808 97.5829H265.802Z" fill="#D5DFEF"/>
<path d="M265.768 97.0479C265.768 97.0479 266.058 97.75 265.651 99.8565C265.344 101.434 264.47 103.339 262.346 103.161C261.683 103.105 260.858 102.76 261.204 100.754C261.327 100.04 261.834 97.2819 261.878 97.2819L265.762 97.0479H265.768Z" fill="#1C8E52"/>
<path d="M264.676 100.04C264.069 99.6945 263.372 99.4995 262.715 99.4995C262.319 99.4995 261.946 99.572 261.673 99.7001C261.617 99.7224 261.578 99.767 261.561 99.8227C261.539 99.8784 261.544 99.9397 261.567 99.9899C261.617 100.096 261.756 100.146 261.862 100.096C262.079 99.9955 262.38 99.9397 262.709 99.9397C263.294 99.9397 263.918 100.112 264.459 100.419C264.492 100.441 264.531 100.447 264.57 100.447C264.648 100.447 264.721 100.402 264.76 100.335C264.788 100.285 264.799 100.224 264.782 100.168C264.765 100.112 264.732 100.062 264.676 100.034V100.04Z" fill="#D5DFEF"/>
<path d="M264.481 100.698C263.873 100.352 263.177 100.157 262.519 100.157C262.129 100.157 261.761 100.224 261.488 100.352C261.377 100.402 261.332 100.536 261.382 100.642C261.432 100.748 261.566 100.798 261.672 100.748C261.889 100.647 262.185 100.592 262.508 100.592C263.099 100.592 263.717 100.764 264.258 101.071C264.291 101.093 264.33 101.099 264.369 101.099C264.447 101.099 264.52 101.054 264.559 100.987C264.62 100.881 264.581 100.748 264.475 100.686L264.481 100.698Z" fill="#D5DFEF"/>
<path d="M264.993 99.4386C264.971 99.3829 264.931 99.3383 264.881 99.316C264.285 99.0374 263.544 98.8813 262.842 98.8813C262.418 98.8813 262.039 98.9426 261.738 99.0541C261.683 99.0764 261.638 99.1154 261.616 99.1711C261.593 99.2268 261.588 99.2826 261.616 99.3383C261.655 99.4498 261.794 99.5055 261.9 99.4665C262.151 99.3717 262.48 99.3216 262.847 99.3216C263.483 99.3216 264.157 99.4665 264.697 99.7172C264.725 99.734 264.759 99.7395 264.792 99.7395C264.876 99.7395 264.954 99.6894 264.993 99.6114C265.021 99.5612 265.021 99.4999 264.998 99.4442L264.993 99.4386Z" fill="#D5DFEF"/>
<path d="M252.872 93.2764L251.44 94.0064C251.44 94.0064 248.547 95.2045 247.957 95.5723C247.634 95.7785 247.489 96.1909 247.45 96.4583C247.427 96.6311 247.444 97.1103 247.544 97.2441C247.817 97.5896 248.403 97.9685 248.915 98.041C249.913 98.1803 251.991 97.6843 251.991 97.6843C252.259 97.545 256.433 96.007 256.433 96.007C256.433 96.007 256.566 95.4887 256.594 95.1766L256.75 93.0869L252.866 93.2764H252.872Z" fill="#1C8E52"/>
<path d="M247.45 96.43C247.495 96.8368 248.314 97.277 248.816 97.4052C250.554 97.8454 255.687 95.9953 255.926 95.895C256.483 95.6665 256.561 95.4771 256.561 95.4771C256.561 95.4771 256.472 96.0677 256.45 96.0566C256.45 96.0566 256.366 96.6417 256.043 96.8033C255.787 96.9315 253.742 97.4442 253.212 97.5946C253.212 97.5946 250.186 98.4027 248.726 98.0795C248.219 97.968 247.662 97.7841 247.406 97.277C247.322 97.121 247.439 96.3742 247.45 96.43Z" fill="#D5DFEF"/>
<path d="M249.656 94.798C250.247 94.9541 250.586 95.6339 250.793 96.1578C250.848 96.2971 251.227 96.1578 251.172 96.0296C250.932 95.4222 250.553 94.7423 249.879 94.5696C249.751 94.5361 249.433 94.7423 249.656 94.8036V94.798Z" fill="#D5DFEF"/>
<path d="M250.426 94.4804C251.017 94.6364 251.357 95.3163 251.563 95.8401C251.619 95.9794 251.998 95.8401 251.942 95.712C251.702 95.1045 251.324 94.4247 250.649 94.2519C250.521 94.2185 250.203 94.4247 250.426 94.486V94.4804Z" fill="#D5DFEF"/>
<path d="M251.273 94.1733C251.864 94.3293 252.204 95.0092 252.41 95.533C252.466 95.6723 252.845 95.533 252.789 95.4048C252.549 94.7974 252.17 94.1176 251.496 93.9448C251.368 93.9114 251.05 94.1176 251.273 94.1733Z" fill="#D5DFEF"/>
<path d="M249.196 67.815C249.196 67.815 254.389 63.4349 254.824 62.287C255.164 61.3898 256.847 55.6277 256.847 55.6277C256.847 55.6277 259.009 53.7107 259.488 54.8196C259.973 55.9286 258.558 61.1836 257.766 63.4962C256.824 66.2491 250.578 69.1803 250.578 69.1803L250.187 68.0212L249.19 67.8261L249.196 67.815Z" fill="#F2D3BD"/>
<path d="M258.841 54.022C260.474 54.3396 260.602 55.7161 260.385 56.6913C260.095 57.9897 259.332 60.9989 259.304 61.0491C259.304 61.0491 259.209 61.5116 257.415 61.311C255.787 61.1271 255.213 60.2578 255.213 60.2578C255.33 59.5055 255.91 57.5439 256.205 56.6969C256.829 54.9303 257.821 53.827 258.847 54.022H258.841Z" fill="#489AE5"/>
<path d="M254.929 72.0274C254.801 72.529 254.038 72.685 253.586 72.5624C253.43 72.5234 253.09 73.4373 252.767 73.7271C252.427 74.028 252.104 73.7104 252.071 73.5878C252.048 73.4875 252.817 72.228 253.001 71.9048C253.609 70.8182 254.088 70.8962 254.545 71.0188C255.002 71.1358 255.063 71.5315 254.935 72.0274H254.929Z" fill="#FFE8D9"/>
<path d="M253.374 70.8184C253.324 71.0525 253.736 71.6153 254.4 71.8215C255.263 72.0945 255.715 72.0165 255.715 72.0165C256.155 71.9664 256.411 71.8494 256.506 71.5707C256.506 71.5707 256.863 70.5342 256.957 70.1999C257.019 69.9881 256.913 69.9658 256.913 69.9658C256.913 69.9658 256.863 70.133 256.807 70.1831C256.623 70.3838 256.183 70.6067 255.308 70.445C253.937 70.1999 253.948 69.3528 253.948 69.3528C253.748 69.3082 253.664 69.3863 253.625 69.6147L253.363 70.8128L253.374 70.8184Z" fill="white"/>
<path d="M255.81 72.6574C255.81 72.6574 253.508 80.6541 252.839 83.6411C252.399 85.5915 252.126 92.73 252.126 92.73C251.992 93.6049 251.864 93.7777 252.115 94.0786C253.046 95.2042 256.194 96.9039 256.824 95.0649C256.824 95.0649 256.98 88.6899 257.509 86.5444C258.947 83.2343 261.928 73.7162 261.928 73.7162L255.815 72.6519L255.81 72.6574Z" fill="#144994"/>
<path d="M258.936 74.1172C258.936 74.1172 259.755 76.2515 260.368 80.8378C260.574 82.3703 260.579 85.8086 260.763 87.3577C261.109 90.2834 261.365 93.014 261.371 94.6802C261.371 95.282 261.404 97.5556 261.404 97.5556C261.41 98.1853 261.917 98.5253 262.976 98.6925C265.589 99.1104 266.063 97.7061 266.085 97.4888C266.108 96.8869 265.94 96.8869 266.018 94.8473C266.119 92.1725 266.135 89.9267 266.085 88.8624C266.035 87.8426 266.041 84.6885 265.974 83.6687C265.667 79.0044 266.799 77.7673 266.481 75.1426C266.252 73.2534 258.936 74.1228 258.936 74.1228V74.1172Z" fill="#144994"/>
<path d="M257.923 54.5183C256.876 56.3071 256.329 57.8117 256.185 61.4673L255.566 73.5432C255.549 74.0336 260.364 73.4317 260.776 73.7215L267.926 58.9764C267.982 57.8395 266.316 56.569 264.984 55.7108C264.298 55.2706 263.011 54.6353 263.011 54.6353L260.698 53.8328C260.698 53.8328 258.636 53.3034 257.923 54.5183Z" fill="#3178C5"/>
<path d="M258.291 54.0781C258.809 53.532 259.695 53.7437 260.247 53.8663C259.506 54.2731 257.165 54.8137 257.232 60.6761C257.243 61.863 259.511 62.4537 260.52 62.0469C260.609 60.5423 260.793 58.5975 261.417 57.3492C262.197 55.7777 262.933 55.1815 263.29 54.9753C263.485 54.8638 263.646 54.9028 263.646 54.9028C263.646 54.9028 264.9 55.2818 265.078 55.7722C265.078 55.7722 264.053 55.4657 262.61 57.5665C261.757 58.8148 261.445 61.3671 261.751 62.164C262.119 63.1224 266.745 61.9355 266.745 61.9355C266.745 61.9355 266.093 69.2635 266.143 71.7154C266.159 72.5848 266.494 75.176 266.494 75.176C266.327 75.9618 265.808 75.9562 265.418 76.0788C265.418 76.0788 261.116 75.0088 258.943 74.6912C257.226 74.4404 255.516 75.5884 255.51 75.176C255.488 73.6491 255.911 67.653 255.911 67.653C256.04 63.741 256.09 61.0383 256.335 59.1659C256.842 55.2818 257.622 54.7802 258.291 54.0781Z" fill="#144994"/>
<path d="M260.403 65.8806C259.456 67.7474 256.391 67.3629 256.302 64.7883C256.302 64.7883 259.355 65.8416 260.403 65.8806Z" fill="#0B0B28"/>
<path d="M256.313 64.7939C256.174 66.7053 256.001 69.5251 258.124 69.9096C259.161 70.099 259.774 69.3913 260.075 68.6947C260.431 67.8811 260.565 67.0397 260.409 65.875C260.409 65.875 259.774 66.5604 258.353 66.1759C256.28 65.6131 256.313 64.7883 256.313 64.7883V64.7939Z" fill="#062E56"/>
<path d="M260.391 61.6397C260.324 62.1078 260.341 62.4645 260.335 62.8769C260.33 63.1834 261.767 63.3617 261.812 63.044C261.851 62.7487 261.923 62.3753 261.912 61.7679C261.912 61.6063 261.795 61.7233 261.216 61.6175C260.597 61.506 260.424 61.428 260.397 61.6342L260.391 61.6397Z" fill="#FFDB28"/>
<path d="M257.237 60.6423C257.237 61.116 257.175 61.4113 257.125 61.8237C257.114 61.9129 257.081 61.9575 256.958 61.9296C256.607 61.8516 256.072 61.6788 256.077 61.4949C256.089 61.1996 256.066 61.0101 256.161 60.4138C256.172 60.3303 256.178 60.2132 256.272 60.2244C256.395 60.2411 257.008 60.4194 257.142 60.4417C257.237 60.4584 257.225 60.5309 257.225 60.6479L257.237 60.6423Z" fill="#FFDB28"/>
<path d="M258.057 70.2553C257.399 70.3166 256.496 70.1104 255.9 70.4782C255.566 70.7011 255.064 71.3364 255.61 71.537C256.023 71.7042 258.101 70.69 257.795 70.3111L258.051 70.2498L258.057 70.2553Z" fill="#F2D3BD"/>
<path d="M256.941 70.7622C256.941 70.7622 262.547 67.1623 262.976 66.0143C263.316 65.1171 265.088 59.6504 265.088 59.6504C265.088 59.6504 267.25 57.7334 267.735 58.8424C268.22 59.9513 266.57 64.766 265.779 67.0843C264.837 69.8371 258.323 72.1219 258.323 72.1219L257.933 70.9628L256.935 70.7678L256.941 70.7622Z" fill="#F2D3BD"/>
<path d="M266.587 57.5943C268.22 57.9119 268.348 59.2883 268.131 60.2636C267.841 61.562 267.078 64.5712 267.05 64.6213C267.05 64.6213 266.955 65.0839 265.155 64.8833C263.528 64.6994 262.954 63.83 262.954 63.83C263.071 63.0777 263.651 61.1162 263.946 60.2691C264.565 58.5026 265.562 57.3992 266.587 57.5943Z" fill="#489AE5"/>
<path d="M256.075 75.7888L256.61 75.3374C256.61 75.3374 256.61 75.382 256.599 75.3931L256.064 75.8389C256.064 75.8389 256.081 75.8111 256.075 75.7832V75.7888Z" fill="#122B01"/>
<path d="M248.749 65.3626L249.284 64.9168C249.284 64.9168 249.317 64.9057 249.34 64.9168L248.805 65.3626C248.805 65.3626 248.76 65.3571 248.749 65.3626Z" fill="#173801"/>
<path d="M249.91 65.9483L250.445 65.5024C250.456 65.5582 250.478 65.6195 250.517 65.6696L249.982 66.121C249.949 66.0653 249.921 66.0095 249.91 65.9483Z" fill="#173801"/>
<path d="M249.982 66.1213L250.517 65.6699C250.55 65.7201 250.589 65.7647 250.634 65.7981L250.099 66.2439C250.054 66.2105 250.015 66.1659 249.982 66.1157V66.1213Z" fill="#A2AF99"/>
<path d="M250.099 66.2432L250.634 65.7974C250.673 65.8252 250.712 65.8531 250.751 65.8642L250.216 66.3156C250.177 66.2989 250.138 66.2766 250.099 66.2487V66.2432Z" fill="#173801"/>
<path d="M248.806 65.3572L249.341 64.9114L250.411 65.3015L249.876 65.7528L248.806 65.3572Z" fill="#143001"/>
<path d="M249.875 65.7524L250.41 65.301L250.444 65.4961L249.909 65.9474L249.875 65.7524Z" fill="#122B01"/>
<path d="M249.836 65.5249L250.371 65.0791L250.895 65.2686L250.354 65.72L249.836 65.5249Z" fill="#8C8C8C"/>
<path d="M250.215 66.3161L250.75 65.8647L253.898 67.0294L253.363 67.4752L250.215 66.3161Z" fill="#143001"/>
<path d="M253.366 67.474L253.901 67.0226C253.973 67.0505 254.034 67.0449 254.073 67.0115L253.538 67.4573C253.499 67.4907 253.438 67.4963 253.366 67.4684V67.474Z" fill="#173801"/>
<path d="M250.354 65.7197L250.895 65.2683L253.536 66.2435L253.001 66.6949L250.354 65.7197Z" fill="#8C8C8C"/>
<path d="M253.575 67.3023L254.11 66.8564C254.121 66.9289 254.11 66.9902 254.065 67.018L253.53 67.4639C253.569 67.4304 253.586 67.3747 253.575 67.3023Z" fill="#A3A3A3"/>
<path d="M253.543 67.1018L254.084 66.656L254.112 66.851L253.577 67.3024L253.543 67.1018Z" fill="#7E7E7E"/>
<path d="M253.504 66.8789L254.044 66.4275L254.083 66.656L253.543 67.1018L253.504 66.8789Z" fill="#7E7E7E"/>
<path d="M253.001 66.695L253.536 66.2437L254.043 66.4275L253.503 66.8789L253.001 66.695Z" fill="#8C8C8C"/>
<path d="M254.701 67.6145L255.236 67.1687L256.618 75.3382L256.078 75.7895L254.701 67.6145Z" fill="#122B01"/>
<path d="M253.543 67.1018L254.084 66.656L255.137 67.0461L254.596 67.4919L253.543 67.1018Z" fill="#143001"/>
<path d="M254.596 67.492C254.646 67.5087 254.69 67.5644 254.696 67.6146L256.078 75.784C256.089 75.8342 256.056 75.8621 256.005 75.8453L250.215 73.711C250.165 73.6943 250.121 73.6386 250.115 73.5884L248.733 65.419C248.728 65.3688 248.755 65.3409 248.806 65.3632L249.876 65.7589L249.909 65.9539C249.931 66.1044 250.071 66.266 250.215 66.3217L253.364 67.4808C253.509 67.531 253.604 67.453 253.576 67.3025L253.542 67.1075L254.596 67.4975V67.492Z" fill="#0C1E01"/>
<path d="M255.214 67.1125C255.214 67.1125 255.192 67.0791 255.175 67.0679C255.164 67.0568 255.147 67.0512 255.136 67.0457L254.601 67.497C254.601 67.497 254.629 67.5082 254.64 67.5193C254.657 67.5305 254.668 67.5472 254.679 67.5639C254.69 67.5806 254.701 67.6029 254.701 67.6196L255.236 67.1738C255.236 67.1738 255.225 67.1348 255.214 67.1181V67.1125Z" fill="#173801"/>
<path d="M250.433 65.4238L250.968 64.978C251.035 64.9223 251.146 64.9111 251.275 64.9557L250.74 65.4071C250.611 65.357 250.506 65.3681 250.439 65.4294L250.433 65.4238Z" fill="#B2B2B2"/>
<path d="M253.409 65.937C253.353 65.8534 253.281 65.7754 253.203 65.7086C253.136 65.6528 253.064 65.6138 252.991 65.586L251.275 64.9507L250.74 65.4021L252.462 66.0373C252.534 66.0652 252.607 66.1042 252.673 66.1599C252.751 66.2212 252.824 66.2993 252.88 66.3884C252.947 66.4832 252.991 66.589 253.008 66.6949L253.543 66.2435C253.526 66.1432 253.481 66.0373 253.415 65.937H253.409Z" fill="#B2B2B2"/>
<path d="M252.14 65.7422L252.675 65.2964L252.702 65.4803L252.168 65.9317L252.14 65.7422Z" fill="#DADADA"/>
<path d="M251.718 65.0754L252.253 64.624C252.354 64.7076 252.443 64.8023 252.515 64.9138L251.98 65.3596C251.908 65.2537 251.819 65.1534 251.718 65.0698V65.0754Z" fill="#DADADA"/>
<path d="M251.985 64.4685C251.823 64.4072 251.69 64.4239 251.6 64.4964L251.065 64.9478C251.155 64.8753 251.288 64.8586 251.45 64.9199C251.539 64.9533 251.634 65.0091 251.717 65.0759L252.252 64.6245C252.169 64.5577 252.08 64.5019 251.985 64.4685Z" fill="#DADADA"/>
<path d="M252.515 64.9141L251.98 65.3599C252.063 65.4825 252.119 65.6162 252.141 65.7444L252.676 65.2986C252.654 65.1704 252.598 65.0367 252.515 64.9141Z" fill="#DADADA"/>
<path d="M253.577 67.3028L253.544 67.1078L253.505 66.8793L252.998 66.6954C252.953 66.4279 252.708 66.1326 252.452 66.0434L250.73 65.4081C250.473 65.3134 250.306 65.4527 250.351 65.7202L249.833 65.5307L249.872 65.7592L249.905 65.9542C249.927 66.1047 250.067 66.2663 250.211 66.322L253.36 67.4811C253.505 67.5313 253.6 67.4533 253.572 67.3028H253.577Z" fill="#575757"/>
<path d="M250.997 65.4978L252.168 65.9269L252.134 65.7374C252.078 65.3975 251.772 65.0297 251.443 64.9127C251.12 64.7956 250.903 64.974 250.964 65.3083L250.997 65.4978Z" fill="#575757"/>
<path d="M258.045 70.2947C257.806 70.5065 257.416 70.5845 257.132 70.7182C256.953 70.8074 256.78 70.891 256.624 70.9968C256.307 71.1975 256.05 70.9021 256.017 71.2699C256 71.4649 255.911 71.8662 255.56 71.9888C255.371 72.0556 255.159 72.0612 254.958 72.0779C254.791 72.0947 254.652 72.0612 254.49 72.1114C254.368 72.1504 254.184 72.195 254.078 72.2786C253.905 72.4179 254.05 72.6073 254.122 72.7578C254.206 72.9194 254.284 73.0754 254.356 73.2426C254.401 73.3429 254.457 73.4265 254.524 73.5157C254.618 73.6438 254.752 73.7943 254.891 73.8779C255.086 73.9949 255.504 74.0841 255.727 74.1064C256.039 74.1342 256.156 73.7887 256.089 73.4655C256.028 73.1925 255.783 72.9361 255.521 72.8525C255.298 72.7801 255.081 72.8191 254.858 72.8247C254.713 72.8247 254.59 72.8748 254.462 72.9361C254.306 73.003 254.278 73.0587 254.395 73.1869C254.585 73.3986 254.808 73.5714 255.086 73.6494C255.164 73.6717 255.248 73.6717 255.326 73.6884C255.387 73.6996 255.449 73.7274 255.51 73.7386C255.828 73.7999 255.644 73.12 255.593 72.9918C255.504 72.7522 255.32 72.546 255.159 72.351C255.064 72.2395 254.791 71.9832 254.652 72.1615C254.568 72.2618 254.602 72.4346 254.629 72.546C254.713 72.8692 254.891 73.1702 255.075 73.4488C255.192 73.6271 255.326 73.8333 255.499 73.9671C255.716 74.1398 255.683 74.151 255.956 74.0952C256.435 74.0228 257.343 74.0061 257.667 73.6606C258.051 73.2538 258.53 72.3176 258.931 71.9386C259.277 71.6043 258.558 70.3003 258.034 70.2501C257.984 70.2334 257.928 70.239 257.884 70.2334L258.051 70.3003L258.045 70.2947Z" fill="#F2D3BD"/>
<path d="M248.789 69.5757C248.856 70.0772 249.14 71.0747 249.764 71.0245C250.266 70.7905 250.293 69.6425 250.293 69.141C250.293 68.5392 249.87 67.8203 249.201 67.7869C248.683 67.759 248.622 67.9763 248.61 68.1491C248.583 68.7788 248.716 69.1912 248.789 69.5812V69.5757Z" fill="#F2D3BD"/>
<path d="M259.667 55.8062C259.789 55.9288 259.6 57.2663 259.717 57.3498C259.84 57.439 260.347 56.3523 260.464 56.3969C261.556 56.8595 262.074 55.5443 263.105 54.6917L263.306 50.4844L259.851 51.4763C259.851 51.4763 259.461 54.3295 259.483 55.3158C259.483 55.5833 259.672 55.8062 259.672 55.8062H259.667Z" fill="#E8C5AC"/>
<path d="M262.013 48.5834C261.25 48.6224 261.199 49.3636 261.199 49.3636L261.277 50.9016C261.277 50.9016 261.333 51.236 261.623 51.275C262.063 51.3419 262.23 50.9518 262.403 50.5171C262.414 50.4948 262.626 49.8595 262.643 49.8205C262.827 49.2856 262.732 48.5333 262.002 48.5723L262.013 48.5834Z" fill="#FFE8D9"/>
<path d="M260.275 46.4447L263.239 46.2998L263.574 51.6384C263.551 52.0062 263.585 52.3405 263.54 52.6526C263.49 52.9981 263.356 53.3213 262.955 53.6557C262.955 53.6557 262.236 54.2909 261.556 54.603C261.244 54.7479 260.899 54.8761 260.559 54.8426C260.297 54.8148 259.645 54.4804 259.645 54.4804C259.222 54.2519 258.882 54.1349 258.62 53.5163C258.503 53.2377 258.185 52.3795 258.14 52.073L257.555 48.9245L257.288 46.7289L260.286 46.4447H260.275Z" fill="#FFE1CC"/>
<path d="M257.766 45.4524C256.958 45.9651 257.688 47.1855 257.081 47.8765C257.471 48.9019 257.599 49.0969 257.583 49.1136C257.571 49.1303 257.51 48.4115 257.471 47.9935C257.41 47.3694 258.067 47.5366 258.335 47.7316C258.736 48.0158 259.678 48.5229 259.7 48.5396C260.051 48.718 260.113 48.5675 260.124 48.3223C260.124 48.2666 260.113 47.9434 260.113 47.9434C260.157 47.9712 260.965 48.3 261.183 48.4115C261.807 48.7347 261.935 49.2474 261.935 49.7155L261.957 50.1836C261.974 50.4288 261.946 50.7074 262.18 50.6684C262.431 50.6238 262.403 50.5291 262.459 50.2672C262.459 50.2672 262.42 49.0579 263.428 49.4758C263.963 49.6932 263.646 50.8801 263.618 50.9526L263.523 52.7135C263.746 52.7693 264.208 52.3792 264.459 51.7606C264.916 50.6182 265.195 49.7991 265.317 49.448C266.543 46.0208 263.573 42.8834 259.934 44.2041C259.254 44.4493 257.766 45.4524 257.766 45.4524Z" fill="#421E01"/>
<path d="M263.317 49.4143C262.548 49.4533 262.503 50.1944 262.503 50.1944L262.587 51.7325C262.587 51.7325 262.643 52.0668 262.933 52.1058C263.373 52.1727 263.54 51.7826 263.713 51.3535C263.724 51.3257 263.941 50.696 263.952 50.657C264.136 50.122 264.041 49.3697 263.317 49.4087V49.4143Z" fill="#FFE8D9"/>
<path d="M260.91 78.9607C261.662 81.134 264.66 82.1538 265.189 78.8604C265.189 78.8604 264.666 79.2226 263.133 79.2281C262.264 79.2281 261.428 79.139 260.91 78.9607Z" fill="#0B0B28"/>
<path d="M265.189 78.866C265.178 80.1532 265.228 81.513 265.05 82.7668C264.905 83.7922 264.119 84.4665 263.089 84.4553C262.074 84.4442 261.417 83.7364 261.316 82.9061C261.183 81.747 261.127 80.6659 260.91 78.9663C260.91 78.9663 261.456 79.8467 263.178 79.8412C265.095 79.83 265.189 78.8715 265.189 78.8715V78.866Z" fill="#062E56"/>
<path d="M258.274 77.7113C257.538 79.0488 255.638 79.0376 254.785 78.3578C254.445 78.0847 254.256 77.4439 254.362 77.0315C254.39 76.92 254.534 76.8754 254.629 76.8699C254.629 76.8699 254.735 77.1931 256.028 77.5887C256.797 77.8284 257.828 77.9064 258.268 77.7113H258.274Z" fill="#0B0B28"/>
<path d="M254.63 76.8699C254.524 76.8699 254.334 76.8699 254.284 77.1374C254.117 78.0011 253.694 79.3998 253.554 80.7707C253.448 81.8016 254.184 82.6041 255.198 82.7713C256.201 82.9329 256.97 82.3478 257.204 81.5453C257.533 80.4252 257.767 79.3608 258.269 77.7169C258.269 77.7169 257.516 78.7701 255.889 78.2073C254.947 77.8785 254.44 77.4048 254.374 77.1374C254.312 76.9145 254.624 76.8699 254.624 76.8699H254.63Z" fill="#062E56"/>
<path d="M254.407 48.4554C254.346 48.1823 254.452 48.082 254.753 47.9817L257.021 47.1458C257.015 46.9898 256.993 46.739 257.009 46.2375C257.088 44.2648 259.099 43.4289 260.258 43.2283C262.632 42.8215 264.923 43.7298 265.38 45.4852C265.508 45.97 265.536 46.3211 265.302 46.4269L264.783 46.5941C263.713 47.0622 262.616 48.1823 261.2 48.0876C259.779 47.9984 258.453 47.9371 257.271 48.0876C256.658 48.1656 254.864 48.6003 254.864 48.6003C254.652 48.6448 254.441 48.6504 254.401 48.4498L254.407 48.4554Z" fill="#1C8E52"/>
<path d="M263.695 46.7113C263.227 46.8729 262.414 47.1794 261.923 47.1961C260.898 47.2295 259.444 47.0289 258.073 47.1404C257.008 47.2295 257.125 47.1515 257.014 47.1571L254.757 47.9818C254.456 48.0821 254.35 48.1824 254.411 48.4555C254.456 48.6561 254.662 48.6505 254.874 48.606C254.874 48.606 256.674 48.1713 257.281 48.0933C258.463 47.9428 259.795 48.0041 261.21 48.0933C262.631 48.1824 263.723 47.0624 264.793 46.5998L265.312 46.4326C265.378 46.3992 265.423 46.3435 265.451 46.2766C265.111 46.3212 264.392 46.4772 263.695 46.7224V46.7113Z" fill="#0E723B"/>
</g>
<g clip-path="url(#clip3_936_3800)">
<path d="M71.5268 54.6503C71.7887 55.2801 72.4073 55.9989 72.3571 56.7178C72.3181 57.1302 71.9782 57.8936 71.5324 57.4868C71.1813 57.1915 71.1088 54.812 71.5992 54.9067L71.5324 54.6448L71.5268 54.6503Z" fill="#F2D3BD"/>
<g style="mix-blend-mode:multiply" opacity="0.29">
<path d="M87.0412 78.6072C82.3825 79.092 83.9762 79.7718 83.9372 80.9588C83.8759 82.6362 81.4128 82.6807 78.4816 82.5804C73.2601 82.3965 70.8527 80.4238 70.9252 78.2617C71.0032 76.0995 75.3888 74.0265 80.6048 74.2104C86.105 74.4054 88.986 75.3137 89.7996 76.7626C90.4015 77.8381 87.9217 78.518 87.0356 78.6072H87.0412Z" fill="#231F20"/>
</g>
<path d="M91.7259 41.7379L84.5929 38.2383L79.3212 32.8272C79.3212 32.8272 77.4265 32.543 77.4544 33.7802C77.4823 35.0229 80.5584 38.6451 82.3193 40.0159C84.1806 41.4592 91.2912 43.0976 91.2912 43.0976L91.6925 42.362L91.7147 41.7379H91.7259Z" fill="#E2C2AC"/>
<path d="M77.2156 33.011C78.5196 31.9132 80.0799 33.2228 80.6929 33.8804C81.3728 34.6048 82.9442 36.2655 83.4068 36.8617C83.4068 36.8617 83.9306 37.0289 82.3758 38.7508C81.161 40.0938 79.7177 40.0325 79.7177 40.0325C78.9598 39.2022 78.592 37.3354 78.1964 36.4103C77.6335 35.1064 76.7029 33.4401 77.2156 33.011Z" fill="#489AE5"/>
<path d="M94.7463 44.8859C94.5958 44.429 93.7042 43.4036 94.0664 43.7658C94.2837 43.9831 94.7017 44.2116 94.919 44.546C95.3258 44.9528 95.4317 44.3788 95.4317 44.3788C95.4317 44.3788 95.337 43.8271 94.5289 43.0135C93.1079 41.5758 90.8008 41.5869 90.8008 41.5869C89.5972 42.6179 90.9179 43.7491 91.1519 43.894C91.5197 44.1169 92.2219 44.4791 92.4503 44.663C92.7958 44.9361 92.7791 44.9918 93.3643 45.3986C93.9661 45.8165 94.3283 45.8778 94.6738 45.5379C95.0806 45.1478 94.7686 44.9584 94.7463 44.8803V44.8859Z" fill="#E2C2AC"/>
<path d="M90.6907 42.9301C90.6907 42.9301 90.4511 42.267 91.0251 41.7543C91.744 41.1023 92.8306 41.1692 93.5941 41.5314C94.051 41.7487 94.6194 41.9716 94.6194 41.9716C94.6194 41.9716 94.6083 42.8131 93.7835 42.4342C93.2151 42.1723 92.786 42.267 92.786 42.267C92.786 42.267 92.4405 43.1363 91.783 43.2143C91.1254 43.2924 90.6963 42.9301 90.6963 42.9301H90.6907Z" fill="#E5CAB7"/>
<path d="M83.1834 72.9336L84.5041 73.5912C84.5041 73.5912 87.1734 74.6555 87.714 74.9899C88.0093 75.1794 88.1542 75.5527 88.1876 75.7979C88.2099 75.9539 88.2044 76.3942 88.1096 76.5168C87.8588 76.8344 87.335 77.1911 86.8558 77.2635C85.9419 77.4028 84.0305 76.9682 84.0305 76.9682C83.7853 76.8456 79.9402 75.4803 79.9402 75.4803C79.9402 75.4803 79.812 75.0066 79.7841 74.7168L79.6169 72.8054L83.1834 72.9336Z" fill="#1C8E52"/>
<path d="M83.3684 75.1288C83.3405 75.1622 83.2904 75.179 83.2514 75.1511C83.2179 75.1288 83.1901 75.0898 83.2179 75.0619C83.335 74.9059 83.7975 74.3319 84.2823 74.0644C84.7058 73.8304 85.0848 73.836 85.2575 73.8582C85.3077 73.8582 85.3467 73.9028 85.3355 73.953C85.3244 73.992 85.2798 74.0198 85.2352 74.0143C85.0848 73.9976 84.7448 73.992 84.3603 74.2037C83.9368 74.4378 83.5133 74.9449 83.3684 75.1288Z" fill="#D5DFEF"/>
<path d="M83.8469 75.2909C83.8191 75.33 83.7689 75.3411 83.7299 75.3132C83.6965 75.2909 83.6742 75.2575 83.6965 75.2241C83.8191 75.068 84.276 74.4941 84.7608 74.2266C85.1844 73.987 85.5633 73.9925 85.7361 74.0204C85.7862 74.0204 85.8252 74.065 85.8085 74.1151C85.7974 74.1597 85.7583 74.1876 85.7138 74.1764C85.5689 74.1597 85.2234 74.1541 84.8389 74.3659C84.4153 74.5999 83.9918 75.107 83.8469 75.2909Z" fill="#D5DFEF"/>
<path d="M84.2989 75.5467C84.2711 75.5857 84.2209 75.5969 84.1819 75.569C84.1541 75.5467 84.1262 75.5077 84.1485 75.4799C84.2711 75.3238 84.728 74.7498 85.2129 74.4768C85.6419 74.2427 86.0153 74.2483 86.1881 74.2706C86.2382 74.2706 86.2772 74.3152 86.2661 74.3653C86.2549 74.4099 86.2104 74.4378 86.1713 74.4322C86.0209 74.4099 85.681 74.4043 85.2964 74.6161C84.8729 74.8502 84.455 75.3628 84.3045 75.5412L84.2989 75.5467Z" fill="#D5DFEF"/>
<path d="M88.1938 75.7643C88.1548 76.1377 87.4136 76.5501 86.9511 76.6727C85.3629 77.0962 80.6318 75.4578 80.4144 75.3687C79.8962 75.1681 79.8237 74.9897 79.8237 74.9897C79.8237 74.9897 79.9129 75.5303 79.9352 75.5247C79.9352 75.5247 80.0188 76.0597 80.3141 76.2046C80.5537 76.316 82.4373 76.7674 82.9165 76.8956C82.9165 76.8956 85.7028 77.6033 87.0403 77.2912C87.5028 77.1854 88.0099 77.007 88.244 76.5389C88.3164 76.394 88.1994 75.7086 88.1938 75.7643Z" fill="#D5DFEF"/>
<path d="M82.9174 50.1706C82.9174 50.1706 82.5218 66.738 83.4134 72.1601C83.536 72.8957 83.9818 73.0573 84.1267 73.3806C84.4611 74.1217 83.1348 74.6901 82.7837 74.7737C81.541 75.0691 79.9027 74.8684 79.624 73.7093L77.0383 49.7471L82.9174 50.165V50.1706Z" fill="#144994"/>
<path d="M75.9838 76.0829L78.2741 77.738C78.2741 77.738 79.3273 78.4959 79.8289 78.9027C80.1019 79.12 80.1967 79.5157 80.2023 79.7609C80.2023 79.9169 80.141 80.3571 80.0295 80.4686C79.7453 80.7472 79.1713 80.959 78.6976 81.0481C77.3045 81.3156 75.9336 80.4073 75.9336 80.4073C75.7051 80.2512 72.0607 78.4179 72.0607 78.4179C72.0607 78.4179 71.9938 77.9275 71.9994 77.6377L72.0662 75.7207L75.9893 76.0718L75.9838 76.0829Z" fill="#1C8E52"/>
<path d="M80.381 46.843L76.2517 75.1073C76.313 76.1104 77.3272 76.6398 76.8034 76.7624C76.2628 76.8906 75.7167 77.1135 75.087 77.6317C73.5267 78.9134 72.1335 77.5816 72.1335 77.5816C71.9051 77.4367 71.8883 76.8237 71.8772 76.6175L73.7607 50.4262L80.3754 46.8486L80.381 46.843Z" fill="#144994"/>
<path d="M75.595 78.4011C75.5616 78.4345 75.5058 78.4457 75.4668 78.4122C75.439 78.3899 75.4111 78.3453 75.4334 78.3175C75.5727 78.1559 76.0854 77.5819 76.6148 77.3367C77.0773 77.1138 77.473 77.1417 77.6513 77.1807C77.7015 77.1918 77.7405 77.2364 77.7237 77.281C77.707 77.3256 77.6624 77.3534 77.6123 77.3423C77.4563 77.3144 77.0996 77.2866 76.6872 77.4872C76.2247 77.7101 75.751 78.2116 75.5894 78.4011H75.595Z" fill="#D5DFEF"/>
<path d="M76.1239 78.7351C76.0904 78.7741 76.0347 78.7853 75.9957 78.7518C75.9678 78.7295 75.9455 78.6849 75.9678 78.6571C76.1072 78.501 76.631 77.9382 77.1604 77.693C77.6229 77.4757 78.0186 77.5147 78.1969 77.5481C78.247 77.5593 78.286 77.6039 78.2693 77.654C78.2526 77.6986 78.208 77.7209 78.1579 77.7153C78.0018 77.6874 77.6452 77.654 77.2273 77.8491C76.7647 78.0664 76.2855 78.5623 76.1183 78.7407L76.1239 78.7351Z" fill="#D5DFEF"/>
<path d="M76.5691 79.0364C76.5356 79.0698 76.4799 79.0754 76.4465 79.0419C76.4186 79.0196 76.3963 78.9751 76.4242 78.9472C76.5691 78.7967 77.1208 78.2618 77.6669 78.0444C78.1405 77.855 78.5306 77.9107 78.709 77.9553C78.7591 77.9664 78.7925 78.0166 78.7758 78.0667C78.7591 78.1057 78.709 78.128 78.6644 78.1169C78.5083 78.0834 78.1517 78.0277 77.7282 78.2005C77.2489 78.3955 76.7474 78.858 76.5746 79.0364H76.5691Z" fill="#D5DFEF"/>
<path d="M80.2131 79.7325C80.1239 80.1003 79.1376 80.4904 78.6695 80.5907C76.3401 81.1089 72.7402 78.4842 72.534 78.3728C72.0492 78.1053 71.999 77.9214 71.999 77.9214C71.999 77.9214 72.0157 78.4731 72.038 78.4675C72.038 78.4675 72.0547 79.008 72.3334 79.1864C72.5563 79.3313 74.8021 80.5015 75.2702 80.6854C75.2702 80.6854 77.2484 81.6383 78.7865 81.2315C79.2546 81.1089 79.8787 80.9473 80.1685 80.5127C80.2576 80.3789 80.2242 79.6879 80.2186 79.7381L80.2131 79.7325Z" fill="#D5DFEF"/>
<path d="M80.8881 37.0183C81.6125 38.9353 81.9748 40.4622 82.5487 44.6027C83.0949 48.576 82.9221 53.7306 82.7661 54.1096C82.7661 54.1096 78.1074 56.4668 75.2375 55.9207C73.2369 55.5417 75.1093 54.6501 75.1093 54.6501C74.3849 54.6891 74.3403 50.1419 73.705 46.085C72.9861 41.482 71.7769 41.8442 71.7769 41.8442C71.593 40.5179 69.91 38.7291 70.0382 37.7038C70.1998 36.4276 72.6295 35.2072 72.6295 35.2072L76.1792 33.1064C76.1792 33.1064 78.0015 32.5714 78.191 32.6271C79.1439 32.9002 80.3754 35.6642 80.8881 37.0183Z" fill="#3178C5"/>
<path d="M76.5022 33.2624L75.6942 30.699L71.3308 31.0055C71.3308 31.0055 72.9134 32.9169 73.0305 33.7862C73.1029 34.3045 73.3592 34.6667 72.9859 34.9899C73.2032 34.9899 73.4651 34.9899 74.5072 35.6865C74.9809 36.0041 75.9895 36.4443 76.5245 36.2549C77.065 36.0654 77.444 36.4778 78.135 37.3861C78.4136 37.2134 77.6446 36.071 77.8786 35.8704C78.4972 35.341 77.6279 34.0593 76.4966 33.2568L76.5022 33.2624Z" fill="#DBB8A1"/>
<path d="M72.1769 25.7389L69.7974 27.2157L72.3942 31.5512C72.606 31.8242 72.762 32.1028 72.9626 32.3202C73.1855 32.5598 73.4641 32.7381 73.9545 32.7883C73.9545 32.7883 74.5842 32.7994 75.292 32.766C75.5817 32.7493 76.5124 32.7437 76.9025 32.2645C77.0473 32.0806 77.4319 31.6347 77.3761 31.1555C77.2368 29.8682 75.1304 25.2987 75.1304 25.2987L74.3781 23.8108L72.1824 25.7389H72.1769Z" fill="#E8C5AC"/>
<path d="M73.6255 23.4375C74.3276 23.5545 74.7344 24.0728 74.8905 24.552C75.0298 24.9867 75.1524 25.282 75.1245 25.2987C75.1245 25.2987 74.2273 24.6969 73.9654 25.5774C73.7146 26.43 73.6756 26.9761 73.6143 26.9928C73.6143 26.9928 73.0961 26.2907 73.1072 26.2405C73.1184 26.1904 73.0292 27.3272 73.0292 27.3272C73.0069 27.3718 72.6391 27.1154 72.5723 27.1823C71.9314 27.8176 72.3772 28.8039 72.628 29.1661L72.8565 29.5451C72.9791 29.7401 73.1462 29.9463 72.9456 30.041C72.7283 30.1469 72.6949 30.0522 72.511 29.8794C72.511 29.8794 71.8032 29.1104 71.3351 29.7791C71.0231 30.2305 71.9147 30.994 71.976 31.033L72.472 32.5543C72.4162 32.532 71.5859 32.1085 71.1902 31.8633C70.5048 31.4453 69.9866 31.111 69.7024 30.9048C68.2591 29.8627 67.8857 28.1296 68.22 26.7142C68.3203 26.274 69.0448 24.8752 68.9333 24.6969C68.9222 24.6746 69.251 24.6969 69.5463 24.5019C70.4825 23.9 69.8082 23.7328 69.8082 23.7328C70.0256 23.5434 70.9451 23.6548 71.0119 23.6715C71.5246 23.7328 71.2738 23.287 71.2738 23.287C71.6862 23.248 73.6311 23.4375 73.6311 23.4375H73.6255Z" fill="#281504"/>
<path d="M71.2897 29.5957C71.9083 29.2223 72.4488 29.9579 72.4488 29.9579L73.0952 31.0223C73.0952 31.0223 73.229 31.3065 73.0228 31.496C72.7163 31.7802 72.3764 31.5684 72.0141 31.3288C71.9919 31.3121 71.4903 30.9331 71.4569 30.9164C71.0278 30.5988 70.7046 29.9635 71.2841 29.6013L71.2897 29.5957Z" fill="#E8C5AC"/>
<path d="M78.9541 33.2506C78.7702 32.9832 78.4303 32.7157 78.1127 32.6767C77.6668 32.6265 77.182 32.8494 76.8755 32.9664C77.3046 33.0333 77.7783 33.3231 78.291 34.0252C78.7981 34.7162 80.8767 38.1378 81.1052 41.2975C81.172 42.256 78.6198 42.5458 77.6223 42.0554C77.4439 39.7539 76.5133 38.1824 75.6106 37.0679C74.2898 35.4351 72.8465 35.1509 72.8465 35.1509C72.8465 35.1509 71.197 35.7806 71.0076 36.3602C71.0076 36.3602 72.4899 35.7082 74.3957 37.575C75.5047 38.6617 76.5913 41.1192 76.4799 42.1501C76.0508 42.6517 71.7933 42.3229 71.7933 42.3229C71.7933 42.3229 73.5765 48.0125 72.7741 53.1393C72.6459 53.9529 73.0639 55.8086 73.3202 56.6445C73.3202 56.6445 75.5771 56.8005 77.8229 56.6334C79.6005 56.5052 82.6098 55.5021 82.6766 55.0842C83.0556 52.6044 82.8605 47.3884 82.8605 47.3884C82.7992 45.1203 82.2364 42.4789 81.8463 40.4282C81.1163 36.5831 79.5894 34.2147 78.943 33.2562L78.9541 33.2506Z" fill="#144994"/>
<path d="M77.5662 45.5382C78.4021 47.5221 81.5729 47.3605 81.8515 44.7246C81.8515 44.7246 78.6417 45.5772 77.5662 45.5382Z" fill="#0B0B28"/>
<path d="M81.8408 44.7356C81.8408 46.7083 81.8074 49.6116 79.6006 49.8456C78.5251 49.9571 77.9511 49.1936 77.6892 48.4525C77.3827 47.5887 77.3103 46.7194 77.561 45.538C77.561 45.538 78.1573 46.2903 79.6452 46.0005C81.8129 45.5826 81.8408 44.73 81.8408 44.73V44.7356Z" fill="#062E56"/>
<path d="M77.9346 41.7548C77.9736 42.2396 77.9346 42.6018 77.9179 43.0309C77.9068 43.3486 76.4189 43.4377 76.391 43.1145C76.3687 42.808 76.3186 42.4179 76.3687 41.7994C76.3799 41.6378 76.4913 41.7604 77.0932 41.6879C77.734 41.6099 77.9123 41.5375 77.929 41.7548H77.9346Z" fill="#FFDB28"/>
<path d="M80.9258 41.1363C80.898 41.6211 80.937 41.9332 80.9649 42.3567C80.9649 42.4459 81.0039 42.496 81.1265 42.4737C81.4887 42.4124 82.0515 42.2731 82.0571 42.0836C82.0627 41.7771 82.1017 41.5877 82.0404 40.9691C82.0292 40.88 82.0404 40.7629 81.9345 40.7685C81.8063 40.7741 81.1655 40.919 81.0262 40.9357C80.9314 40.9468 80.9314 41.0193 80.9258 41.1419V41.1363Z" fill="#FFDB28"/>
<path d="M73.7209 58.1833C74.5568 60.1672 77.41 61.1257 77.9227 58.083C77.9227 58.083 75.9556 59.1641 73.7209 58.1833Z" fill="#0B0B28"/>
<path d="M77.9167 58.0884C77.9167 60.0611 77.8833 62.9644 75.6765 63.1985C74.601 63.3155 74.0271 62.5465 73.7651 61.8053C73.4642 60.9416 73.4419 59.3589 73.6927 58.1775C73.6927 58.1775 74.6568 59.3366 75.7211 59.3589C77.3149 59.3924 77.9167 58.0884 77.9167 58.0884Z" fill="#062E56"/>
<path d="M80.5095 57.4976C81.0111 59.0691 82.3262 59.2362 82.8333 57.9601C82.9726 57.6146 82.9838 56.9348 82.8556 56.6394C82.8556 56.6394 82.6717 57.5143 80.5095 57.4976Z" fill="#0B0B28"/>
<path d="M82.8495 56.623C83.0222 56.8738 83.0222 57.0911 83.0501 57.5871C83.1448 59.6267 83.351 61.6384 82.0749 61.8056C81.278 61.9115 80.8489 61.1369 80.6483 60.3957C80.4143 59.532 80.353 58.6571 80.5257 57.4812C80.5257 57.4812 81.1889 57.8323 82.2867 57.5481C83.0278 57.3531 82.8495 56.6286 82.8495 56.6286V56.623Z" fill="#062E56"/>
<path d="M77.9017 22.7081C77.7122 22.4741 77.5506 22.4852 77.2608 22.6747L75.0485 23.9285C74.9593 23.8449 74.664 23.6945 74.2293 23.3657C72.5185 22.0673 70.6517 23.0369 69.643 23.8394L68.7068 24.5805C67.0852 25.8678 66.8734 28.0188 68.0381 29.6237C68.3613 30.0696 68.6344 30.4095 68.952 30.1587L69.2697 29.9079C71.7439 29.2615 73.7612 26.9322 75.6057 24.8759L75.6447 24.848L77.7066 23.2097C77.8905 23.0648 78.041 22.892 77.9017 22.7137V22.7081Z" fill="#1C8E52"/>
<path d="M77.2494 61.973L69.1413 56.874L69.0354 60.1006L77.1436 65.1995L77.2494 61.973Z" fill="#A51928"/>
<path d="M77.618 61.7781L69.5099 56.6792L69.1421 56.8742L77.2503 61.9732L77.618 61.7781Z" fill="#B81C2D"/>
<path d="M77.2499 61.9734L77.144 65.1999L77.5118 65.0049L77.6177 61.7783L77.2499 61.9734Z" fill="#73121C"/>
<path d="M69.4428 59.8945L64.929 61.6332L72.8421 66.303L77.4841 64.8542L69.4428 59.8945Z" fill="#73121C"/>
<path d="M64.6725 58.6695L64.4273 58.519L64.3047 62.3474L64.5499 62.5035L64.6725 58.6695Z" fill="#A51928"/>
<path d="M66.3769 55.8834L66.1317 55.7329L64.4265 58.5192L64.6717 58.6697L66.3769 55.8834Z" fill="#D42134"/>
<path d="M67.9439 53.532L67.6987 53.3815C67.6541 53.3536 67.5984 53.3536 67.5315 53.3926L67.7767 53.5431C67.8436 53.5097 67.9049 53.5041 67.9439 53.532Z" fill="#D62134"/>
<path d="M66.4231 54.5283L66.1779 54.3723L66.1333 55.732L66.3785 55.8825L66.4231 54.5283Z" fill="#A51928"/>
<path d="M67.7756 53.5423L67.5304 53.3862L66.427 53.9769L66.6666 54.1274L67.7756 53.5423Z" fill="#B81C2D"/>
<path d="M66.6655 54.1277L66.4203 53.9717C66.3813 53.994 66.3479 54.0218 66.3145 54.0553L66.5596 54.2057C66.5931 54.1723 66.6265 54.1444 66.6655 54.1221V54.1277Z" fill="#D62134"/>
<path d="M66.5584 54.2112L66.3132 54.0608C66.2742 54.0998 66.2408 54.15 66.2185 54.2001L66.4637 54.3506C66.486 54.3004 66.5194 54.2503 66.5584 54.2112Z" fill="#EFA6AE"/>
<path d="M66.4648 54.3507L66.2196 54.2002C66.1918 54.2559 66.175 54.3172 66.175 54.3785L66.4202 54.529C66.4202 54.4733 66.437 54.412 66.4648 54.3507Z" fill="#D62134"/>
<path d="M66.6674 54.1281C66.5336 54.2005 66.4222 54.3788 66.4166 54.5293L66.372 55.8834L64.6668 58.6697L64.5442 62.4981L69.4147 59.9069L69.5373 56.0785L67.9546 55.0364L67.9992 53.6767C67.9992 53.5262 67.8989 53.4649 67.7652 53.5318L66.6618 54.1169L66.6674 54.1281Z" fill="#73121C"/>
<path d="M75.6508 59.6121L67.5426 54.5131C67.4813 54.4741 67.3977 54.4797 67.303 54.5299L75.4111 59.6288C75.5059 59.5787 75.5895 59.5787 75.6508 59.6121Z" fill="#D62134"/>
<path d="M75.4093 59.6285L67.3011 54.5295C67.2454 54.5574 67.1952 54.5964 67.1506 54.6466L75.2588 59.7455C75.3034 59.6954 75.3535 59.6564 75.4093 59.6285Z" fill="#D62134"/>
<path d="M75.2597 59.7459L67.1516 54.647C67.0958 54.7027 67.0513 54.7751 67.0178 54.8476L75.126 59.9465C75.1594 59.8741 75.2096 59.8072 75.2597 59.7459Z" fill="#EFA6AE"/>
<path d="M75.1255 59.9407L67.0173 54.8418C66.9783 54.9254 66.956 55.009 66.9504 55.087C66.9504 55.1929 66.9839 55.2653 67.0396 55.3043L75.1478 60.4033C75.0865 60.3643 75.053 60.2918 75.0586 60.1859C75.0586 60.1079 75.0865 60.0188 75.1255 59.9407Z" fill="#D62134"/>
<path d="M75.4108 59.6281C75.2213 59.7284 75.0653 59.9792 75.0597 60.1909C75.0542 60.4027 75.199 60.4918 75.3885 60.3915C75.578 60.2912 75.734 60.0405 75.7396 59.8287C75.7452 59.6169 75.6003 59.5278 75.4108 59.6281Z" fill="#73121C"/>
<path d="M72.7587 64.3748L64.6506 59.2759L64.5447 62.4969L72.6528 67.5958L72.7587 64.3748Z" fill="#A51928"/>
<path d="M73.1273 64.18L65.0192 59.0811L64.6514 59.2761L72.7595 64.375L73.1273 64.18Z" fill="#B81C2D"/>
<path d="M72.7592 64.3752L72.6533 67.5962L73.0211 67.4011L73.127 64.1802L72.7592 64.3752Z" fill="#73121C"/>
<path d="M72.7753 63.7742L72.5301 63.6238L72.4075 67.4522L72.6527 67.6026L72.7753 63.7742Z" fill="#A51928"/>
<path d="M74.4797 60.9881L74.2345 60.832L72.5293 63.6239L72.7745 63.7744L74.4797 60.9881Z" fill="#D42134"/>
<path d="M76.0481 58.6368L75.8029 58.4863C75.7583 58.4585 75.7026 58.4641 75.6357 58.4975L75.8809 58.6535C75.9478 58.6201 76.0091 58.6145 76.0481 58.6424V58.6368Z" fill="#D62134"/>
<path d="M74.5259 59.6285L74.2807 59.478L74.2361 60.8322L74.4813 60.9882L74.5259 59.6285Z" fill="#A51928"/>
<path d="M75.8784 58.648L75.6332 58.4919L74.5298 59.0771L74.775 59.2331L75.8784 58.648Z" fill="#B81C2D"/>
<path d="M74.7776 59.231L74.5324 59.0806C74.4934 59.1029 74.4599 59.1307 74.4265 59.1642L74.6717 59.3146C74.7051 59.2812 74.7386 59.2533 74.7776 59.231Z" fill="#D62134"/>
<path d="M74.6729 59.3148L74.4277 59.1643C74.3887 59.2033 74.3553 59.2535 74.333 59.3036L74.5782 59.4541C74.6005 59.4039 74.6339 59.3538 74.6729 59.3148Z" fill="#EFA6AE"/>
<path d="M74.5717 59.4542L74.3265 59.3037C74.2987 59.3594 74.2819 59.4207 74.2764 59.482L74.5216 59.6325C74.5216 59.5768 74.5383 59.5155 74.5717 59.4542Z" fill="#D62134"/>
<path d="M74.7767 59.2325C74.643 59.305 74.5315 59.4833 74.526 59.6338L74.4814 60.9879L72.7762 63.7742L72.6536 67.6026L77.524 65.0114L77.6466 61.183L76.064 60.1409L76.1086 58.7812C76.1086 58.6307 76.0083 58.5694 75.8745 58.6363L74.7712 59.2214L74.7767 59.2325Z" fill="#73121C"/>
<path d="M71.7041 55.4422C71.7041 55.4422 71.3364 46.9829 71.6038 45.7514C71.8156 44.7873 73.3369 39.0754 73.3369 39.0754C73.3369 39.0754 72.5456 36.2111 71.5091 36.8965C70.4726 37.5819 69.202 42.6641 68.5891 45.105C67.8646 48.0083 69.8039 54.8348 69.8039 54.8348L71.0466 54.6286L71.7041 55.4422Z" fill="#F2D3BD"/>
<path d="M72.5077 36.5734C70.9251 35.9325 70.0391 37.0526 69.6824 38.0167C69.2032 39.2984 68.1834 42.3188 68.1778 42.3801C68.1778 42.3801 67.6596 42.72 69.6657 43.6618C71.187 44.3806 72.1567 43.985 72.1567 43.985C72.4743 43.2717 73.0762 41.2544 73.2935 40.3572C73.7449 38.4848 73.5052 36.9746 72.5133 36.5734H72.5077Z" fill="#489AE5"/>
<path d="M71.6039 54.2161C71.5259 54.5338 71.6429 54.9239 71.6596 55.2526C71.6652 55.4588 71.6708 55.6539 71.6541 55.8433C71.6262 56.2279 71.838 56.8074 71.5203 57.0136C71.3531 57.125 71.1804 57.2811 71.1024 57.6544C71.0355 57.9944 71.2305 58.2006 71.2863 58.2396C71.1191 58.6742 70.3501 58.3956 70.1327 58.2396C69.8931 58.078 69.6591 57.9498 69.4194 57.6879C69.2356 57.4873 69.0126 57.4427 68.9346 57.1696C68.773 56.7015 68.7117 56.4396 68.8678 55.9827C69.0572 55.4365 69.5309 54.7511 69.6869 54.205C69.8262 53.7313 71.3587 53.7592 71.6541 54.205C71.6931 54.244 71.7154 54.2997 71.7377 54.3387L71.5983 54.2161H71.6039Z" fill="#F2D3BD"/>
<path d="M71.6032 54.9409C71.8874 55.5595 72.5338 56.2561 72.5059 56.9805C72.4781 57.3929 72.1716 58.1675 71.7091 57.7774C71.3468 57.4932 71.1964 55.1192 71.6812 55.1973L71.6032 54.9409Z" fill="#F2D3BD"/>
<path d="M71.8097 55.727C71.8097 55.727 71.1465 47.29 71.3694 46.0473C71.5478 45.0777 72.8685 39.3156 72.8685 39.3156C72.8685 39.3156 71.9769 36.4847 70.9626 37.2036C69.954 37.928 68.8562 43.0493 68.3324 45.5068C67.7082 48.4324 69.8871 55.1864 69.8871 55.1864L71.1187 54.9412L71.8041 55.727H71.8097Z" fill="#F2D3BD"/>
<path d="M71.9551 36.8413C70.3502 36.2562 69.5087 37.4097 69.1855 38.3793C68.7508 39.6778 67.8369 42.7371 67.8369 42.7929C67.8369 42.7929 67.3354 43.1495 69.3694 44.0244C70.913 44.6931 71.8715 44.2585 71.8715 44.2585C72.1613 43.534 72.6963 41.4944 72.8802 40.5972C73.2647 38.7137 72.9749 37.2091 71.9662 36.8413H71.9551Z" fill="#489AE5"/>
<path d="M71.6652 54.5008C71.5983 54.824 71.7321 55.2085 71.7544 55.5317C71.7655 55.7379 71.7822 55.9329 71.7655 56.1224C71.7544 56.5069 71.9828 57.0753 71.6763 57.2982C71.5147 57.4153 71.342 57.5769 71.2807 57.9502C71.225 58.2957 71.4312 58.4908 71.4813 58.5298C71.3308 58.97 70.5507 58.7192 70.3333 58.5688C70.0881 58.4128 69.8541 58.2957 69.6033 58.0394C69.4139 57.8443 69.191 57.8053 69.1018 57.5379C68.9235 57.0753 68.851 56.8134 68.9959 56.3509C69.1631 55.7992 69.6145 55.097 69.7538 54.5454C69.8708 54.0661 71.4089 54.0438 71.7154 54.4841C71.7544 54.5231 71.7822 54.5732 71.8045 54.6122L71.6652 54.4952V54.5008Z" fill="#F2D3BD"/>
<path d="M77.9019 22.709C77.7124 22.4693 77.5508 22.486 77.261 22.6699C77.1997 22.7034 75.1044 23.8903 75.0487 23.9294C75.2549 24.9659 74.5862 25.6903 74.2017 26.4147C76.2635 24.2191 74.6976 25.59 77.7068 23.1993C77.8907 23.0545 78.0412 22.8817 77.9019 22.709Z" fill="#0E723B"/>
</g>
<g clip-path="url(#clip4_936_3800)">
<path d="M136.97 75.4004C137.984 74.5199 141.495 71.4661 138.19 71.6723C137.282 71.7893 135.939 72.2351 135.577 73.2884C135.321 74.2803 136.97 75.4004 136.97 75.4004Z" fill="#0E723B"/>
<g style="mix-blend-mode:multiply" opacity="0.3">
<path d="M139.677 124.428C143.556 126.669 143.573 130.291 139.722 132.531C135.877 134.76 129.619 134.76 125.74 132.525C121.867 130.291 121.851 126.669 125.696 124.434C129.552 122.194 135.804 122.194 139.677 124.434V124.428Z" fill="black"/>
</g>
<path d="M134.829 127.61C134.829 127.61 135.18 128.173 136.044 128.351C136.573 128.457 138.329 128.68 138.329 128.68C139.204 128.786 140.257 129.064 140.43 129.923C140.43 129.923 140.485 130.352 140.457 130.491C140.352 130.97 139.883 131.16 139.315 131.36C139.315 131.36 138.284 131.728 137.404 131.895C136.261 132.101 135.632 132.074 134.812 131.945C134.812 131.945 132.973 132.101 132.918 132.542L131.447 132.926C129.97 133.116 128.995 131.784 129.034 131.449L129.429 128.206L134.824 127.615L134.829 127.61Z" fill="#545454"/>
<path d="M133.949 131.778C134.345 131.745 135.426 131.94 136.596 131.806C137.705 131.678 139.488 131.026 139.488 131.026C139.99 130.848 140.419 130.541 140.452 130.257C140.452 130.363 140.463 130.48 140.452 130.536C140.346 131.015 139.878 131.204 139.315 131.405C139.315 131.405 138.284 131.773 137.404 131.934C136.267 132.141 135.582 132.191 134.813 132.241C134.044 132.291 132.862 132.603 132.823 132.598C132.545 132.553 132.015 132.43 132.377 132.118C132.389 132.09 133.174 131.84 133.954 131.773L133.949 131.778Z" fill="#383736"/>
<path d="M131.519 132.346L132.979 131.967C132.962 132.107 132.929 132.447 132.912 132.586L131.435 132.971C129.959 133.16 128.983 131.834 129.028 131.499L129.106 130.875C129.062 131.21 130.042 132.536 131.513 132.352L131.519 132.346Z" fill="#383736"/>
<path d="M131.708 124.389C131.708 124.389 131.825 125.247 132.655 125.32C133.168 125.364 133.904 125.386 133.904 125.386C134.779 125.219 135.876 125.236 136.077 125.894C136.077 125.894 136.166 126.15 136.155 126.289C136.11 126.768 136.278 126.367 135.62 126.958C135.62 126.958 134.372 127.9 133.603 128.262C132.633 128.719 132.132 128.73 131.82 128.702C131.82 128.702 131.195 128.58 130.8 128.624C130.365 128.68 130.477 129.226 130.477 129.655L129.139 130.207C127.779 130.569 126.709 129.388 126.709 129.059V125.62L131.697 124.4L131.708 124.389Z" fill="#545454"/>
<path d="M131.285 128.484C131.658 128.479 132.098 128.417 133.218 128.105C134.16 127.843 135.531 126.885 135.531 126.885C135.86 126.64 136.127 126.339 136.127 126.055C136.15 126.161 136.155 126.272 136.161 126.328C136.189 126.768 135.81 127.008 135.492 127.225C135.492 127.225 134.417 128.033 133.614 128.295C132.572 128.635 132.41 128.601 131.942 128.624C131.942 128.624 131.346 128.652 130.95 128.668C130.772 128.679 130.527 128.785 130.527 128.83C130.532 128.808 130.594 128.501 131.29 128.484H131.285Z" fill="#383736"/>
<path d="M129.151 129.81L130.471 129.259C130.471 129.398 130.482 129.548 130.482 129.688L129.145 130.245C127.785 130.602 126.715 129.431 126.715 129.097V128.668C126.715 128.997 127.785 130.173 129.145 129.816L129.151 129.81Z" fill="#383736"/>
<path d="M127.209 106.662C127.243 107.258 128.068 107.609 128.608 107.581C128.798 107.576 128.965 108.69 129.266 109.091C129.583 109.515 130.024 109.231 130.091 109.091C130.146 108.985 129.561 107.375 129.433 106.963C128.993 105.592 128.435 105.569 127.889 105.592C127.349 105.62 127.182 106.049 127.209 106.65V106.662Z" fill="#FFE8D9"/>
<path d="M127.304 105.431C126.691 105.431 125.504 104.26 125.504 104.26C125.504 104.26 125.482 104.115 125.437 103.842C125.187 102.354 124.055 97.2611 124 95.3775C123.933 93.3101 124.752 87.8489 124.752 87.8489C124.752 87.8489 125.12 83.2348 128.246 83.363C130.135 83.441 129.16 86.1549 129.177 87.8099C129.188 89.1139 128.519 95.7286 128.519 95.7286L128.937 103.853C128.937 103.853 128.502 105.419 127.304 105.431Z" fill="#FFE8D9"/>
<path d="M123.854 87.8599C123.854 87.8599 124.222 83.2458 127.348 83.374C129.237 83.452 128.256 86.1658 128.279 87.8209C128.279 88.2723 128.206 89.359 128.1 90.5905H123.486C123.67 89.0859 123.854 87.8655 123.854 87.8655V87.8599Z" fill="#D7DFE2"/>
<path d="M126.475 105.692L128.046 105.597L128.731 107.425L128.748 107.732L128.631 110.173C128.631 110.173 128.665 111.354 127.416 111.426C126.597 111.477 127.327 111.432 127.327 111.432C126.207 111.499 126.045 110.301 126.045 110.301L125.6 107.174C125.544 106.506 125.761 105.731 126.48 105.687L126.475 105.692Z" fill="#FFE8D9"/>
<path d="M129.256 105.654C129.256 105.927 128.66 106.473 127.857 106.551C126.815 106.657 126.313 106.462 126.313 106.462C125.829 106.3 125.561 106.111 125.522 105.765C125.522 105.765 125.361 104.506 125.333 104.11C125.31 103.854 125.439 103.848 125.439 103.848C125.439 103.848 125.461 104.055 125.505 104.127C125.661 104.395 126.113 104.751 127.138 104.773C128.754 104.812 128.938 103.854 128.938 103.854C129.172 103.854 129.25 103.96 129.245 104.227L129.261 105.648L129.256 105.654Z" fill="#E4EFF4"/>
<path d="M128.932 89.7106C128.609 89.4041 127.015 89.3596 126.496 89.3818C125.856 89.4153 124.719 89.7329 124.072 89.7329C123.76 89.7385 123.404 89.51 123.225 90.853C123.153 91.3824 123.443 91.7335 123.961 91.6889C125.337 91.5775 126.792 91.3267 128.163 91.3378C128.57 91.3378 129.238 90.0116 128.932 89.6995V89.7106Z" fill="#EAEEEF"/>
<path d="M125.995 105.726C125.995 105.726 125.26 102.287 129.528 102.287C132.905 102.287 132.905 105.871 132.905 105.871L131.195 126.528H126.982L125.995 105.726Z" fill="#E8C5AC"/>
<path d="M134.389 73.4275L137.287 73.7841L136.078 81.2403C135.771 83.3802 134.835 83.6309 134.183 83.5863C132.829 83.486 131.386 82.6 130.667 82.0873C129.268 81.101 129.508 78.5821 129.513 78.3815L129.452 73.3271L134.389 73.4275Z" fill="#FFE1CC"/>
<path d="M128.893 83.5364L129.673 79.0393L133.451 79.9198L132.961 84.2887C132.961 84.9073 135.323 90.2737 135.323 92.2074L128.185 89.9115C128.185 89.0923 128.893 83.542 128.893 83.542V83.5364Z" fill="#FFE1CC"/>
<path d="M134.015 100.31V102.288C134.015 103.754 133.664 106.245 133.664 106.245L126.91 106.501C126.057 106.334 125.734 105.169 125.734 103.999V100.31H134.009H134.015Z" fill="#14546D"/>
<path d="M125.995 105.726C125.995 105.726 126.274 103.336 129.25 103.336C129.645 103.336 129.25 103.336 130.425 103.336C133.273 103.341 133.669 106.245 133.669 106.245L131.897 126.445L127.383 126.529L126.001 105.726H125.995Z" fill="#FFE1CC"/>
<path d="M136.695 72.725C138.255 73.7503 137.642 74.6197 136.89 75.9515C136.566 76.5255 135.831 77.4171 135.669 78.2474L135.508 79.0276C135.496 79.3174 135.078 79.7075 134.906 79.2672C134.711 78.7824 135.078 78.4536 134.889 78.1917C134.694 77.9354 134.109 77.8016 133.423 79.3675L133.033 80.5879C132.398 81.9532 131.228 81.9532 130.397 81.7136C130.397 81.7136 129.567 81.4183 129.177 80.978C128.982 80.7607 127.895 78.6431 127.695 77.9186C126.686 74.2351 128.586 69.7882 134.109 71.4488C135.597 71.8946 136.7 72.7194 136.7 72.7194L136.695 72.725Z" fill="#633A11"/>
<path d="M133.641 104.009L133.457 127.626C133.457 127.626 131.913 129.058 129.35 129.058C127.918 129.058 126.519 128.133 126.48 127.738L125.627 103.597L133.635 104.009H133.641Z" fill="#0F407A"/>
<path d="M135.576 106.428L136.847 116.893L135.164 127.358C135.164 127.358 135.214 127.871 135.431 127.994C135.648 128.111 135.643 128.557 135.531 128.852C135.387 129.242 134.016 131.415 131.135 131.27C130.26 131.226 129.223 130.892 129.184 130.513L129.853 117.746L127.641 107.152L135.582 106.433L135.576 106.428Z" fill="#144994"/>
<path d="M135.541 87.5093C136.377 88.3675 136.695 89.326 136.695 92.3463L135.446 106.863C135.446 107.387 125.706 105.832 125.706 104.723L125.477 89.6046C125.611 84.3441 128.603 83.2351 128.603 83.2351L132.203 84.4945L135.541 87.5037V87.5093Z" fill="#CCD3D6"/>
<path d="M134.839 77.3555C134.839 77.3555 134.226 77.4279 133.992 78.1301C133.831 78.6205 133.992 79.044 134.081 79.1721C134.327 79.5065 134.6 79.5901 134.6 79.5901C134.6 79.5901 134.639 78.392 134.655 78.1746C134.672 77.9573 134.839 77.361 134.839 77.361V77.3555Z" fill="#EFCFBD"/>
<path d="M135.14 77.1048C135.14 77.1048 135.491 77.1048 135.223 77.5952C134.961 78.0856 134.889 78.3865 134.867 78.6707C134.85 78.9271 134.883 79.7016 134.883 79.7016C134.883 79.7016 134.649 80.0137 134.454 79.5345C134.36 79.3004 134.309 78.8713 134.343 78.3252C134.354 78.1023 134.761 76.9822 135.134 77.1048H135.14Z" fill="#FFE8D9"/>
<path d="M135.576 106.429L136.434 95.3559C136.434 95.3559 133.581 99.1174 131.43 98.0976C129.134 97.011 129.758 93.4501 128.811 93.946C127.2 94.7931 125.662 101.19 125.662 101.19C125.662 101.19 124.721 105.71 125.824 106.657C126.933 107.605 135.203 109.572 135.57 106.429H135.576Z" fill="#144994"/>
<path d="M128.95 102.918C128.343 93.0937 128.683 88.5631 131.341 85.9329C131.926 85.3533 133.208 85.3756 133.208 85.3756C133.208 85.3756 134.528 86.3675 134.528 86.5793C134.528 86.6573 133.141 86.3954 132.127 87.3372C130.159 89.165 130.015 93.768 130.193 103.292L128.961 102.924L128.95 102.918Z" fill="#144994"/>
<path d="M125.663 101.48C125.151 93.1773 125.351 88.3012 125.92 85.7099C126.449 83.2859 127.302 83.1354 127.302 83.1354C127.302 83.1354 128.706 82.9404 128.912 83.3137C128.957 83.3973 127.603 83.2023 127.073 85.7267C126.527 88.3346 126.17 93.4057 126.327 101.681L125.669 101.475L125.663 101.48Z" fill="#144994"/>
<path d="M128.321 78.3205C128.321 78.3205 132.355 79.8084 137.939 74.5255C138.151 74.3249 138.117 73.7398 137.95 73.5057C137.114 72.3355 134.345 69.3485 130.611 70.7863C126.783 72.2575 126.588 77.9861 128.321 78.3149V78.3205Z" fill="#1C8E52"/>
<path d="M129.659 90.2461C129.659 90.2461 129.096 90.0567 127.82 89.6387C126.544 89.2264 126.51 88.8809 126.51 88.8809L125.83 96.0751L126.215 102.333L129.252 103.336L129.575 94.5036L129.659 90.2461Z" fill="#144994"/>
<path d="M134.022 95.1558C133.036 95.7354 133.554 96.4766 133.643 97.396C133.76 98.5384 133.788 99.6975 133.972 100.829C134.256 102.495 134.668 104.117 134.953 105.783C135.075 106.474 135.259 106.869 136.067 106.892C136.552 106.892 137.271 106.764 137.287 106.117L137.349 106.106C137.471 105.577 136.964 104.674 136.892 104.105C136.825 103.598 136.853 103.08 136.819 102.567C136.808 101.509 136.959 100.455 136.881 99.4022C136.842 98.466 136.53 94.8884 136.725 93.3782C136.546 93.4729 136.362 93.5955 136.162 93.7348C135.421 94.2196 134.746 94.6933 134.033 95.1447L134.022 95.1558Z" fill="#FFE8D9"/>
<path d="M137.331 105.442L136.863 105.297L135.113 105.955C134.327 106.211 134.645 107.326 135.141 108.474C135.141 108.474 134.929 108.501 134.912 108.557C134.851 108.786 134.935 109.387 135.564 109.649C135.949 109.811 137.855 109.231 138.038 109.081C138.222 108.93 138.523 107.894 138.523 107.894L137.325 105.442H137.331Z" fill="#FFE8D9"/>
<path d="M132.489 95.6176C132.071 93.8623 131.804 92.2462 131.804 92.2462C131.804 92.2462 130.962 88.585 133.18 87.2866C134.807 86.3337 136.54 87.738 136.691 89.3874C136.791 90.463 136.925 92.5694 137.081 94.3861C137.148 95.1607 132.835 97.0777 132.489 95.6176Z" fill="#D7DFE2"/>
<path d="M137.477 93.5388C137.093 93.3103 135.533 93.6224 135.031 93.7561C134.412 93.9344 133.376 94.4917 132.746 94.6366C132.44 94.7146 132.044 94.5697 132.172 95.9183C132.222 96.4533 132.579 96.7263 133.075 96.5703C134.396 96.1579 135.755 95.5895 137.098 95.2997C137.494 95.2161 137.851 93.7673 137.489 93.5332L137.477 93.5388Z" fill="#EAEEEF"/>
</g>
<defs>
<clipPath id="clip0_936_3800">
<rect width="25.7845" height="58.9528" fill="white" transform="translate(125.452 25.7473)"/>
</clipPath>
<clipPath id="clip1_936_3800">
<rect width="23.6446" height="62.5805" fill="white" transform="translate(173.084 47.6326)"/>
</clipPath>
<clipPath id="clip2_936_3800">
<rect width="21.7499" height="61.5552" fill="white" transform="translate(246.464 43.1267)"/>
</clipPath>
<clipPath id="clip3_936_3800">
<rect width="31.1287" height="60.084" fill="white" transform="translate(64.302 22.5288)"/>
</clipPath>
<clipPath id="clip4_936_3800">
<rect width="19.7717" height="63.7954" fill="white" transform="translate(122.829 70.4092)"/>
</clipPath>
</defs>
</svg>
