<svg width="76" height="78" viewBox="0 0 76 78" fill="none" xmlns="http://www.w3.org/2000/svg">
<path d="M70.5454 29.697H60V8.60606C60 3.87879 56.1212 0 51.3939 0H22.0606C17.3333 0 13.4545 3.87879 13.4545 8.60606V15.2727C5.93939 15.8788 0 22.1818 0 29.8182C0 37.4545 5.93939 43.8788 13.4545 44.4849V68.9697C13.4545 73.697 17.3333 77.5758 22.0606 77.5758H51.2727C56 77.5758 59.8788 73.697 59.8788 68.9697V55.7576H70.4242C73.0909 55.7576 75.2727 53.5758 75.2727 50.9091V34.5455C75.3939 31.8788 73.2121 29.697 70.5454 29.697ZM15.0303 39.8788C14.303 39.8788 13.8182 39.3939 13.8182 38.6667V37.2121H11.2727C9.69697 37.2121 8.48485 36 8.48485 34.4242C8.48485 33.8182 8.9697 33.2121 9.69697 33.2121C10.4242 33.2121 10.9091 33.8182 10.9091 34.4242C10.9091 34.6667 11.0303 34.7879 11.2727 34.7879H18.303C18.5455 34.7879 18.6667 34.6667 18.6667 34.4242V31.3939C18.6667 31.1515 18.5455 31.0303 18.303 31.0303H11.2727C9.69697 31.0303 8.48485 29.8182 8.48485 28.2424V25.3333C8.48485 23.7576 9.69697 22.5455 11.2727 22.5455H13.8182V21.0909C13.8182 20.3636 14.303 19.8788 15.0303 19.8788C15.7576 19.8788 16.2424 20.3636 16.2424 21.0909V22.5455H18.303C19.8788 22.5455 21.0909 23.7576 21.0909 25.3333C21.0909 25.9394 20.4848 26.5455 19.8788 26.5455C19.2727 26.5455 18.6667 25.9394 18.6667 25.3333C18.6667 25.0909 18.5455 24.9697 18.303 24.9697H11.2727C11.0303 24.9697 10.9091 25.0909 10.9091 25.3333V28.2424C10.9091 28.4848 11.0303 28.6061 11.2727 28.6061H18.303C19.8788 28.6061 21.0909 29.8182 21.0909 31.3939V34.4242C21.0909 36 19.8788 37.2121 18.303 37.2121H16.2424V38.6667C16.2424 39.3939 15.6364 39.8788 15.0303 39.8788ZM40.3636 72H33.0909C32.4848 72 31.8788 71.3939 31.8788 70.7879C31.8788 70.1818 32.4848 69.5758 33.0909 69.5758H40.3636C41.0909 69.5758 41.5757 70.1818 41.5757 70.7879C41.5757 71.3939 40.9697 72 40.3636 72ZM57.4545 64.3636H15.8788V44.4849C23.3939 43.8788 29.3333 37.5758 29.3333 29.8182C29.3333 22.0606 23.5151 15.8788 15.8788 15.2727V10.6667H57.4545V29.697H40.3636C37.697 29.697 35.5151 31.8788 35.5151 34.5455V50.9091C35.5151 53.5758 37.697 55.7576 40.3636 55.7576H57.4545V64.3636ZM72.9697 50.9091C72.9697 52.2424 71.8788 53.3333 70.5454 53.3333H40.3636C39.0303 53.3333 37.9394 52.2424 37.9394 50.9091V38.5455H72.9697V50.9091Z" fill="#1B993C"/>
</svg>
