<svg width="79" height="85" viewBox="0 0 79 85" fill="none" xmlns="http://www.w3.org/2000/svg">
<path d="M45.3125 0H7.8125C3.49778 0 0 3.49778 0 7.8125V76.5625C0 80.8772 3.49778 84.375 7.8125 84.375H45.3125C49.6272 84.375 53.125 80.8772 53.125 76.5625V7.8125C53.125 3.49778 49.6272 0 45.3125 0Z" fill="#DFEDE7"/>
<path d="M42.7031 0L41.0938 4.29688C40.5294 5.78532 39.5269 7.06755 38.2185 7.97422C36.9101 8.88088 35.3574 9.36931 33.7656 9.375H19.3594C17.7676 9.36931 16.2149 8.88088 14.9065 7.97422C13.5981 7.06755 12.5956 5.78532 12.0312 4.29688L10.4375 0H42.7031Z" fill="#00D196"/>
<path d="M53.125 68.75H0V76.5625C0 78.6345 0.8231 80.6216 2.28823 82.0868C3.75336 83.5519 5.7405 84.375 7.8125 84.375H45.3125C46.3385 84.375 47.3544 84.1729 48.3022 83.7803C49.2501 83.3877 50.1113 82.8122 50.8368 82.0868C51.5622 81.3613 52.1377 80.5001 52.5303 79.5522C52.9229 78.6044 53.125 77.5885 53.125 76.5625V68.75Z" fill="#00D196"/>
<path d="M26.5625 79.6875C28.2884 79.6875 29.6875 78.2884 29.6875 76.5625C29.6875 74.8366 28.2884 73.4375 26.5625 73.4375C24.8366 73.4375 23.4375 74.8366 23.4375 76.5625C23.4375 78.2884 24.8366 79.6875 26.5625 79.6875Z" fill="#D0E4DC"/>
<path d="M26.5625 60.9375C36.9178 60.9375 45.3125 52.5428 45.3125 42.1875C45.3125 31.8322 36.9178 23.4375 26.5625 23.4375C16.2072 23.4375 7.8125 31.8322 7.8125 42.1875C7.8125 52.5428 16.2072 60.9375 26.5625 60.9375Z" fill="#00D196"/>
<path d="M71.3078 51.1549C68.0192 48.4394 63.9036 46.925 59.6392 46.8615C55.3747 46.7979 51.2158 48.1888 47.8477 50.8051C44.4795 53.4214 42.1031 57.107 41.1098 61.2546C40.1165 65.4022 40.5657 69.7645 42.3834 73.6227C44.201 77.4809 47.2787 80.6048 51.1093 82.4798C54.9399 84.3548 59.295 84.8691 63.457 83.9378C67.619 83.0065 71.3396 80.6853 74.0059 77.3565C76.6721 74.0278 78.125 69.8901 78.125 65.6252C78.1247 62.86 77.5135 60.129 76.335 57.6275C75.1565 55.126 73.4399 52.9158 71.3078 51.1549Z" fill="#00D196"/>
<path d="M57.8126 75C57.3982 74.9999 57.0008 74.8352 56.7079 74.5422L50.4579 68.2922C50.1732 67.9975 50.0158 67.6028 50.0193 67.1931C50.0229 66.7834 50.1872 66.3915 50.4769 66.1018C50.7666 65.8121 51.1585 65.6478 51.5682 65.6443C51.9779 65.6407 52.3726 65.7982 52.6672 66.0828L57.6672 71.0828L67.511 58.4172C67.637 58.2551 67.7937 58.1194 67.9721 58.0178C68.1505 57.9163 68.3472 57.8509 68.5509 57.8253C68.7546 57.7998 68.9614 57.8146 69.1593 57.869C69.3573 57.9234 69.5426 58.0162 69.7047 58.1422C69.8668 58.2682 70.0025 58.4249 70.1041 58.6033C70.2056 58.7817 70.271 58.9784 70.2966 59.1821C70.3221 59.3858 70.3073 59.5926 70.2529 59.7905C70.1986 59.9885 70.1057 60.1738 69.9797 60.3359L59.0422 74.3984C58.9061 74.5734 58.7342 74.7174 58.5381 74.8209C58.342 74.9243 58.1261 74.9849 57.9047 74.9984L57.8126 75ZM26.5626 40.625C26.099 40.625 25.6459 40.4875 25.2604 40.23C24.875 39.9725 24.5746 39.6064 24.3972 39.1782C24.2198 38.7499 24.1734 38.2787 24.2638 37.824C24.3543 37.3694 24.5775 36.9517 24.9053 36.624C25.2331 36.2962 25.6507 36.073 26.1053 35.9825C26.56 35.8921 27.0312 35.9385 27.4595 36.1159C27.8877 36.2933 28.2538 36.5937 28.5113 36.9791C28.7688 37.3646 28.9063 37.8177 28.9063 38.2812C28.9063 38.6957 29.0709 39.0931 29.364 39.3861C29.657 39.6791 30.0544 39.8438 30.4688 39.8438C30.8832 39.8438 31.2806 39.6791 31.5737 39.3861C31.8667 39.0931 32.0313 38.6957 32.0313 38.2812C32.0271 37.1077 31.6448 35.9668 30.9412 35.0277C30.2376 34.0885 29.2501 33.401 28.1251 33.0672V31.25C28.1251 30.8356 27.9604 30.4382 27.6674 30.1451C27.3744 29.8521 26.977 29.6875 26.5626 29.6875C26.1482 29.6875 25.7507 29.8521 25.4577 30.1451C25.1647 30.4382 25.0001 30.8356 25.0001 31.25V33.0672C23.7413 33.439 22.6589 34.2524 21.9515 35.3581C21.2441 36.4637 20.9593 37.7874 21.1492 39.0861C21.3392 40.3848 21.9912 41.5715 22.9856 42.4282C23.98 43.2849 25.25 43.7542 26.5626 43.75C27.0261 43.75 27.4792 43.8875 27.8647 44.145C28.2501 44.4025 28.5505 44.7686 28.7279 45.1968C28.9053 45.6251 28.9517 46.0964 28.8613 46.551C28.7708 47.0056 28.5476 47.4233 28.2198 47.751C27.8921 48.0788 27.4744 48.302 27.0198 48.3925C26.5652 48.4829 26.0939 48.4365 25.6656 48.2591C25.2374 48.0817 24.8713 47.7813 24.6138 47.3959C24.3563 47.0104 24.2188 46.5573 24.2188 46.0938C24.2188 45.6793 24.0542 45.2819 23.7612 44.9889C23.4681 44.6959 23.0707 44.5312 22.6563 44.5312C22.2419 44.5312 21.8445 44.6959 21.5515 44.9889C21.2584 45.2819 21.0938 45.6793 21.0938 46.0938C21.0981 47.2673 21.4803 48.4082 22.1839 49.3473C22.8875 50.2865 23.875 50.974 25.0001 51.3078V53.125C25.0001 53.5394 25.1647 53.9368 25.4577 54.2299C25.7507 54.5229 26.1482 54.6875 26.5626 54.6875C26.977 54.6875 27.3744 54.5229 27.6674 54.2299C27.9604 53.9368 28.1251 53.5394 28.1251 53.125V51.3078C29.3838 50.936 30.4663 50.1226 31.1736 49.0169C31.881 47.9113 32.1659 46.5876 31.9759 45.2889C31.7859 43.9902 31.1339 42.8035 30.1395 41.9468C29.1451 41.0901 27.8751 40.6208 26.5626 40.625Z" fill="#DFEDE7"/>
</svg>
