<svg width="80" height="80" viewBox="0 0 80 80" fill="none" xmlns="http://www.w3.org/2000/svg">
<path d="M72.8482 30.9089H62.3027V9.81798C62.3027 5.0907 58.4239 1.21191 53.6967 1.21191H24.3633C19.6361 1.21191 15.7573 5.0907 15.7573 9.81798V16.4846C8.24213 17.0907 2.30273 23.3937 2.30273 31.0301C2.30273 38.6665 8.24213 45.0907 15.7573 45.6968V70.1816C15.7573 74.9089 19.6361 78.7877 24.3633 78.7877H53.5755C58.3027 78.7877 62.1815 74.9089 62.1815 70.1816V56.9695H72.727C75.3936 56.9695 77.5755 54.7877 77.5755 52.121V35.7574C77.6967 33.0907 75.5149 30.9089 72.8482 30.9089ZM17.333 41.0907C16.6058 41.0907 16.1209 40.6059 16.1209 39.8786V38.424H13.5755C11.9997 38.424 10.7876 37.2119 10.7876 35.6362C10.7876 35.0301 11.2724 34.424 11.9997 34.424C12.727 34.424 13.2118 35.0301 13.2118 35.6362C13.2118 35.8786 13.333 35.9998 13.5755 35.9998H20.6058C20.8482 35.9998 20.9694 35.8786 20.9694 35.6362V32.6059C20.9694 32.3634 20.8482 32.2422 20.6058 32.2422H13.5755C11.9997 32.2422 10.7876 31.0301 10.7876 29.4543V26.5452C10.7876 24.9695 11.9997 23.7574 13.5755 23.7574H16.1209V22.3028C16.1209 21.5756 16.6058 21.0907 17.333 21.0907C18.0603 21.0907 18.5452 21.5756 18.5452 22.3028V23.7574H20.6058C22.1815 23.7574 23.3936 24.9695 23.3936 26.5452C23.3936 27.1513 22.7876 27.7574 22.1815 27.7574C21.5755 27.7574 20.9694 27.1513 20.9694 26.5452C20.9694 26.3028 20.8482 26.1816 20.6058 26.1816H13.5755C13.333 26.1816 13.2118 26.3028 13.2118 26.5452V29.4543C13.2118 29.6968 13.333 29.818 13.5755 29.818H20.6058C22.1815 29.818 23.3936 31.0301 23.3936 32.6059V35.6362C23.3936 37.2119 22.1815 38.424 20.6058 38.424H18.5452V39.8786C18.5452 40.6059 17.9391 41.0907 17.333 41.0907ZM42.6664 73.2119H35.3936C34.7876 73.2119 34.1815 72.6059 34.1815 71.9998C34.1815 71.3937 34.7876 70.7877 35.3936 70.7877H42.6664C43.3936 70.7877 43.8785 71.3937 43.8785 71.9998C43.8785 72.6059 43.2724 73.2119 42.6664 73.2119ZM59.7573 65.5756H18.1815V45.6968C25.6967 45.0907 31.6361 38.7877 31.6361 31.0301C31.6361 23.2725 25.8179 17.0907 18.1815 16.4846V11.8786H59.7573V30.9089H42.6664C39.9997 30.9089 37.8179 33.0907 37.8179 35.7574V52.121C37.8179 54.7877 39.9997 56.9695 42.6664 56.9695H59.7573V65.5756ZM75.2724 52.121C75.2724 53.4543 74.1815 54.5452 72.8482 54.5452H42.6664C41.333 54.5452 40.2421 53.4543 40.2421 52.121V39.7574H75.2724V52.121Z" fill="#B81C2D"/>
<path d="M59.8785 43.2725H44.3634C43.7573 43.2725 43.1512 43.8785 43.1512 44.4846C43.1512 45.0906 43.7573 45.6967 44.3634 45.6967H59.8785C60.4846 45.6967 61.0906 45.0906 61.0906 44.4846C61.0906 43.8785 60.4846 43.2725 59.8785 43.2725ZM45.9391 47.8785C45.3331 47.8785 44.727 48.4846 44.727 49.0906V50.5452C44.727 51.1512 45.3331 51.7573 45.9391 51.7573C46.5452 51.7573 47.1512 51.1512 47.1512 50.5452V49.0906C47.1512 48.4846 46.6664 47.8785 45.9391 47.8785ZM49.8179 47.8785C49.2119 47.8785 48.6058 48.4846 48.6058 49.0906V50.5452C48.6058 51.1512 49.2119 51.7573 49.8179 51.7573C50.424 51.7573 51.03 51.1512 51.03 50.5452V49.0906C51.03 48.4846 50.424 47.8785 49.8179 47.8785ZM53.5755 47.8785C52.9694 47.8785 52.3634 48.4846 52.3634 49.0906V50.5452C52.3634 51.1512 52.9694 51.7573 53.5755 51.7573C54.1816 51.7573 54.7876 51.1512 54.7876 50.5452V49.0906C54.7876 48.4846 54.3028 47.8785 53.5755 47.8785Z" fill="#B81C2D"/>
</svg>
