<svg width="18" height="18" viewBox="0 0 18 18" fill="none" xmlns="http://www.w3.org/2000/svg">
<g clip-path="url(#clip0_2023_12752)">
<path d="M12 10.5C12 10.6989 11.921 10.8897 11.7803 11.0303C11.6397 11.171 11.4489 11.25 11.25 11.25H10.5C10.3011 11.25 10.1103 11.171 9.96967 11.0303C9.82902 10.8897 9.75 10.6989 9.75 10.5C9.75 10.3011 9.82902 10.1103 9.96967 9.96967C10.1103 9.82902 10.3011 9.75 10.5 9.75H11.25C11.4489 9.75 11.6397 9.82902 11.7803 9.96967C11.921 10.1103 12 10.3011 12 10.5ZM14.25 9.75H13.5C13.3011 9.75 13.1103 9.82902 12.9697 9.96967C12.829 10.1103 12.75 10.3011 12.75 10.5C12.75 10.6989 12.829 10.8897 12.9697 11.0303C13.1103 11.171 13.3011 11.25 13.5 11.25H14.25C14.4489 11.25 14.6397 11.171 14.7803 11.0303C14.921 10.8897 15 10.6989 15 10.5C15 10.3011 14.921 10.1103 14.7803 9.96967C14.6397 9.82902 14.4489 9.75 14.25 9.75ZM11.25 12.75H10.5C10.3011 12.75 10.1103 12.829 9.96967 12.9697C9.82902 13.1103 9.75 13.3011 9.75 13.5C9.75 13.6989 9.82902 13.8897 9.96967 14.0303C10.1103 14.171 10.3011 14.25 10.5 14.25H11.25C11.4489 14.25 11.6397 14.171 11.7803 14.0303C11.921 13.8897 12 13.6989 12 13.5C12 13.3011 11.921 13.1103 11.7803 12.9697C11.6397 12.829 11.4489 12.75 11.25 12.75ZM14.25 12.75H13.5C13.3011 12.75 13.1103 12.829 12.9697 12.9697C12.829 13.1103 12.75 13.3011 12.75 13.5C12.75 13.6989 12.829 13.8897 12.9697 14.0303C13.1103 14.171 13.3011 14.25 13.5 14.25H14.25C14.4489 14.25 14.6397 14.171 14.7803 14.0303C14.921 13.8897 15 13.6989 15 13.5C15 13.3011 14.921 13.1103 14.7803 12.9697C14.6397 12.829 14.4489 12.75 14.25 12.75ZM11.25 3.75H10.5C10.3011 3.75 10.1103 3.82902 9.96967 3.96967C9.82902 4.11032 9.75 4.30109 9.75 4.5C9.75 4.69891 9.82902 4.88968 9.96967 5.03033C10.1103 5.17098 10.3011 5.25 10.5 5.25H11.25C11.4489 5.25 11.6397 5.17098 11.7803 5.03033C11.921 4.88968 12 4.69891 12 4.5C12 4.30109 11.921 4.11032 11.7803 3.96967C11.6397 3.82902 11.4489 3.75 11.25 3.75ZM14.25 3.75H13.5C13.3011 3.75 13.1103 3.82902 12.9697 3.96967C12.829 4.11032 12.75 4.30109 12.75 4.5C12.75 4.69891 12.829 4.88968 12.9697 5.03033C13.1103 5.17098 13.3011 5.25 13.5 5.25H14.25C14.4489 5.25 14.6397 5.17098 14.7803 5.03033C14.921 4.88968 15 4.69891 15 4.5C15 4.30109 14.921 4.11032 14.7803 3.96967C14.6397 3.82902 14.4489 3.75 14.25 3.75ZM11.25 6.75H10.5C10.3011 6.75 10.1103 6.82902 9.96967 6.96967C9.82902 7.11032 9.75 7.30109 9.75 7.5C9.75 7.69891 9.82902 7.88968 9.96967 8.03033C10.1103 8.17098 10.3011 8.25 10.5 8.25H11.25C11.4489 8.25 11.6397 8.17098 11.7803 8.03033C11.921 7.88968 12 7.69891 12 7.5C12 7.30109 11.921 7.11032 11.7803 6.96967C11.6397 6.82902 11.4489 6.75 11.25 6.75ZM14.25 6.75H13.5C13.3011 6.75 13.1103 6.82902 12.9697 6.96967C12.829 7.11032 12.75 7.30109 12.75 7.5C12.75 7.69891 12.829 7.88968 12.9697 8.03033C13.1103 8.17098 13.3011 8.25 13.5 8.25H14.25C14.4489 8.25 14.6397 8.17098 14.7803 8.03033C14.921 7.88968 15 7.69891 15 7.5C15 7.30109 14.921 7.11032 14.7803 6.96967C14.6397 6.82902 14.4489 6.75 14.25 6.75ZM18 3.75V14.25C18 16.3177 16.3177 18 14.25 18H3.75C1.68225 18 0 16.3177 0 14.25V6.9435C0 5.93025 0.4185 4.9455 1.14825 4.24275L2.56425 2.87925C2.98261 2.47375 3.54237 2.24699 4.125 2.24699C4.70763 2.24699 5.26739 2.47375 5.68575 2.87925L6.75 3.9045V3.75C6.75 1.68225 8.43225 0 10.5 0H14.25C16.3177 0 18 1.68225 18 3.75ZM6.75 6.9435C6.75 6.33525 6.49875 5.745 6.06075 5.32275L4.64475 3.95925C4.50568 3.82374 4.31918 3.7479 4.125 3.7479C3.93082 3.7479 3.74432 3.82374 3.60525 3.95925L2.18925 5.32275C1.97175 5.53303 1.79868 5.78484 1.68029 6.06324C1.56189 6.34164 1.50059 6.64097 1.5 6.9435V14.25C1.5 15.4905 2.5095 16.5 3.75 16.5H6.75V6.9435ZM16.5 3.75C16.5 2.5095 15.4905 1.5 14.25 1.5H10.5C9.2595 1.5 8.25 2.5095 8.25 3.75V16.5H14.25C15.4905 16.5 16.5 15.4905 16.5 14.25V3.75ZM4.5 9.75H3.75C3.55109 9.75 3.36032 9.82902 3.21967 9.96967C3.07902 10.1103 3 10.3011 3 10.5C3 10.6989 3.07902 10.8897 3.21967 11.0303C3.36032 11.171 3.55109 11.25 3.75 11.25H4.5C4.69891 11.25 4.88968 11.171 5.03033 11.0303C5.17098 10.8897 5.25 10.6989 5.25 10.5C5.25 10.3011 5.17098 10.1103 5.03033 9.96967C4.88968 9.82902 4.69891 9.75 4.5 9.75ZM4.5 6.75H3.75C3.55109 6.75 3.36032 6.82902 3.21967 6.96967C3.07902 7.11032 3 7.30109 3 7.5C3 7.69891 3.07902 7.88968 3.21967 8.03033C3.36032 8.17098 3.55109 8.25 3.75 8.25H4.5C4.69891 8.25 4.88968 8.17098 5.03033 8.03033C5.17098 7.88968 5.25 7.69891 5.25 7.5C5.25 7.30109 5.17098 7.11032 5.03033 6.96967C4.88968 6.82902 4.69891 6.75 4.5 6.75ZM4.5 12.75H3.75C3.55109 12.75 3.36032 12.829 3.21967 12.9697C3.07902 13.1103 3 13.3011 3 13.5C3 13.6989 3.07902 13.8897 3.21967 14.0303C3.36032 14.171 3.55109 14.25 3.75 14.25H4.5C4.69891 14.25 4.88968 14.171 5.03033 14.0303C5.17098 13.8897 5.25 13.6989 5.25 13.5C5.25 13.3011 5.17098 13.1103 5.03033 12.9697C4.88968 12.829 4.69891 12.75 4.5 12.75Z" fill="#8D0247"/>
</g>
<defs>
<clipPath id="clip0_2023_12752">
<rect width="18" height="18" fill="white"/>
</clipPath>
</defs>
</svg>
