<svg width="20" height="20" viewBox="0 0 20 20" fill="none" xmlns="http://www.w3.org/2000/svg">
<path d="M9.45833 3.19667C9.40417 3.37167 9.375 3.5575 9.375 3.75C9.375 4.095 9.655 4.375 10 4.375H13.75C13.9158 4.375 14.0747 4.30915 14.1919 4.19194C14.3092 4.07473 14.375 3.91576 14.375 3.75C14.3751 3.56243 14.347 3.3759 14.2917 3.19667M9.45833 3.19667C9.57669 2.81392 9.81448 2.47911 10.1369 2.24128C10.4593 2.00345 10.8494 1.87509 11.25 1.875H12.5C13.3433 1.875 14.0558 2.43167 14.2917 3.19667M9.45833 3.19667C9.145 3.21583 8.83333 3.23833 8.52167 3.26333C7.57917 3.34167 6.875 4.14417 6.875 5.09V6.875M14.2917 3.19667C14.605 3.21583 14.9167 3.23833 15.2283 3.26333C16.1708 3.34167 16.875 4.14417 16.875 5.09V13.75C16.875 14.2473 16.6775 14.7242 16.3258 15.0758C15.9742 15.4275 15.4973 15.625 15 15.625H13.125M6.875 6.875H4.0625C3.545 6.875 3.125 7.295 3.125 7.8125V17.1875C3.125 17.705 3.545 18.125 4.0625 18.125H12.1875C12.705 18.125 13.125 17.705 13.125 17.1875V15.625M6.875 6.875H12.1875C12.705 6.875 13.125 7.295 13.125 7.8125V15.625M6.25 13.125L7.5 14.375L10 11.25" stroke="#8D0247" stroke-width="1.5" stroke-linecap="round" stroke-linejoin="round"/>
</svg>
