<svg width="18" height="18" viewBox="0 0 18 18" fill="none" xmlns="http://www.w3.org/2000/svg">
<g clip-path="url(#clip0_2023_12724)">
<path d="M16.5 8.25V14.25C16.5 16.3177 14.8177 18 12.75 18H3.75C1.68225 18 0 16.3177 0 14.25V5.25C0 3.18225 1.68225 1.5 3.75 1.5H9.75C9.94891 1.5 10.1397 1.57902 10.2803 1.71967C10.421 1.86032 10.5 2.05109 10.5 2.25C10.5 2.44891 10.421 2.63968 10.2803 2.78033C10.1397 2.92098 9.94891 3 9.75 3H3.75C2.5095 3 1.5 4.0095 1.5 5.25V14.25C1.5 15.4905 2.5095 16.5 3.75 16.5H12.75C13.9905 16.5 15 15.4905 15 14.25V8.25C15 8.05109 15.079 7.86032 15.2197 7.71967C15.3603 7.57902 15.5511 7.5 15.75 7.5C15.9489 7.5 16.1397 7.57902 16.2803 7.71967C16.421 7.86032 16.5 8.05109 16.5 8.25ZM18 3C18 4.6545 16.6545 6 15 6C13.3455 6 12 4.6545 12 3C12 1.3455 13.3455 0 15 0C16.6545 0 18 1.3455 18 3ZM16.5 3C16.5 2.17275 15.8273 1.5 15 1.5C14.1727 1.5 13.5 2.17275 13.5 3C13.5 3.82725 14.1727 4.5 15 4.5C15.8273 4.5 16.5 3.82725 16.5 3ZM5.577 11.4188L6.2655 14.4503C6.28062 14.5162 6.28065 14.5848 6.2656 14.6508C6.25054 14.7168 6.22078 14.7786 6.17854 14.8315C6.13629 14.8844 6.08265 14.9271 6.02161 14.9564C5.96057 14.9857 5.89371 15.0009 5.826 15.0007C5.71657 15.0099 5.6075 14.9795 5.51868 14.9149C5.42987 14.8503 5.36725 14.7559 5.34225 14.649L5.25225 14.2507H3.726L3.62775 14.6565C3.6003 14.7728 3.52779 14.8734 3.42617 14.9362C3.32455 14.999 3.20214 15.0188 3.08588 14.9914C2.96961 14.9639 2.86901 14.8914 2.80621 14.7898C2.74341 14.6882 2.72355 14.5658 2.751 14.4495L3.453 11.394C3.5595 10.8165 4.0365 10.5247 4.5135 10.5247C4.99425 10.5247 5.47575 10.821 5.57625 11.4195L5.577 11.4188ZM5.04225 13.3125L4.65675 11.6003C4.683 11.415 4.33875 11.4262 4.368 11.6032L3.954 13.3125H5.04225ZM10.0883 12.0427C10.0598 12.8497 9.372 13.4775 8.565 13.4775H8.06325V14.5312C8.06325 14.6556 8.01386 14.7748 7.92596 14.8627C7.83805 14.9506 7.71882 15 7.5945 15C7.47018 15 7.35095 14.9506 7.26304 14.8627C7.17514 14.7748 7.12575 14.6556 7.12575 14.5312V10.9688C7.12575 10.71 7.33575 10.5 7.5945 10.5H8.601C9.441 10.5 10.1182 11.196 10.0883 12.0427ZM9.15225 11.9887C9.15225 11.8425 9.09417 11.7023 8.99079 11.599C8.88741 11.4956 8.7472 11.4375 8.601 11.4375H8.064V12.5422L8.60025 12.54C8.74645 12.54 8.88666 12.4819 8.99004 12.3785C9.09342 12.2752 9.1515 12.135 9.1515 11.9887H9.15225ZM10.8758 14.5312V10.9688C10.8758 10.71 11.0858 10.5 11.3445 10.5H12.351C13.191 10.5 13.869 11.196 13.839 12.0427C13.8105 12.8497 13.1227 13.4775 12.3158 13.4775H11.814V14.5312C11.814 14.6556 11.7646 14.7748 11.6767 14.8627C11.5888 14.9506 11.4696 15 11.3453 15C11.2209 15 11.1017 14.9506 11.0138 14.8627C10.9259 14.7748 10.8758 14.6556 10.8758 14.5312ZM11.8148 12.5422L12.351 12.54C12.4972 12.54 12.6374 12.4819 12.7408 12.3785C12.8442 12.2752 12.9022 12.135 12.9022 11.9887C12.9022 11.8425 12.8442 11.7023 12.7408 11.599C12.6374 11.4956 12.4972 11.4375 12.351 11.4375H11.814V12.5422H11.8148Z" fill="#8D0247"/>
</g>
<defs>
<clipPath id="clip0_2023_12724">
<rect width="18" height="18" fill="white"/>
</clipPath>
</defs>
</svg>
