<svg width="24" height="22" viewBox="0 0 24 22" fill="none" xmlns="http://www.w3.org/2000/svg">
<path d="M11.6058 9C9.73585 9 7.97885 9.728 6.65585 11.05C6.563 11.1428 6.45278 11.2165 6.33147 11.2667C6.21017 11.317 6.08015 11.3428 5.94885 11.3428C5.81755 11.3428 5.68753 11.317 5.56622 11.2667C5.44492 11.2165 5.33469 11.1428 5.24185 11.05C5.149 10.9572 5.07536 10.8469 5.02511 10.7256C4.97486 10.6043 4.949 10.4743 4.949 10.343C4.949 10.2117 4.97486 10.0817 5.02511 9.96037C5.07536 9.83907 5.149 9.72884 5.24185 9.636C6.0756 8.79761 7.06739 8.13293 8.15978 7.68046C9.25217 7.22798 10.4235 6.9967 11.6058 7C11.8711 7 12.1254 7.10536 12.313 7.29289C12.5005 7.48043 12.6058 7.73478 12.6058 8C12.6058 8.26522 12.5005 8.51957 12.313 8.70711C12.1254 8.89464 11.8711 9 11.6058 9ZM21.5048 6.101C21.5977 6.19384 21.7079 6.26749 21.8292 6.31774C21.9505 6.36799 22.0805 6.39385 22.2118 6.39385C22.3432 6.39385 22.4732 6.36799 22.5945 6.31774C22.7158 6.26749 22.826 6.19384 22.9188 6.101C23.0117 6.00816 23.0853 5.89793 23.1356 5.77663C23.1858 5.65532 23.2117 5.5253 23.2117 5.394C23.2117 5.2627 23.1858 5.13268 23.1356 5.01137C23.0853 4.89007 23.0117 4.77984 22.9188 4.687C19.8978 1.665 15.8798 0 11.6058 0C7.33185 0 3.31385 1.665 0.292849 4.687C0.200004 4.77984 0.126356 4.89007 0.076109 5.01137C0.0258618 5.13268 9.78276e-10 5.2627 0 5.394C-9.78276e-10 5.5253 0.0258618 5.65532 0.076109 5.77663C0.126356 5.89793 0.200004 6.00816 0.292849 6.101C0.385694 6.19384 0.495916 6.26749 0.617223 6.31774C0.738531 6.36799 0.868547 6.39385 0.999849 6.39385C1.13115 6.39385 1.26117 6.36799 1.38247 6.31774C1.50378 6.26749 1.614 6.19384 1.70685 6.101C4.35185 3.457 7.86685 2 11.6058 2C15.3448 2 18.8608 3.457 21.5048 6.101ZM23.6058 16V18C23.6058 20.206 21.8118 22 19.6058 22H15.6058C13.3998 22 11.6058 20.206 11.6058 18C11.0754 18 10.5667 17.7893 10.1916 17.4142C9.81656 17.0391 9.60585 16.5304 9.60585 16C9.60585 15.4696 9.81656 14.9609 10.1916 14.5858C10.5667 14.2107 11.0754 14 11.6058 14C11.7848 14 11.9558 14.031 12.1208 14.076C12.4701 13.4452 12.9831 12.9204 13.6058 12.557V11.001C13.6058 8.795 15.3998 7.001 17.6058 7.001C19.8118 7.001 21.6058 8.795 21.6058 11.001V12.557C22.7958 13.251 23.6058 14.526 23.6058 16ZM15.6058 12H19.6058V11C19.6058 9.897 18.7088 9 17.6058 9C16.5028 9 15.6058 9.897 15.6058 11V12ZM21.6058 16C21.6058 14.897 20.7088 14 19.6058 14H15.6058C14.5028 14 13.6058 14.897 13.6058 16V18C13.6058 19.103 14.5028 20 15.6058 20H19.6058C20.7088 20 21.6058 19.103 21.6058 18V16ZM17.6058 15.5C17.4088 15.5001 17.2137 15.5389 17.0317 15.6144C16.8496 15.6899 16.6843 15.8005 16.545 15.9398C16.4057 16.0792 16.2952 16.2447 16.2199 16.4267C16.1445 16.6088 16.1058 16.804 16.1058 17.001C16.1059 17.198 16.1448 17.3932 16.2203 17.5752C16.2957 17.7572 16.4063 17.9226 16.5457 18.0619C16.6851 18.2012 16.8505 18.3116 17.0326 18.387C17.2147 18.4623 17.4098 18.5011 17.6068 18.501C18.0048 18.5009 18.3864 18.3427 18.6677 18.0612C18.949 17.7797 19.107 17.398 19.1068 17C19.1067 16.602 18.9485 16.2204 18.667 15.9391C18.3855 15.6578 18.0038 15.4999 17.6058 15.5Z" fill="#009DE2"/>
</svg>
