<svg width="32" height="32" viewBox="0 0 32 32" fill="none" xmlns="http://www.w3.org/2000/svg">
<path d="M26.0007 22V16C26.0007 14.8933 25.1073 14 24.0007 14H14.6673C13.5607 14 12.6673 14.8933 12.6673 16V22C11.934 22 11.334 22.6 11.334 23.3333C11.334 24.8 12.534 26 14.0007 26H24.6673C26.134 26 27.334 24.8 27.334 23.3333C27.334 22.6 26.734 22 26.0007 22ZM14.0007 16C14.0007 15.6267 14.294 15.3333 14.6673 15.3333H24.0007C24.374 15.3333 24.6673 15.6267 24.6673 16V22H14.0007V16ZM24.6673 24.6667H14.0007C13.2673 24.6667 12.6673 24.0667 12.6673 23.3333H26.0007C26.0007 24.0667 25.4007 24.6667 24.6673 24.6667Z" fill="#8D0247"/>
<path d="M22.894 8.68065C21.774 5.52065 18.7606 3.33398 15.374 3.33398C10.9606 3.33398 7.37398 6.92065 7.37398 11.334C7.37398 11.3607 7.37398 11.374 7.37398 11.4007C5.09398 11.7073 3.33398 13.6407 3.33398 16.0007C3.33398 18.574 5.42732 20.6673 8.00065 20.6673C8.86732 20.6673 9.70732 20.4273 10.4406 19.974C10.7473 19.774 10.854 19.374 10.654 19.054C10.4673 18.734 10.054 18.6407 9.73398 18.8407C9.21398 19.1607 8.61398 19.334 7.98732 19.334C6.14732 19.334 4.65398 17.8407 4.65398 16.0007C4.65398 14.1607 6.14732 12.6673 7.98732 12.6673C8.93398 12.6673 9.84065 13.0673 10.4673 13.774C10.7073 14.054 11.134 14.0673 11.414 13.8273C11.694 13.5873 11.7073 13.1607 11.4673 12.8807C10.7473 12.0673 9.76065 11.5607 8.69398 11.4007C8.69398 11.374 8.69398 11.3473 8.69398 11.3207C8.69398 7.64065 11.6806 4.65398 15.3606 4.65398C18.054 4.65398 20.4806 6.32065 21.5073 8.77398C20.3606 9.00065 19.3073 9.56065 18.454 10.414C18.1873 10.6807 18.1873 11.094 18.454 11.3607C18.7206 11.6273 19.134 11.6273 19.4006 11.3607C20.2806 10.4807 21.454 10.0007 22.694 10.0007C25.0673 10.0007 27.054 11.774 27.334 14.1207C27.374 14.454 27.6673 14.7073 28.0006 14.7073C28.0273 14.7073 28.054 14.7073 28.0806 14.7073C28.4406 14.6673 28.7073 14.334 28.6673 13.974C28.3206 11.014 25.8673 8.78732 22.894 8.68065Z" fill="black"/>
</svg>
