<svg width="18" height="18" viewBox="0 0 18 18" fill="none" xmlns="http://www.w3.org/2000/svg">
<g clip-path="url(#clip0_2023_12765)">
<path d="M18 12V18H12C9.78375 18 7.84875 16.7887 6.81 14.997C7.3754 14.993 7.93888 14.9306 8.4915 14.811C8.91206 15.3378 9.44582 15.7631 10.0532 16.0555C10.6605 16.3479 11.3259 16.4998 12 16.5H16.5V12C16.4998 11.3259 16.3479 10.6605 16.0555 10.0532C15.7631 9.44582 15.3378 8.91206 14.811 8.4915C14.928 7.9485 14.9925 7.38675 14.997 6.81C16.7887 7.84875 18 9.78375 18 12ZM13.5 6.75C13.5 3.02775 10.4722 0 6.75 0C3.02775 0 0 3.02775 0 6.75V13.5H6.75C10.4722 13.5 13.5 10.4722 13.5 6.75ZM1.5 6.75C1.5 3.85575 3.855 1.5 6.75 1.5C9.645 1.5 12 3.85575 12 6.75C12 9.64425 9.645 12 6.75 12H1.5V6.75ZM7.5 7.87875C7.5 7.64475 7.695 7.299 7.83525 7.22175C8.24721 6.99311 8.57749 6.64153 8.77998 6.21611C8.98247 5.79069 9.04707 5.31266 8.96475 4.84875C8.8808 4.39897 8.66272 3.98511 8.33918 3.66157C8.01564 3.33803 7.60178 3.11995 7.152 3.036C6.82703 2.97631 6.49288 2.98927 6.17351 3.07394C5.85414 3.15861 5.55746 3.3129 5.30475 3.52575C5.05265 3.73675 4.84998 4.00054 4.71105 4.29849C4.57212 4.59643 4.50033 4.92126 4.50075 5.25H6.00075C6.00088 5.11787 6.03594 4.98813 6.10239 4.87392C6.16884 4.75972 6.26431 4.66512 6.37912 4.59971C6.49392 4.53431 6.62398 4.50043 6.75611 4.5015C6.88823 4.50258 7.01772 4.53858 7.13144 4.60584C7.24517 4.67311 7.33908 4.76925 7.40366 4.88453C7.46824 4.9998 7.50119 5.1301 7.49916 5.26221C7.49714 5.39432 7.46021 5.52355 7.39213 5.63679C7.32405 5.75003 7.22723 5.84325 7.1115 5.907C6.47775 6.25575 6.00075 7.10325 6.00075 7.878V8.24925H7.50075V7.878L7.5 7.87875ZM7.5 9H6V10.5H7.5V9Z" fill="#8D0247"/>
</g>
<defs>
<clipPath id="clip0_2023_12765">
<rect width="18" height="18" fill="white"/>
</clipPath>
</defs>
</svg>
