<svg width="32" height="32" viewBox="0 0 32 32" fill="none" xmlns="http://www.w3.org/2000/svg">
<path d="M5.33464 15.334C5.70797 15.334 6.0013 15.0407 6.0013 14.6673V10.6673C6.0013 9.56065 6.89464 8.66732 8.0013 8.66732H10.668C11.0413 8.66732 11.3346 8.37398 11.3346 8.00065C11.3346 7.62732 11.0413 7.33398 10.668 7.33398H8.0013C6.1613 7.33398 4.66797 8.82732 4.66797 10.6673V14.6673C4.66797 15.0407 4.9613 15.334 5.33464 15.334Z" fill="black"/>
<path d="M26.6654 16.666C26.292 16.666 25.9987 16.9593 25.9987 17.3327V21.3327C25.9987 22.4393 25.1054 23.3327 23.9987 23.3327H11.9987C11.6254 23.3327 11.332 23.626 11.332 23.9993C11.332 24.3727 11.6254 24.666 11.9987 24.666H12.6654V27.3327H11.9987C11.6254 27.3327 11.332 27.626 11.332 27.9993C11.332 28.3727 11.6254 28.666 11.9987 28.666H19.9987C20.372 28.666 20.6654 28.3727 20.6654 27.9993C20.6654 27.626 20.372 27.3327 19.9987 27.3327H19.332V24.666H23.9987C25.8387 24.666 27.332 23.1727 27.332 21.3327V17.3327C27.332 16.9593 27.0387 16.666 26.6654 16.666ZM17.9987 27.3327H13.9987V24.666H17.9987V27.3327Z" fill="black"/>
<path d="M24.7343 6.92065C23.921 4.80065 21.8677 3.33398 19.561 3.33398C16.5477 3.33398 14.1077 5.74732 14.0277 8.73398C12.4943 9.04065 11.3477 10.3873 11.3477 12.0007C11.3477 13.8407 12.841 15.334 14.681 15.334H24.4543C26.7877 15.334 28.681 13.4407 28.681 11.1073C28.681 8.77398 26.9343 7.06732 24.7477 6.92065H24.7343ZM24.441 14.0007H14.6677C13.561 14.0007 12.6677 13.1073 12.6677 12.0007C12.6677 10.894 13.561 10.0007 14.6677 10.0007C15.4677 10.0007 16.201 10.4807 16.5077 11.2273C16.6543 11.5607 17.041 11.7207 17.3877 11.5873C17.721 11.4407 17.881 11.054 17.7477 10.7073C17.321 9.68065 16.4143 9.00065 15.361 8.77398C15.4277 6.50732 17.281 4.66732 19.5743 4.66732C21.201 4.66732 22.681 5.61398 23.3743 7.05398C22.6677 7.24065 22.0143 7.60065 21.481 8.13398C21.2143 8.40065 21.2143 8.81398 21.481 9.08065C21.7477 9.34732 22.161 9.34732 22.4277 9.08065C22.9743 8.53398 23.6943 8.24065 24.4677 8.24065C26.0543 8.24065 27.361 9.53399 27.361 11.134C27.361 12.734 26.0677 14.0273 24.4677 14.0273L24.441 14.0007Z" fill="#8D0247"/>
<path d="M11.3474 18.1864C11.1341 17.6264 10.5474 17.3197 9.96078 17.4797C9.66745 17.5597 9.24078 17.5997 8.81411 17.3864C8.64078 17.3064 8.49411 17.1864 8.36078 17.0397C7.92078 16.5597 7.09411 16.5597 6.66745 17.0397C6.53411 17.1864 6.38745 17.293 6.21411 17.3864C5.78745 17.5997 5.34745 17.5464 5.06745 17.4797C4.49411 17.333 3.89411 17.6397 3.68078 18.1864C3.36078 19.0264 2.97411 20.6797 3.92078 22.333C4.94745 24.1464 6.78745 24.573 7.32078 24.653C7.38745 24.653 7.45411 24.6664 7.52078 24.6664C7.58745 24.6664 7.64078 24.6664 7.69411 24.653C8.22745 24.5597 10.0808 24.133 11.1074 22.333C12.0541 20.6797 11.6674 19.0264 11.3474 18.1864ZM9.94745 21.6664C9.21411 22.9597 7.86745 23.2664 7.54745 23.333C7.16078 23.2664 5.81411 22.9597 5.08078 21.6664C4.45411 20.573 4.65411 19.453 4.88078 18.7997C5.38745 18.9064 6.08078 18.933 6.81411 18.573C7.06745 18.4397 7.30745 18.2797 7.52078 18.0797C7.73411 18.2797 7.96078 18.453 8.22745 18.573C8.94745 18.933 9.65411 18.9064 10.1608 18.7997C10.3741 19.453 10.5874 20.573 9.96078 21.6664H9.94745Z" fill="black"/>
</svg>
