<svg width="17" height="17" viewBox="0 0 17 17" fill="none" xmlns="http://www.w3.org/2000/svg">
<g clip-path="url(#clip0_1722_5870)">
<path d="M13.7221 0H5.41217C4.48993 0 3.73967 0.708322 3.73967 1.57895V2.10526H2.59019C1.95996 2.10526 1.44727 2.61796 1.44727 3.24819V15.6992C1.44727 16.3294 1.95996 16.8421 2.59019 16.8421H11.9593C12.5895 16.8421 13.1022 16.3294 13.1022 15.6992V14.7368H13.7221C14.6443 14.7368 15.3946 14.0285 15.3946 13.1579V1.57895C15.3946 0.708322 14.6443 0 13.7221 0ZM12.0496 15.6992C12.0496 15.7231 12.0401 15.7461 12.0231 15.763C12.0062 15.7799 11.9832 15.7894 11.9593 15.7895H2.59019C2.56625 15.7894 2.5433 15.7799 2.52637 15.763C2.50945 15.7461 2.49992 15.7231 2.4999 15.6992V3.24819C2.49992 3.22425 2.50945 3.2013 2.52637 3.18437C2.5433 3.16744 2.56625 3.15792 2.59019 3.15789H11.9593C11.9832 3.15792 12.0062 3.16744 12.0231 3.18437C12.0401 3.2013 12.0496 3.22425 12.0496 3.24819V15.6992ZM14.342 13.1579C14.342 13.4481 14.0639 13.6842 13.7221 13.6842H13.1022V3.24819C13.1022 2.61796 12.5895 2.10526 11.9593 2.10526H4.7923V1.57895C4.7923 1.28875 5.07039 1.05263 5.41217 1.05263H13.7221C14.0639 1.05263 14.342 1.28875 14.342 1.57895V13.1579Z" fill="#8D0247"/>
<path d="M9.86811 7.10537H4.86811C4.57745 7.10537 4.3418 6.86971 4.3418 6.57905C4.3418 6.28839 4.57745 6.05273 4.86811 6.05273H9.86811C10.1588 6.05273 10.3944 6.28839 10.3944 6.57905C10.3944 6.86971 10.1588 7.10537 9.86811 7.10537ZM9.86811 9.21063H4.86811C4.57745 9.21063 4.3418 8.97497 4.3418 8.68431C4.3418 8.39366 4.57745 8.158 4.86811 8.158H9.86811C10.1588 8.158 10.3944 8.39366 10.3944 8.68431C10.3944 8.97497 10.1588 9.21063 9.86811 9.21063ZM9.86811 11.3159H4.86811C4.57745 11.3159 4.3418 11.0802 4.3418 10.7896C4.3418 10.4989 4.57745 10.2633 4.86811 10.2633H9.86811C10.1588 10.2633 10.3944 10.4989 10.3944 10.7896C10.3944 11.0802 10.1588 11.3159 9.86811 11.3159Z" fill="#8D0247"/>
</g>
<defs>
<clipPath id="clip0_1722_5870">
<rect width="16.8421" height="16.8421" fill="white"/>
</clipPath>
</defs>
</svg>
