<svg width="32" height="32" viewBox="0 0 32 32" fill="none" xmlns="http://www.w3.org/2000/svg">
<path d="M6.66585 11.334C6.89252 11.334 7.09252 11.2273 7.22585 11.0407L9.11918 8.20065C9.75918 7.22732 9.82585 5.98732 9.27918 4.93398C8.75918 3.94732 7.81252 3.34732 6.67918 3.33398C6.31918 3.33398 5.95918 3.38732 5.62585 3.50732C4.78585 3.78732 4.13251 4.45398 3.83918 5.32065C3.51918 6.26732 3.65251 7.32065 4.19918 8.13398L6.13251 11.0273C6.25251 11.214 6.46585 11.3207 6.69252 11.3207L6.66585 11.334ZM5.07918 5.76065C5.23918 5.28065 5.58585 4.93398 6.03918 4.77398C6.23918 4.70732 6.45252 4.66732 6.69252 4.66732C7.29252 4.66732 7.79918 5.00065 8.07918 5.54732C8.39918 6.16065 8.37252 6.89398 7.98585 7.45398L6.65251 9.46732L5.27918 7.40065C4.95918 6.92065 4.87918 6.30732 5.06585 5.74732L5.07918 5.76065Z" fill="black"/>
<path d="M7.36068 6.66667C7.36068 6.29333 7.06734 6 6.69401 6C6.32068 6 6.02734 6.29333 6.02734 6.66667C6.02734 7.04 6.33401 7.33333 6.69401 7.33333C7.05401 7.33333 7.36068 7.04 7.36068 6.66667Z" fill="black"/>
<path d="M27.9468 22.266C27.4268 21.2793 26.4801 20.6793 25.3335 20.666C24.9735 20.666 24.6135 20.7193 24.2801 20.8393C23.4401 21.1193 22.7868 21.786 22.4935 22.6527C22.1735 23.5993 22.3068 24.6527 22.8535 25.4794L24.7868 28.3727C24.9068 28.5594 25.1201 28.666 25.3468 28.666C25.5735 28.666 25.7735 28.5594 25.9068 28.3727L27.8001 25.5327C28.4401 24.5593 28.5068 23.3194 27.9601 22.266H27.9468ZM26.6668 24.786L25.3335 26.7993L23.9601 24.7327C23.6401 24.2527 23.5601 23.6393 23.7468 23.0793C23.9068 22.5993 24.2535 22.2527 24.7068 22.0927C24.9068 22.026 25.1201 21.986 25.3735 21.986C25.9735 21.986 26.4801 22.3193 26.7601 22.8793C27.0801 23.4927 27.0535 24.226 26.6668 24.786Z" fill="black"/>
<path d="M25.36 23.334C24.9867 23.334 24.6934 23.6273 24.6934 24.0007C24.6934 24.374 25 24.6673 25.36 24.6673C25.72 24.6673 26.0267 24.374 26.0267 24.0007C26.0267 23.6273 25.7334 23.334 25.36 23.334Z" fill="black"/>
<path d="M12.668 13.3327V19.9993C12.668 20.3727 12.9613 20.666 13.3346 20.666C13.708 20.666 14.0013 20.3727 14.0013 19.9993V13.3327C14.0013 12.9593 13.708 12.666 13.3346 12.666C12.9613 12.666 12.668 12.9593 12.668 13.3327Z" fill="black"/>
<path d="M17.9987 12.666H17.332C16.2254 12.666 15.332 13.5593 15.332 14.666V19.9993C15.332 20.3727 15.6254 20.666 15.9987 20.666C16.372 20.666 16.6654 20.3727 16.6654 19.9993V17.9993H17.9987C19.4654 17.9993 20.6654 16.7993 20.6654 15.3327C20.6654 13.866 19.4654 12.666 17.9987 12.666ZM17.9987 16.666H16.6654V14.666C16.6654 14.2927 16.9587 13.9993 17.332 13.9993H17.9987C18.732 13.9993 19.332 14.5993 19.332 15.3327C19.332 16.066 18.732 16.666 17.9987 16.666Z" fill="black"/>
<path d="M12 7.33333H20C22.5733 7.33333 24.6666 9.42667 24.6666 12V15.72L24.4666 15.52C24.2 15.2533 23.7866 15.2533 23.52 15.52C23.2533 15.7867 23.2533 16.2 23.52 16.4667L24.8533 17.8C24.9866 17.9333 25.16 18 25.32 18C25.48 18 25.6666 17.9333 25.7866 17.8L27.12 16.4667C27.3866 16.2 27.3866 15.7867 27.12 15.52C26.8533 15.2533 26.44 15.2533 26.1733 15.52L25.9733 15.72V12C25.9733 8.69333 23.28 6 19.9733 6H11.9733C11.6 6 11.3066 6.29333 11.3066 6.66667C11.3066 7.04 11.6 7.33333 11.9733 7.33333H12Z" fill="#8D0247"/>
<path d="M20.001 24.6667H12.001C9.42763 24.6667 7.3343 22.5733 7.3343 20V16.28L7.5343 16.48C7.66763 16.6133 7.84096 16.68 8.00096 16.68C8.16096 16.68 8.34763 16.6133 8.46763 16.48C8.7343 16.2133 8.7343 15.8 8.46763 15.5333L7.1343 14.2C6.86763 13.9333 6.4543 13.9333 6.18763 14.2L4.8543 15.5333C4.58763 15.8 4.58763 16.2133 4.8543 16.48C5.12096 16.7467 5.5343 16.7467 5.80096 16.48L6.00096 16.28V20C6.00096 23.3067 8.6943 26 12.001 26H20.001C20.3743 26 20.6676 25.7067 20.6676 25.3333C20.6676 24.96 20.3743 24.6667 20.001 24.6667Z" fill="#8D0247"/>
</svg>
