<svg width="18" height="18" viewBox="0 0 18 18" fill="none" xmlns="http://www.w3.org/2000/svg">
<path d="M8.25 17.25C8.25 17.4489 8.17098 17.6397 8.03033 17.7803C7.88968 17.921 7.69891 18 7.5 18H3.75C1.68225 18 0 16.3177 0 14.25V3.75C0 1.68225 1.68225 0 3.75 0H7.5C7.69891 0 7.88968 0.0790176 8.03033 0.21967C8.17098 0.360322 8.25 0.551088 8.25 0.75C8.25 0.948912 8.17098 1.13968 8.03033 1.28033C7.88968 1.42098 7.69891 1.5 7.5 1.5H3.75C2.5095 1.5 1.5 2.5095 1.5 3.75V12H6.75C6.94891 12 7.13968 12.079 7.28033 12.2197C7.42098 12.3603 7.5 12.5511 7.5 12.75C7.5 12.9489 7.42098 13.1397 7.28033 13.2803C7.13968 13.421 6.94891 13.5 6.75 13.5H1.5V14.25C1.5 15.4905 2.5095 16.5 3.75 16.5H7.5C7.69891 16.5 7.88968 16.579 8.03033 16.7197C8.17098 16.8603 8.25 17.0511 8.25 17.25ZM6.75 14.25H5.25C5.05109 14.25 4.86032 14.329 4.71967 14.4697C4.57902 14.6103 4.5 14.8011 4.5 15C4.5 15.1989 4.57902 15.3897 4.71967 15.5303C4.86032 15.671 5.05109 15.75 5.25 15.75H6.75C6.94891 15.75 7.13968 15.671 7.28033 15.5303C7.42098 15.3897 7.5 15.1989 7.5 15C7.5 14.8011 7.42098 14.6103 7.28033 14.4697C7.13968 14.329 6.94891 14.25 6.75 14.25ZM18 2.25V6C18 6.59674 17.7629 7.16903 17.341 7.59099C16.919 8.01295 16.3467 8.25 15.75 8.25H9.0645C8.91689 8.25053 8.77193 8.21086 8.64516 8.13525C8.51838 8.05964 8.41459 7.95095 8.3449 7.82083C8.27522 7.69071 8.24227 7.54407 8.2496 7.39664C8.25693 7.24922 8.30425 7.10657 8.3865 6.984L9.75 5.13975V2.25C9.75 1.65326 9.98705 1.08097 10.409 0.65901C10.831 0.237053 11.4033 0 12 0L15.75 0C16.3467 0 16.919 0.237053 17.341 0.65901C17.7629 1.08097 18 1.65326 18 2.25ZM15.978 6.483L14.9557 2.022C14.8755 1.674 14.6535 1.3575 14.3243 1.2195C14.174 1.15268 14.0108 1.11985 13.8464 1.12335C13.682 1.12684 13.5204 1.16657 13.3732 1.23971C13.2259 1.31285 13.0965 1.41759 12.9944 1.54646C12.8923 1.67533 12.8198 1.82516 12.7822 1.98525L11.7225 6.48C11.7042 6.54791 11.6998 6.6188 11.7095 6.68846C11.7191 6.75812 11.7427 6.82513 11.7787 6.88551C11.8148 6.94589 11.8626 6.99841 11.9193 7.03995C11.9761 7.08149 12.0406 7.11122 12.1091 7.12735C12.1775 7.14348 12.2485 7.1457 12.3178 7.13386C12.3871 7.12203 12.4534 7.09639 12.5126 7.05847C12.5718 7.02054 12.6228 6.97111 12.6626 6.91309C12.7023 6.85508 12.73 6.78967 12.744 6.72075L12.9495 5.85H14.7562L14.955 6.71775C14.9816 6.83348 15.0467 6.93675 15.1396 7.01072C15.2325 7.08469 15.3477 7.12497 15.4665 7.125H15.468C15.5469 7.12496 15.6247 7.10715 15.6957 7.07289C15.7668 7.03864 15.8292 6.98882 15.8783 6.92715C15.9275 6.86547 15.9621 6.79351 15.9796 6.71662C15.9971 6.63973 15.9971 6.55988 15.9795 6.483H15.978ZM13.8307 2.175C13.8169 2.17486 13.8035 2.17948 13.7927 2.18809C13.7819 2.19669 13.7744 2.20876 13.7715 2.22225L13.1813 4.8H14.499L13.8907 2.22225C13.8877 2.20883 13.8802 2.19684 13.8694 2.18825C13.8586 2.17967 13.8445 2.175 13.8307 2.175ZM18 12V15.75C18 16.3467 17.7629 16.919 17.341 17.341C16.919 17.7629 16.3467 18 15.75 18H12C11.4033 18 10.831 17.7629 10.409 17.341C9.98705 16.919 9.75 16.3467 9.75 15.75V12.8602L8.3865 11.016C8.30425 10.8934 8.25693 10.7508 8.2496 10.6034C8.24227 10.4559 8.27522 10.3093 8.3449 10.1792C8.41459 10.0491 8.51838 9.94036 8.64516 9.86475C8.77193 9.78914 8.91689 9.74947 9.0645 9.75H15.75C16.3467 9.75 16.919 9.98705 17.341 10.409C17.7629 10.831 18 11.4033 18 12ZM16.5 12.087C16.5 11.9645 16.4513 11.847 16.3647 11.7603C16.278 11.6737 16.1605 11.625 16.038 11.625H14.3453V11.337C14.3453 11.2145 14.2966 11.097 14.2099 11.0103C14.1233 10.9237 14.0058 10.875 13.8832 10.875H13.8675C13.745 10.875 13.6275 10.9237 13.5408 11.0103C13.4542 11.097 13.4055 11.2145 13.4055 11.337V11.625H11.7127C11.5902 11.625 11.4727 11.6737 11.3861 11.7603C11.2994 11.847 11.2508 11.9645 11.2508 12.087V12.1027C11.2508 12.3577 11.4577 12.5648 11.7127 12.5648H14.856C14.7728 13.287 14.493 14.178 13.8787 14.868C13.6759 14.64 13.5017 14.3881 13.3597 14.118C13.3203 14.044 13.2613 13.9822 13.1893 13.9392C13.1173 13.8963 13.0349 13.8738 12.951 13.8743C12.8712 13.8741 12.7928 13.8944 12.7232 13.9333C12.6535 13.9722 12.5951 14.0284 12.5534 14.0964C12.5118 14.1644 12.4883 14.242 12.4853 14.3217C12.4823 14.4014 12.4998 14.4805 12.5363 14.5515C12.705 14.874 12.912 15.1838 13.1588 15.4665C12.7545 15.7125 12.267 15.8857 11.676 15.9427C11.5604 15.9526 11.4526 16.0053 11.3738 16.0905C11.295 16.1757 11.2509 16.2872 11.25 16.4032V16.419C11.25 16.6928 11.487 16.905 11.7592 16.8795C12.6187 16.7992 13.3185 16.5157 13.8832 16.113C14.445 16.5127 15.1365 16.7978 15.9893 16.8795C16.0536 16.886 16.1186 16.8789 16.18 16.8588C16.2415 16.8387 16.2981 16.8059 16.3461 16.7626C16.3941 16.7193 16.4326 16.6664 16.4589 16.6074C16.4853 16.5483 16.4991 16.4844 16.4993 16.4198V16.404C16.4994 16.2893 16.4569 16.1787 16.3799 16.0937C16.303 16.0087 16.1971 15.9554 16.083 15.9443C15.5568 15.9006 15.0477 15.7367 14.595 15.465C15.3375 14.6138 15.7087 13.5217 15.8002 12.5655H16.0373C16.2922 12.5655 16.4993 12.3585 16.4993 12.1035V12.0878L16.5 12.087Z" fill="#8D0247"/>
</svg>
