<svg width="24" height="24" viewBox="0 0 24 24" fill="none" xmlns="http://www.w3.org/2000/svg">
<g clip-path="url(#clip0_4962_38188)">
<path d="M20.0002 15H19.0152L23.8402 7.543C23.9842 7.32022 24.0339 7.04935 23.9782 6.78999C23.9225 6.53063 23.766 6.30401 23.5432 6.16C23.4329 6.08869 23.3096 6.03981 23.1804 6.01614C23.0512 5.99248 22.9186 5.99449 22.7902 6.02207C22.5309 6.07777 22.3042 6.23422 22.1602 6.457L16.6432 15H7.35723L1.84023 6.457C1.69622 6.23422 1.4696 6.07777 1.21024 6.02207C0.950876 5.96637 0.68001 6.01599 0.457228 6.16C0.234446 6.30401 0.0779979 6.53063 0.0222996 6.78999C-0.0333987 7.04935 0.0162157 7.32022 0.160228 7.543L4.98523 15H4.00023C1.79423 15 0.000228273 16.794 0.000228273 19V20C0.000228273 22.206 1.79423 24 4.00023 24H20.0002C22.2062 24 24.0002 22.206 24.0002 20V19C24.0002 16.794 22.2062 15 20.0002 15ZM22.0002 20C22.0002 21.103 21.1032 22 20.0002 22H4.00023C2.89723 22 2.00023 21.103 2.00023 20V19C2.00023 17.897 2.89723 17 4.00023 17H20.0002C21.1032 17 22.0002 17.897 22.0002 19V20ZM7.00023 19.5C7.00016 19.697 6.96129 19.8922 6.88582 20.0742C6.81035 20.2562 6.69977 20.4216 6.56039 20.5609C6.42101 20.7002 6.25556 20.8106 6.07348 20.886C5.89141 20.9613 5.69628 21.0001 5.49923 21C5.30218 20.9999 5.10707 20.9611 4.92505 20.8856C4.74303 20.8101 4.57765 20.6995 4.43836 20.5602C4.29907 20.4208 4.1886 20.2553 4.11326 20.0733C4.03791 19.8912 3.99916 19.696 3.99923 19.499C3.99936 19.101 4.15758 18.7194 4.43907 18.4381C4.72056 18.1568 5.10227 17.9989 5.50023 17.999C5.89819 17.9991 6.27979 18.1573 6.5611 18.4388C6.8424 18.7203 7.00036 19.102 7.00023 19.5ZM11.0002 19.5C11.0001 19.898 10.8419 20.2796 10.5604 20.5609C10.2789 20.8422 9.89719 21.0001 9.49923 21C9.10127 20.9999 8.71967 20.8417 8.43836 20.5602C8.15706 20.2787 7.9991 19.897 7.99923 19.499C7.9993 19.302 8.03817 19.1068 8.11364 18.9248C8.18911 18.7428 8.29969 18.5774 8.43907 18.4381C8.57845 18.2988 8.7439 18.1884 8.92597 18.113C9.10805 18.0377 9.30318 17.9989 9.50023 17.999C9.69728 17.9991 9.89238 18.0379 10.0744 18.1134C10.2564 18.1889 10.4218 18.2995 10.5611 18.4388C10.7004 18.5782 10.8109 18.7437 10.8862 18.9257C10.9615 19.1078 11.0003 19.303 11.0002 19.5ZM15.9432 7.302C13.6522 5.599 10.3472 5.599 8.05623 7.302C7.95097 7.38033 7.83132 7.43717 7.7041 7.46926C7.57688 7.50135 7.44459 7.50807 7.31477 7.48904C7.18496 7.47 7.06016 7.42558 6.94751 7.35831C6.83486 7.29105 6.73656 7.20225 6.65823 7.097C6.5799 6.99175 6.52306 6.87209 6.49097 6.74487C6.45888 6.61765 6.45216 6.48536 6.47119 6.35554C6.49023 6.22573 6.53465 6.10093 6.60191 5.98828C6.66918 5.87563 6.75797 5.77733 6.86323 5.699C8.35523 4.588 10.1322 4.001 12.0002 4.001C13.8682 4.001 15.6452 4.588 17.1372 5.699C17.2425 5.77733 17.3313 5.87563 17.3985 5.98828C17.4658 6.10093 17.5102 6.22573 17.5293 6.35554C17.5483 6.48536 17.5416 6.61765 17.5095 6.74487C17.4774 6.87209 17.4206 6.99175 17.3422 7.097C17.2639 7.20225 17.1656 7.29105 17.0529 7.35831C16.9403 7.42558 16.8155 7.47 16.6857 7.48904C16.5559 7.50807 16.4236 7.50135 16.2964 7.46926C16.1691 7.43717 16.0495 7.38033 15.9442 7.302H15.9432ZM14.3012 8.647C14.4133 8.71548 14.5108 8.80537 14.5882 8.91154C14.6655 9.0177 14.7212 9.13806 14.752 9.26574C14.7828 9.39342 14.7882 9.52592 14.7678 9.65568C14.7475 9.78544 14.7017 9.90992 14.6332 10.022C14.5647 10.1341 14.4749 10.2316 14.3687 10.3089C14.2625 10.3863 14.1422 10.4419 14.0145 10.4728C13.8868 10.5036 13.7543 10.509 13.6245 10.4886C13.4948 10.4682 13.3703 10.4225 13.2582 10.354C12.8776 10.1267 12.4425 10.0068 11.9992 10.0068C11.5559 10.0068 11.1209 10.1267 10.7402 10.354C10.6281 10.4225 10.5037 10.4682 10.3739 10.4886C10.2442 10.509 10.1117 10.5036 9.98397 10.4728C9.85629 10.4419 9.73593 10.3863 9.62977 10.3089C9.5236 10.2316 9.43371 10.1341 9.36523 10.022C9.29674 9.90992 9.25101 9.78544 9.23063 9.65568C9.21025 9.52592 9.21563 9.39342 9.24646 9.26574C9.27729 9.13806 9.33296 9.0177 9.41031 8.91154C9.48765 8.80537 9.58514 8.71548 9.69723 8.647C11.0822 7.801 12.9162 7.801 14.3012 8.647ZM4.10923 4.127C3.94294 3.92039 3.86554 3.6562 3.89404 3.39252C3.92255 3.12885 4.05463 2.88729 4.26123 2.721C6.44123 0.967 9.19023 0 12.0002 0C14.8102 0 17.5592 0.967 19.7382 2.721C19.8413 2.80307 19.9272 2.9047 19.9909 3.02007C20.0546 3.13543 20.0949 3.26225 20.1094 3.39323C20.1239 3.52421 20.1124 3.65677 20.0755 3.78329C20.0387 3.9098 19.9771 4.02778 19.8945 4.13044C19.8119 4.2331 19.7098 4.31842 19.5941 4.38149C19.4784 4.44455 19.3513 4.48413 19.2203 4.49793C19.0892 4.51174 18.9567 4.4995 18.8304 4.46193C18.7041 4.42436 18.5864 4.36219 18.4842 4.279C16.6582 2.809 14.3552 2 12.0002 2C9.64523 2 7.34223 2.81 5.51623 4.279C5.30942 4.44477 5.04535 4.52185 4.78184 4.49337C4.51832 4.46488 4.27583 4.33314 4.10923 4.127Z" fill="#8D0247"/>
</g>
<defs>
<clipPath id="clip0_4962_38188">
<rect width="24" height="24" fill="white"/>
</clipPath>
</defs>
</svg>
