<svg width="26" height="22" viewBox="0 0 26 22" fill="none" xmlns="http://www.w3.org/2000/svg">
<path d="M20.1803 8.65828C20.1803 11.8437 17.6211 14.4259 14.4642 14.4259C11.3072 14.4259 8.74805 11.8437 8.74805 8.65828C8.74805 5.47289 11.3072 2.89062 14.4642 2.89062C17.6211 2.89062 20.1803 5.47289 20.1803 8.65828Z" fill="#F97316" stroke="#F97316" stroke-width="1.27657"/>
<ellipse cx="10.8274" cy="13.377" rx="5.71611" ry="5.76765" fill="white" stroke="#F97316" stroke-width="1.27657"/>
<path d="M10.8428 17.0496C10.6984 17.0496 10.5763 16.9983 10.4767 16.8956C10.377 16.7929 10.3272 16.6645 10.3272 16.5104V15.9404L10.5514 16.1484C10.2176 16.133 9.92869 16.0894 9.68459 16.0175C9.44049 15.9456 9.24123 15.8737 9.0868 15.8018C8.95728 15.7402 8.86512 15.6529 8.81032 15.5399C8.7605 15.4269 8.74057 15.3114 8.75054 15.1933C8.76548 15.0752 8.80783 14.9673 8.87757 14.8698C8.94731 14.7722 9.03698 14.708 9.14658 14.6772C9.26115 14.6413 9.39317 14.6567 9.54262 14.7234C9.64225 14.7799 9.7917 14.839 9.99096 14.9006C10.1952 14.9571 10.4468 14.9853 10.7457 14.9853C10.9549 14.9853 11.1193 14.9648 11.2389 14.9237C11.3634 14.8826 11.4506 14.8287 11.5004 14.7619C11.5552 14.69 11.5826 14.613 11.5826 14.5309C11.5826 14.4538 11.5627 14.3896 11.5228 14.3383C11.4879 14.2818 11.4282 14.233 11.3435 14.1919C11.2588 14.1457 11.1417 14.1046 10.9923 14.0687L10.1479 13.8838C9.68459 13.776 9.33837 13.5963 9.10922 13.3446C8.88504 13.0879 8.77296 12.7567 8.77296 12.351C8.77296 12.0429 8.84519 11.7682 8.98966 11.5268C9.13911 11.2803 9.34584 11.0801 9.60987 10.926C9.87888 10.772 10.1927 10.6744 10.5514 10.6333L10.3272 10.7643V10.2482C10.3272 10.0941 10.377 9.96574 10.4767 9.86304C10.5763 9.76034 10.6984 9.70898 10.8428 9.70898C10.9923 9.70898 11.1168 9.76034 11.2164 9.86304C11.3161 9.96574 11.3659 10.0941 11.3659 10.2482V10.7643L11.1417 10.6179C11.331 10.623 11.5353 10.6564 11.7545 10.718C11.9737 10.7745 12.1654 10.8541 12.3298 10.9568C12.4444 11.0184 12.5241 11.1032 12.569 11.211C12.6188 11.3188 12.6362 11.4292 12.6213 11.5422C12.6113 11.6501 12.5714 11.7476 12.5017 11.8349C12.4369 11.9222 12.3473 11.9813 12.2327 12.0121C12.1231 12.0378 11.9911 12.0172 11.8367 11.9505C11.7221 11.8991 11.5926 11.858 11.4481 11.8272C11.3086 11.7913 11.1293 11.7733 10.9101 11.7733C10.646 11.7733 10.4418 11.8221 10.2973 11.9197C10.1578 12.0172 10.0881 12.143 10.0881 12.2971C10.0881 12.3998 10.128 12.4871 10.2077 12.559C10.2924 12.6257 10.4443 12.6848 10.6635 12.7361L11.5153 12.9287C11.9886 13.0365 12.3373 13.2163 12.5615 13.4679C12.7906 13.7144 12.9052 14.0353 12.9052 14.4307C12.9052 14.7388 12.833 15.011 12.6885 15.2472C12.544 15.4834 12.3423 15.676 12.0832 15.8249C11.8292 15.9738 11.5328 16.0714 11.194 16.1176L11.3659 15.9327V16.5104C11.3659 16.6645 11.3161 16.7929 11.2164 16.8956C11.1218 16.9983 10.9973 17.0496 10.8428 17.0496Z" fill="#F97316"/>
<path d="M0.952753 5.3322L1.42208 8.76542L4.82815 8.29956" stroke="#F97316" stroke-width="1.91204" stroke-linecap="round" stroke-linejoin="round"/>
<path d="M7.30142 0.959584L1.42058 8.76635" stroke="#F97316" stroke-width="1.91204" stroke-linecap="round" stroke-linejoin="round"/>
<path d="M24.5761 16.3026L24.1449 12.8635L20.7331 13.2981" stroke="#F97316" stroke-width="1.91204" stroke-linecap="round" stroke-linejoin="round"/>
<path d="M18.1853 20.6106L24.1466 12.8632" stroke="#F97316" stroke-width="1.91204" stroke-linecap="round" stroke-linejoin="round"/>
</svg>
