<svg width="20" height="20" viewBox="0 0 20 20" fill="none" xmlns="http://www.w3.org/2000/svg">
<path d="M16.2493 10.4163C16.2493 9.26634 17.1827 8.33301 18.3327 8.33301V7.49967C18.3327 4.16634 17.4993 3.33301 14.166 3.33301H5.83268C2.49935 3.33301 1.66602 4.16634 1.66602 7.49967V7.91634C2.81602 7.91634 3.74935 8.84967 3.74935 9.99967C3.74935 11.1497 2.81602 12.083 1.66602 12.083V12.4997C1.66602 15.833 2.49935 16.6663 5.83268 16.6663H14.166C17.4993 16.6663 18.3327 15.833 18.3327 12.4997C17.1827 12.4997 16.2493 11.5663 16.2493 10.4163Z" stroke="#8D0247" stroke-width="1.5" stroke-linecap="round" stroke-linejoin="round"/>
<path d="M8.33398 3.33301L8.33399 16.6663" stroke="#8D0247" stroke-width="1.5" stroke-linecap="round" stroke-linejoin="round" stroke-dasharray="5 5"/>
</svg>
