<svg width="18" height="18" viewBox="0 0 18 18" fill="none" xmlns="http://www.w3.org/2000/svg">
<g clip-path="url(#clip0_2023_12711)">
<path d="M5.53583 9.95753C4.88333 9.95753 4.27658 9.66577 3.87008 9.15578C3.66991 8.90664 3.5288 8.61538 3.45736 8.30388C3.38591 7.99238 3.38599 7.66874 3.45758 7.35727C3.67133 6.41452 3.94208 5.21077 4.17833 4.12927C4.75283 1.50427 6.51008 -0.000976562 8.99933 -0.000976562C9.37658 -0.000976562 9.73058 0.0447734 10.0733 0.113023C9.71616 0.540211 9.43989 1.02896 9.25808 1.55527C9.16958 1.55002 9.09308 1.53127 8.99933 1.53127C6.78083 1.53127 5.96708 3.12202 5.67458 4.45702C5.43739 5.53743 5.19614 6.61693 4.95083 7.69552C4.9304 7.78278 4.93019 7.87355 4.95021 7.9609C4.97023 8.04825 5.00995 8.12987 5.06633 8.19952C5.13308 8.28352 5.28383 8.42452 5.53508 8.42452H12.4628C12.553 8.4253 12.6421 8.40542 12.7233 8.36642C12.8046 8.32742 12.8758 8.27033 12.9316 8.19952C13.0163 8.11852 13.1123 7.84627 13.0298 7.62052C13.2151 7.64302 13.4026 7.65877 13.5946 7.65877C13.9268 7.65877 14.2508 7.62127 14.5628 7.55452C14.6378 8.12527 14.4931 8.69902 14.1286 9.15502C13.9295 9.40576 13.6762 9.60815 13.3877 9.747C13.0992 9.88586 12.783 9.95758 12.4628 9.95677H10.5308C10.5308 10.3632 10.3694 10.7529 10.082 11.0402C9.79469 11.3276 9.40496 11.489 8.99858 11.489C8.5922 11.489 8.20247 11.3276 7.91512 11.0402C7.62777 10.7529 7.46633 10.3632 7.46633 9.95677H5.53433L5.53583 9.95753ZM5.17058 17.6165H16.6598V16.0843H5.17058V17.6165ZM2.48933 15.7018C2.1846 15.7018 1.89235 15.8228 1.67687 16.0383C1.46139 16.2538 1.34033 16.546 1.34033 16.8508C1.34033 17.1555 1.46139 17.4478 1.67687 17.6632C1.89235 17.8787 2.1846 17.9998 2.48933 17.9998C2.79407 17.9998 3.08632 17.8787 3.3018 17.6632C3.51728 17.4478 3.63833 17.1555 3.63833 16.8508C3.63833 16.546 3.51728 16.2538 3.3018 16.0383C3.08632 15.8228 2.79407 15.7018 2.48933 15.7018ZM5.17058 13.787H16.6598V12.2548H5.17058V13.787ZM2.48933 11.8723C2.33844 11.8723 2.18903 11.902 2.04963 11.9597C1.91023 12.0175 1.78356 12.1021 1.67687 12.2088C1.57017 12.3155 1.48554 12.4422 1.42779 12.5816C1.37005 12.721 1.34033 12.8704 1.34033 13.0213C1.34033 13.1722 1.37005 13.3216 1.42779 13.461C1.48554 13.6004 1.57017 13.727 1.67687 13.8337C1.78356 13.9404 1.91023 14.0251 2.04963 14.0828C2.18903 14.1406 2.33844 14.1703 2.48933 14.1703C2.79407 14.1703 3.08632 14.0492 3.3018 13.8337C3.51728 13.6183 3.63833 13.326 3.63833 13.0213C3.63833 12.7165 3.51728 12.4243 3.3018 12.2088C3.08632 11.9933 2.79407 11.8723 2.48933 11.8723ZM10.5323 3.06352C10.5323 1.37452 11.9071 -0.000226562 13.5961 -0.000226562C15.2851 -0.000226562 16.6598 1.37452 16.6598 3.06352C16.6598 4.75252 15.2851 6.12727 13.5961 6.12727C11.9071 6.12727 10.5323 4.75252 10.5323 3.06352ZM12.0638 3.06352C12.0638 3.90802 12.7508 4.59577 13.5961 4.59577C14.4413 4.59577 15.1283 3.90877 15.1283 3.06352C15.1283 2.21827 14.4413 1.53127 13.5961 1.53127C12.7508 1.53127 12.0638 2.21827 12.0638 3.06352Z" fill="#8D0247"/>
</g>
<defs>
<clipPath id="clip0_2023_12711">
<rect width="18" height="18" fill="white"/>
</clipPath>
</defs>
</svg>
