<svg width="32" height="32" viewBox="0 0 32 32" fill="none" xmlns="http://www.w3.org/2000/svg">
<path d="M23.9987 23.334C23.6254 23.334 23.332 23.6273 23.332 24.0007C23.332 25.8407 21.8387 27.334 19.9987 27.334H11.9987C10.1587 27.334 8.66536 25.8407 8.66536 24.0007V8.00065C8.66536 6.16065 10.1587 4.66732 11.9987 4.66732H19.9987C21.412 4.66732 22.6654 5.56065 23.1454 6.89398C23.2654 7.24065 23.652 7.42732 23.9987 7.29398C24.3454 7.17398 24.532 6.78732 24.3987 6.44065C23.7454 4.57398 21.972 3.33398 19.9987 3.33398H11.9987C9.42536 3.33398 7.33203 5.42732 7.33203 8.00065V24.0007C7.33203 26.574 9.42536 28.6673 11.9987 28.6673H19.9987C22.572 28.6673 24.6654 26.574 24.6654 24.0007C24.6654 23.6273 24.372 23.334 23.9987 23.334Z" fill="black"/>
<path d="M16.0124 6C15.639 6 15.3457 6.29333 15.3457 6.66667C15.3457 7.04 15.6524 7.33333 16.0124 7.33333C16.3724 7.33333 16.679 7.04 16.679 6.66667C16.679 6.29333 16.3857 6 16.0124 6Z" fill="black"/>
<path d="M14.6667 24.6673H17.3333C17.7067 24.6673 18 24.374 18 24.0007C18 23.6273 17.7067 23.334 17.3333 23.334H14.6667C14.2933 23.334 14 23.6273 14 24.0007C14 24.374 14.2933 24.6673 14.6667 24.6673Z" fill="black"/>
<path d="M28.0932 11.013C27.8265 10.2664 27.0532 9.86635 26.2798 10.0664C25.7198 10.2264 24.8665 10.3064 23.9998 9.86635C23.6665 9.69302 23.3598 9.45302 23.0932 9.15969C22.5332 8.51969 21.4398 8.51969 20.8798 9.15969C20.6132 9.45302 20.3065 9.69302 19.9732 9.86635C19.1198 10.3064 18.2665 10.213 17.6932 10.0664C16.9332 9.85302 16.1598 10.2664 15.8798 11.013C15.3732 12.3997 14.7465 15.133 16.2532 17.8797C17.9065 20.8797 20.8665 21.5864 21.7332 21.733C21.8132 21.7464 21.8932 21.7597 21.9732 21.7597C22.0532 21.7597 22.1332 21.7597 22.2132 21.733C23.0798 21.5864 26.0532 20.8664 27.6932 17.8797C29.1998 15.1464 28.5732 12.3997 28.0665 11.013H28.0932ZM26.5598 17.2397C25.1998 19.7197 22.7332 20.3064 21.9998 20.4264C21.2798 20.3064 18.8265 19.7197 17.4532 17.2397C16.1998 14.9597 16.7332 12.653 17.1598 11.4797C17.1865 11.3997 17.2532 11.3597 17.3198 11.3597C17.3332 11.3597 17.3465 11.3597 17.3732 11.3597C18.1732 11.573 19.3732 11.693 20.5998 11.0664C21.0932 10.813 21.5332 10.4797 22.0132 9.99969C22.0398 9.99969 22.0798 9.99969 22.1198 10.053C22.4932 10.4797 22.9332 10.813 23.4132 11.0664C24.6398 11.693 25.8532 11.573 26.6398 11.3597C26.7332 11.3464 26.8132 11.3864 26.8398 11.4797C27.2665 12.653 27.7998 14.973 26.5465 17.2397H26.5598Z" fill="#8D0247"/>
<path d="M23.5203 13.3873L21.3336 15.6139L20.467 14.7206C20.2136 14.4539 19.787 14.4539 19.5203 14.7206C19.2536 14.9739 19.2536 15.4006 19.5203 15.6673L20.867 17.0406C20.987 17.1739 21.1603 17.2406 21.347 17.2406C21.5203 17.2406 21.6936 17.1739 21.827 17.0406L24.4803 14.3339C24.7336 14.0673 24.7336 13.6539 24.4803 13.3873C24.2136 13.1339 23.8003 13.1339 23.5336 13.3873H23.5203Z" fill="#8D0247"/>
</svg>
