<svg width="24" height="24" viewBox="0 0 24 24" fill="none" xmlns="http://www.w3.org/2000/svg">
<g clip-path="url(#clip0_4748_6045)">
<path fill-rule="evenodd" clip-rule="evenodd" d="M7.15682 4.4064C7.30322 4.40254 7.43948 4.47535 7.53188 4.58898C7.92915 5.07754 8.45579 5.39878 9.02223 5.54348C9.28225 5.6099 9.41226 5.64311 9.46019 5.70921C9.50811 5.77531 9.49926 5.90919 9.48157 6.17693C9.44403 6.74498 9.57714 7.32974 9.89985 7.85047C10.3803 8.62568 11.1746 9.08744 12.0165 9.17325C12.2873 9.20085 12.4227 9.21465 12.4788 9.26858C12.4888 9.27812 12.4919 9.28154 12.5003 9.29239C12.5483 9.35373 12.5483 9.48963 12.5483 9.76143C12.5483 11.3224 13.8131 12.5878 15.3733 12.5878H15.3805C15.4609 12.5878 15.5406 12.5845 15.6193 12.5779C15.923 12.5524 16.0749 12.5397 16.1479 12.6069C16.2209 12.674 16.2209 12.8076 16.2209 13.0748V17.0578C16.2209 18.4984 16.221 19.6641 16.0994 20.5819C15.9731 21.5358 15.7018 22.3484 15.0636 22.9962C14.4237 23.6458 13.6182 23.9234 12.6727 24.0524C11.7662 24.1761 10.6157 24.1761 9.19851 24.1761H9.07413C7.65691 24.1761 6.50643 24.1761 5.59985 24.0524C4.65439 23.9234 3.8489 23.6458 3.209 22.9962C2.39926 22.1743 2.17677 21.0823 2.09742 19.7612L2.0957 19.7326L2.18692 7.88476L2.19619 7.82421C2.33164 6.93905 2.60754 6.18167 3.209 5.57114C3.8489 4.92159 4.65439 4.64397 5.59985 4.51494C6.0561 4.45268 6.57412 4.42175 7.15682 4.4064ZM8.02821 19.9365C8.02821 19.3121 8.53413 18.8059 9.15821 18.8059H9.16836C9.79244 18.8059 10.2984 19.3121 10.2984 19.9365C10.2984 20.5609 9.79244 21.0671 9.16836 21.0671H9.15821C8.53413 21.0671 8.02821 20.5609 8.02821 19.9365Z" fill="#14B8A6"/>
<path d="M15.3661 -0.414062C12.9957 -0.414062 10.8111 0.461966 9.01067 1.9267C8.52656 2.32055 8.45338 3.03227 8.84722 3.51639C9.24106 4.0005 9.95279 4.07368 10.4369 3.67984C11.8819 2.50429 13.5734 1.84594 15.3661 1.84594C17.1645 1.84594 18.861 2.50843 20.309 3.691C20.7924 4.08576 21.5043 4.01392 21.899 3.53056C22.2938 3.04719 22.2219 2.33533 21.7386 1.94057C19.9349 0.46752 17.7441 -0.414062 15.3661 -0.414062Z" fill="#14B8A6"/>
<path d="M15.3661 4.3329C14.0387 4.3329 12.7937 4.72236 11.7058 5.39688C11.1754 5.72575 11.012 6.42232 11.3409 6.95272C11.6698 7.48312 12.3663 7.64649 12.8967 7.31763C13.6554 6.84721 14.4918 6.5929 15.3661 6.5929C16.2448 6.5929 17.0852 6.84977 17.847 7.32479C18.3766 7.65502 19.0736 7.49342 19.4038 6.96387C19.734 6.43431 19.5724 5.73732 19.0429 5.40709C17.9511 4.72632 16.7003 4.3329 15.3661 4.3329Z" fill="#14B8A6"/>
<path d="M15.3738 8.62595C14.7497 8.62595 14.2438 9.13186 14.2438 9.75595C14.2438 10.38 14.7497 10.8859 15.3738 10.8859H15.381C16.0051 10.8859 16.511 10.38 16.511 9.75595C16.511 9.13186 16.0051 8.62595 15.381 8.62595H15.3738Z" fill="#14B8A6"/>
</g>
<defs>
<clipPath id="clip0_4748_6045">
<rect width="24" height="24" fill="white"/>
</clipPath>
</defs>
</svg>
