<svg width="20" height="20" viewBox="0 0 20 20" fill="none" xmlns="http://www.w3.org/2000/svg">
<g clip-path="url(#clip0_6662_17143)">
<path d="M10.172 6.93936C9.4087 6.87519 8.68203 7.21103 7.94703 7.94686C6.58536 9.30936 6.58536 10.6902 7.94703 12.051C8.34786 12.4527 8.97953 13.0027 9.82536 13.0594C10.6304 13.1127 11.3704 12.7327 12.0504 12.051C13.412 10.6894 13.4112 9.30769 12.0504 7.94686C11.6495 7.54519 11.0179 7.00353 10.172 6.93853V6.93936ZM10.872 10.8735C10.6204 11.1252 10.2329 11.4194 9.9537 11.3977C9.73536 11.381 9.45703 11.2044 9.1262 10.8735C8.47036 10.2177 8.3787 9.87353 9.1262 9.12519C9.3687 8.88269 9.71453 8.60019 10.0104 8.60019L10.0445 8.60103C10.2629 8.61769 10.5412 8.79436 10.872 9.12519C11.5279 9.78103 11.6195 10.1252 10.872 10.8735Z" fill="#8D0247"/>
<path d="M19.1613 9.96148C19.1663 8.95648 18.7846 7.74315 17.0188 7.41982C16.9245 7.24012 16.8234 7.06415 16.7154 6.89232C17.6054 5.65982 17.5371 4.51648 16.5088 3.48815C15.4796 2.45815 14.3363 2.39065 13.1029 3.28398C12.9332 3.17651 12.7588 3.07642 12.5804 2.98398C12.2621 1.22398 11.0604 0.833984 10.0579 0.833984C8.6496 0.833984 7.74877 1.57648 7.48627 3.02065C7.31294 3.11148 7.13794 3.21232 6.9621 3.32232C5.7346 2.43565 4.59044 2.51148 3.55127 3.54898C2.51544 4.58565 2.44044 5.73065 3.32461 6.95815C3.21646 7.13016 3.11473 7.30611 3.01961 7.48565C1.57877 7.74898 0.845439 8.60648 0.837939 10.0382C0.832939 11.0432 1.21461 12.2565 2.98044 12.5798C3.07211 12.7548 3.17294 12.9307 3.28461 13.1073C2.39377 14.3398 2.46211 15.4832 3.49044 16.5115C4.51961 17.5415 5.66377 17.609 6.89627 16.7157C7.07044 16.8257 7.24461 16.9257 7.41877 17.0157C7.7371 18.7757 8.93877 19.1657 9.94127 19.1657C11.3754 19.1657 12.2504 18.4232 12.5129 16.979C12.6863 16.8882 12.8613 16.7873 13.0371 16.6773C14.2629 17.5615 15.4038 17.484 16.4471 16.4507C17.4904 15.4173 17.5588 14.269 16.6746 13.0407C16.7854 12.864 16.8871 12.6882 16.9796 12.514C18.4204 12.2507 19.1538 11.3932 19.1613 9.96148ZM16.3538 10.9173C16.2049 10.9302 16.0622 10.9828 15.9407 11.0698C15.8191 11.1567 15.7232 11.2747 15.6629 11.4115C15.4732 11.8297 15.2388 12.2262 14.9638 12.594C14.7288 12.9148 14.7538 13.3582 15.0229 13.6515C15.9171 14.6232 15.6171 14.924 15.2688 15.2723C14.9063 15.6357 14.6188 15.9223 13.6496 15.0257C13.5074 14.8947 13.3242 14.8171 13.1312 14.8062C12.9382 14.7952 12.7474 14.8516 12.5913 14.9657C12.2246 15.2399 11.8289 15.473 11.4113 15.6607C11.274 15.7209 11.1556 15.817 11.0683 15.9389C10.9811 16.0607 10.9283 16.2038 10.9154 16.3532C10.8171 17.4948 10.4154 17.4973 9.95127 17.499C9.48044 17.499 9.10294 17.504 9.01627 16.394C9.00458 16.2424 8.95155 16.0969 8.86296 15.9734C8.77436 15.8498 8.65359 15.7529 8.51377 15.6932C8.09854 15.5094 7.7057 15.2787 7.34294 15.0057C7.18727 14.89 6.99602 14.8325 6.80239 14.8432C6.60877 14.8538 6.42498 14.932 6.28294 15.064C5.30044 15.9698 5.00627 15.674 4.66711 15.334C4.32627 14.9932 4.03211 14.6982 4.93544 13.7173C5.06677 13.5748 5.14429 13.391 5.15463 13.1975C5.16498 13.004 5.1075 12.813 4.99211 12.6573C4.71771 12.2941 4.48566 11.9007 4.30044 11.4848C4.24065 11.3454 4.14392 11.2251 4.0207 11.1366C3.89748 11.0482 3.75245 10.9952 3.60127 10.9832C2.49711 10.8948 2.49877 10.5207 2.50127 10.0473C2.50377 9.56315 2.50544 9.18065 3.64211 9.08232C3.79098 9.06946 3.93367 9.0168 4.05521 8.92986C4.17675 8.84292 4.27267 8.72489 4.33294 8.58815C4.50127 8.20732 4.73627 7.80898 5.03211 7.40482C5.14605 7.2489 5.20243 7.0583 5.19165 6.86549C5.18086 6.67267 5.10357 6.48955 4.97294 6.34732C4.07877 5.37648 4.37961 5.07565 4.72711 4.72732C5.08961 4.36482 5.37711 4.07815 6.34627 4.97315C6.48825 5.1042 6.67136 5.18183 6.86426 5.19278C7.05717 5.20372 7.24788 5.14729 7.40377 5.03315C7.80711 4.73815 8.20377 4.50482 8.58461 4.33815C8.86377 4.21565 9.05377 3.95065 9.08044 3.64565C9.17877 2.50398 9.58044 2.50148 10.0446 2.49982C10.5221 2.50315 10.8929 2.49482 10.9796 3.60482C10.9913 3.75641 11.0443 3.90189 11.1329 4.02545C11.2215 4.14901 11.3423 4.24593 11.4821 4.30565C11.8604 4.46815 12.2546 4.69898 12.6529 4.99315C12.9738 5.22982 13.4188 5.20565 13.7121 4.93565C14.6946 4.02982 14.9879 4.32565 15.3279 4.66565C15.6688 5.00648 15.9638 5.30148 15.0596 6.28232C14.9283 6.42477 14.8507 6.60852 14.8402 6.80198C14.8297 6.99543 14.887 7.1865 15.0021 7.34232C15.2988 7.74315 15.5313 8.13815 15.6938 8.51482C15.8154 8.79898 16.0854 8.99232 16.3929 9.01648C17.4971 9.10482 17.4954 9.47898 17.4929 9.95232C17.4904 10.4365 17.4888 10.819 16.3521 10.9173H16.3538Z" fill="#8D0247"/>
</g>
<defs>
<clipPath id="clip0_6662_17143">
<rect width="20" height="20" fill="white"/>
</clipPath>
</defs>
</svg>
