<svg width="34" height="34" viewBox="0 0 34 34" fill="none" xmlns="http://www.w3.org/2000/svg">
<path d="M15.2308 23.8857V26.7616C15.2308 29.1983 12.9641 31.1674 10.1733 31.1674C7.38242 31.1674 5.10156 29.1983 5.10156 26.7616V23.8857C5.10156 26.3224 7.36825 28.0507 10.1733 28.0507C12.9641 28.0507 15.2308 26.3082 15.2308 23.8857Z" stroke="#8D0247" stroke-width="1.5" stroke-linecap="round" stroke-linejoin="round"/>
<path d="M15.2292 19.9893C15.2292 20.6976 15.0309 21.3493 14.6909 21.9159C13.8551 23.2901 12.1409 24.1543 10.1575 24.1543C8.17421 24.1543 6.46002 23.2759 5.62419 21.9159C5.28419 21.3493 5.08594 20.6976 5.08594 19.9893C5.08594 18.771 5.65257 17.6801 6.55924 16.8868C7.48007 16.0793 8.74086 15.5977 10.1434 15.5977C11.5459 15.5977 12.8067 16.0935 13.7276 16.8868C14.6626 17.666 15.2292 18.771 15.2292 19.9893Z" stroke="#8D0247" stroke-width="1.5" stroke-linecap="round" stroke-linejoin="round"/>
<path d="M15.2308 19.9893V23.8851C15.2308 26.3218 12.9641 28.0501 10.1733 28.0501C7.38242 28.0501 5.10156 26.3076 5.10156 23.8851V19.9893C5.10156 17.5526 7.36825 15.5835 10.1733 15.5835C11.5758 15.5835 12.8366 16.0793 13.7575 16.8726C14.6641 17.666 15.2308 18.771 15.2308 19.9893Z" stroke="#8D0247" stroke-width="1.5" stroke-linecap="round" stroke-linejoin="round"/>
<path d="M31.1666 15.5406V18.4591C31.1666 19.2382 30.5433 19.8757 29.75 19.904H26.9733C25.4433 19.904 24.0408 18.7848 23.9133 17.2548C23.8283 16.3623 24.1683 15.5265 24.7633 14.9457C25.2874 14.4073 26.01 14.0957 26.8033 14.0957H29.75C30.5433 14.124 31.1666 14.7615 31.1666 15.5406Z" stroke="#292D32" stroke-width="1.5" stroke-linecap="round" stroke-linejoin="round"/>
<path d="M2.83398 14.8752V12.0418C2.83398 8.1885 5.15732 5.49683 8.76982 5.04349C9.13815 4.98683 9.52065 4.9585 9.91732 4.9585H22.6673C23.0357 4.9585 23.3898 4.97265 23.7298 5.02931C27.3848 5.45431 29.7507 8.16016 29.7507 12.0418V14.096H26.804C26.0106 14.096 25.2881 14.4076 24.764 14.946C24.169 15.5268 23.829 16.3627 23.914 17.2552C24.0415 18.7852 25.444 19.9043 26.974 19.9043H29.7507V21.9585C29.7507 26.2085 26.9173 29.0418 22.6673 29.0418H19.1257" stroke="#292D32" stroke-width="1.5" stroke-linecap="round" stroke-linejoin="round"/>
</svg>
