<svg width="20" height="20" viewBox="0 0 20 20" fill="none" xmlns="http://www.w3.org/2000/svg">
<g clip-path="url(#clip0_4772_29724)">
<path d="M9.60948 12.746V12.3406C9.52082 12.3325 9.43341 12.3192 9.34566 12.2976C9.13355 12.2452 8.94435 12.1509 8.72955 12.0104C8.54901 11.8923 8.49841 11.6502 8.61652 11.4697C8.73462 11.2891 8.97672 11.2385 9.15725 11.3566C9.32889 11.4689 9.43573 11.5151 9.53304 11.5391C9.63672 11.5647 9.75582 11.5722 9.97279 11.5707C10.3333 11.5683 10.5792 11.3232 10.648 11.034C10.682 10.8911 10.6676 10.7535 10.6131 10.6433C10.5613 10.5386 10.4614 10.4339 10.2739 10.3676H10.2739C9.7806 10.1932 9.35666 10.0182 9.05635 9.78265C8.69078 9.49592 8.61364 9.02417 8.70048 8.64469C8.78968 8.25491 9.0693 7.8651 9.54063 7.7231H9.54067C9.56378 7.71614 9.58673 7.70976 9.60948 7.70391V7.25488C9.60948 7.03915 9.78438 6.86426 10.0001 6.86426C10.2158 6.86426 10.3907 7.03915 10.3907 7.25488V7.69544C10.6922 7.76708 10.9043 7.90707 10.9862 7.96762L11.0098 7.98559L11.0117 7.98708L11.0168 7.9912L11.022 7.99535L11.0253 7.99806C11.1918 8.1352 11.2156 8.38138 11.0785 8.54791C10.9413 8.71445 10.6952 8.73827 10.5286 8.60113L10.5282 8.60078L10.5272 8.59998L10.5172 8.59243C10.4527 8.54537 10.1646 8.36031 9.78534 8.46552L9.766 8.47112C9.6116 8.51764 9.50067 8.65018 9.46204 8.81898C9.42234 8.9925 9.47534 9.11342 9.53292 9.16334L9.53849 9.16795C9.72655 9.31545 10.0374 9.45533 10.5343 9.63102H10.5343C10.9009 9.7606 11.1654 9.99808 11.3132 10.2968C11.4583 10.5901 11.4788 10.9171 11.408 11.2148C11.2942 11.6934 10.9309 12.138 10.3907 12.2934V12.746C10.3907 12.9617 10.2158 13.1366 10.0001 13.1366C9.78438 13.1366 9.60949 12.9617 9.60948 12.746Z" fill="#8D0247"/>
<path d="M13.9238 9.99997C13.9238 7.83292 12.167 6.07618 9.99997 6.07617C7.83292 6.07617 6.07617 7.83292 6.07617 9.99997C6.07618 12.167 7.83292 13.9238 9.99997 13.9238C12.167 13.9238 13.9238 12.167 13.9238 9.99997ZM14.705 9.99997C14.705 12.5985 12.5985 14.705 9.99997 14.705C7.40145 14.705 5.29493 12.5985 5.29492 9.99997C5.29492 7.40145 7.40145 5.29492 9.99997 5.29492C12.5985 5.29493 14.705 7.40145 14.705 9.99997Z" fill="#8D0247"/>
<path d="M3.66108 10.6888C3.77605 10.5866 3.9403 10.5614 4.08062 10.6244C4.22094 10.6874 4.31122 10.8269 4.31122 10.9808V12.159H6.51905C6.73479 12.159 6.90968 12.3339 6.90968 12.5496C6.90967 12.7654 6.73478 12.9402 6.51905 12.9402H3.92059C3.70486 12.9402 3.52998 12.7654 3.52997 12.5496V11.8506L0.978584 14.1185L3.52997 16.3864V15.6874C3.52998 15.4716 3.70486 15.2967 3.92059 15.2967H8.23662V14.0914C8.23662 13.8757 8.41151 13.7008 8.62724 13.7008C8.84297 13.7008 9.01787 13.8757 9.01787 14.0914V15.6874C9.01787 15.9031 8.84297 16.078 8.62724 16.078H4.31122V17.2562C4.31122 17.4101 4.22094 17.5496 4.08062 17.6126C3.9403 17.6756 3.77605 17.6504 3.66108 17.5482L0.131111 14.4105C0.0477174 14.3363 3.35276e-07 14.2301 0 14.1185C4.42242e-06 14.0069 0.0477219 13.9007 0.131111 13.8266L3.66108 10.6888ZM10.9821 5.90892V4.313C10.9821 4.09727 11.157 3.92239 11.3728 3.92238H15.6888V2.74413C15.6888 2.59031 15.7791 2.45082 15.9194 2.3878C16.0597 2.32479 16.2239 2.35 16.3389 2.45219L19.8689 5.5899C19.9523 5.66402 20 5.7703 20 5.88187C20 5.99345 19.9523 6.09969 19.8689 6.17381L16.3389 9.31159C16.224 9.41378 16.0597 9.439 15.9194 9.37598C15.7791 9.31297 15.6888 9.17347 15.6888 9.01965V7.84141H13.4809C13.2652 7.84141 13.0903 7.66651 13.0903 7.45078C13.0903 7.23505 13.2652 7.06016 13.4809 7.06016H16.0794C16.2951 7.06016 16.47 7.23505 16.47 7.45078V8.14975L19.0214 5.88184L16.47 3.61396V4.313C16.47 4.52874 16.2951 4.70363 16.0794 4.70363H11.7634V5.90892C11.7634 6.12466 11.5885 6.29955 11.3728 6.29955C11.157 6.29954 10.9821 6.12465 10.9821 5.90892Z" fill="#8D0247"/>
</g>
<defs>
<clipPath id="clip0_4772_29724">
<rect width="20" height="20" fill="white"/>
</clipPath>
</defs>
</svg>
