<svg width="32" height="32" viewBox="0 0 32 32" fill="none" xmlns="http://www.w3.org/2000/svg">
<path d="M13.9873 12.1338C13.9207 11.7738 13.574 11.5338 13.2007 11.6138C9.73398 12.3072 7.20065 14.1872 5.68065 15.6538C5.42732 15.8938 5.14732 15.8138 5.04065 15.7605C4.94732 15.7205 4.66732 15.5738 4.66732 15.1872C4.66732 15.0272 4.73398 14.8672 4.85398 14.7472C5.93398 13.6405 8.94732 11.0005 13.454 10.2272C13.814 10.1605 14.0673 9.82716 14.0007 9.45382C13.934 9.09382 13.6007 8.84049 13.2273 8.90716C8.34732 9.73382 5.08065 12.6138 3.90732 13.8005C3.54732 14.1738 3.33398 14.6538 3.33398 15.1872C3.33398 15.9872 3.78732 16.6672 4.52065 16.9872C4.77398 17.0938 5.02732 17.1472 5.29398 17.1472C5.77398 17.1472 6.24065 16.9605 6.61398 16.6138C8.00065 15.2805 10.334 13.5472 13.4673 12.9205C13.8273 12.8538 14.0673 12.4938 13.9873 12.1338Z" fill="black"/>
<path d="M24.001 19.9074C23.6277 19.9074 23.3343 20.2407 23.3343 20.614C23.3343 20.9207 23.1743 21.134 23.0143 21.1874C22.8943 21.2407 22.7877 21.2007 22.6943 21.094C21.3477 19.6807 19.1077 18.0007 16.001 18.0007C15.8543 18.0007 12.241 18.0407 9.34766 20.974C9.22766 21.094 9.09432 21.134 8.96099 21.0807C8.81432 21.0274 8.66766 20.8407 8.66766 20.5207C8.66766 20.334 8.72099 20.174 8.84099 20.054C9.78766 19.0007 11.8277 17.174 14.7743 16.7607C15.1343 16.7074 15.3877 16.374 15.3343 16.0007C15.281 15.6407 14.9343 15.3874 14.5743 15.4407C11.2143 15.9207 8.92099 17.9874 7.85432 19.1607C7.52099 19.5207 7.34766 20.014 7.34766 20.534C7.34766 21.3474 7.78766 22.0407 8.46766 22.3207C9.09432 22.5874 9.80099 22.4274 10.3077 21.9207C12.8277 19.374 15.9877 19.3474 16.0143 19.3474C18.641 19.3474 20.5743 20.8007 21.7477 22.0274C22.081 22.374 22.4943 22.5607 22.9343 22.5607C23.1343 22.5607 23.3343 22.5207 23.5343 22.4407C24.241 22.1607 24.6943 21.4407 24.6943 20.6274V20.5474C24.6943 20.174 24.401 19.9207 24.0277 19.9207L24.001 19.9074Z" fill="black"/>
<path d="M15.9993 22C14.1593 22 12.666 23.4933 12.666 25.3333C12.666 27.1733 14.1593 28.6667 15.9993 28.6667C17.8394 28.6667 19.3327 27.1733 19.3327 25.3333C19.3327 23.4933 17.8394 22 15.9993 22ZM15.9993 27.3333C14.8927 27.3333 13.9993 26.44 13.9993 25.3333C13.9993 24.2267 14.8927 23.3333 15.9993 23.3333C17.106 23.3333 17.9994 24.2267 17.9994 25.3333C17.9994 26.44 17.106 27.3333 15.9993 27.3333Z" fill="black"/>
<path d="M28.0935 7.82747C27.8268 7.08081 27.0402 6.68081 26.2935 6.88081C25.7202 7.02747 24.8669 7.12081 24.0135 6.68081C23.6669 6.50747 23.3735 6.26747 23.1069 5.97414C22.5469 5.33414 21.4535 5.33414 20.8935 5.97414C20.6269 6.26747 20.3202 6.50747 19.9869 6.68081C19.1335 7.12081 18.2802 7.02747 17.7069 6.88081C16.9469 6.66747 16.1735 7.08081 15.8935 7.82747C15.3869 9.21414 14.7602 11.9475 16.2669 14.6941C17.9202 17.6941 20.8802 18.4008 21.7602 18.5475C21.8402 18.5475 21.9202 18.5608 22.0002 18.5608C22.0802 18.5608 22.1602 18.5608 22.2402 18.5475C23.1069 18.4008 26.0669 17.6808 27.7202 14.6941C29.2269 11.9608 28.6002 9.21414 28.0935 7.82747ZM26.5469 14.0541C25.1869 16.5341 22.7202 17.1208 21.9869 17.2408C21.2669 17.1208 18.8135 16.5341 17.4402 14.0541C16.1869 11.7741 16.7202 9.46747 17.1469 8.29414C17.1735 8.21414 17.2269 8.17414 17.3069 8.17414C17.3202 8.17414 17.3335 8.17414 17.3602 8.17414C18.1602 8.38747 19.3602 8.50747 20.5869 7.88081C21.0802 7.62747 21.5069 7.29414 22.0002 6.81414C22.0269 6.81414 22.0669 6.81414 22.1069 6.86747C22.4802 7.29414 22.9202 7.62747 23.4002 7.88081C24.6402 8.50747 25.8402 8.38747 26.6269 8.17414C26.7202 8.14747 26.8002 8.20081 26.8269 8.29414C27.2535 9.46747 27.7868 11.7741 26.5335 14.0541H26.5469Z" fill="#8D0247"/>
<path d="M23.5203 10.1998L21.3336 12.4264L20.467 11.5331C20.2136 11.2664 19.787 11.2664 19.5203 11.5331C19.2536 11.7864 19.2536 12.2131 19.5203 12.4798L20.867 13.8531C20.987 13.9864 21.1603 14.0531 21.347 14.0531C21.5203 14.0531 21.6936 13.9864 21.827 13.8531L24.4803 11.1464C24.7336 10.8798 24.7336 10.4664 24.4803 10.1998C24.2136 9.94643 23.8003 9.94643 23.5336 10.1998H23.5203Z" fill="#8D0247"/>
</svg>
